<svg width="364" height="152" viewBox="0 0 364 152" fill="none"
  xmlns="http://www.w3.org/2000/svg">
  <path d="M0 0H364V152H0V0Z" fill="#28646E"/>
  <path d="M66.1899 76.1084L66.9624 68.4941C67.4774 64.2272 68.0659 59.0775 68.728 53.0449L70.0522 42.0098C70.3465 41.0534 70.7879 40.5016 71.3765 40.3545C72.0386 40.2074 72.9214 40.1338 74.0249 40.1338C75.1284 40.1338 75.9377 40.4281 76.4526 41.0166C76.9676 41.5316 77.2251 42.1937 77.2251 43.0029C77.2987 43.8122 77.2251 44.7318 77.0044 45.7617C76.7837 46.7917 76.6733 47.7848 76.6733 48.7412C81.8231 48.7412 86.936 48.1895 92.0122 47.0859C97.1619 45.9824 102.275 44.7686 107.351 43.4443C112.427 42.1201 117.503 40.9062 122.58 39.8027C127.656 38.6992 132.769 38.1475 137.918 38.1475C138.654 38.1475 139.316 38.2578 139.905 38.4785C140.567 38.6257 141.082 39.2142 141.45 40.2441C141.155 41.127 140.64 41.8626 139.905 42.4512C139.169 43.0397 137.918 43.6283 136.153 44.2168C134.461 44.8053 132.143 45.4307 129.201 46.0928C126.258 46.6813 122.469 47.4906 117.834 48.5205C113.2 49.4769 107.535 50.654 100.84 52.0518C94.2192 53.4495 86.3843 55.1784 77.3354 57.2383V71.3633C79.6896 71.1426 82.3748 70.7747 85.3911 70.2598C90.9823 69.3034 95.2492 68.8252 98.1919 68.8252C101.135 68.8252 103.562 68.862 105.475 68.9355C107.461 69.0091 109.705 69.5241 112.207 70.4805C117.577 72.5404 120.593 76.7705 121.255 83.1709C121.255 87.8057 119.968 91.7415 117.393 94.9785C114.892 98.1419 111.728 100.68 107.903 102.593C100.693 106.198 92.3065 108 82.7427 108C80.6828 108 79.2114 107.779 78.3286 107.338C77.4458 106.896 77.0044 105.94 77.0044 104.469C77.0044 102.997 77.5929 101.6 78.77 100.275C79.9471 98.9512 81.2713 98.2891 82.7427 98.2891V100.275C91.4237 100.275 97.6769 99.6868 101.502 98.5098C105.328 97.2591 108.344 95.5671 110.551 93.4336C112.832 91.2266 113.972 88.5046 113.972 85.2676C113.972 82.0306 113.31 79.6764 111.986 78.2051C110.662 76.7337 109.043 75.6302 107.13 74.8945C104.188 73.7174 100.84 73.1289 97.0884 73.1289C93.3364 73.1289 90.5041 73.4232 88.5913 74.0117C86.6785 74.6003 84.8026 75.2624 82.9634 75.998C78.0343 77.8372 74.2824 78.7568 71.7075 78.7568H69.9419C67.4406 78.7568 66.1899 77.874 66.1899 76.1084Z" fill="white"/>
  <path d="M156.016 103.145C153.368 101.452 151.271 99.3558 149.726 96.8545C148.181 94.2796 147.409 91.5208 147.409 88.5781C147.409 85.6354 147.85 82.141 148.733 78.0947C149.616 74.0485 150.719 70.2965 152.043 66.8389C153.441 63.3812 155.097 60.0339 157.009 56.7969C158.996 53.5599 161.239 50.6908 163.741 48.1895C169.258 42.819 175.512 40.1338 182.5 40.1338C191.917 40.1338 199.127 43.5915 204.129 50.5068C208.764 56.7601 211.082 64.5215 211.082 73.791C211.082 84.7526 207.587 93.2865 200.598 99.3926C193.756 105.278 184.671 108.221 173.341 108.221C166.794 108.221 161.019 106.529 156.016 103.145ZM153.919 87.8057C153.919 97.7373 160.982 102.703 175.107 102.703C185.259 102.703 192.874 100.091 197.95 94.8682C203.099 89.6449 205.674 82.2145 205.674 72.5771C205.674 72.2829 205.674 71.9886 205.674 71.6943C205.674 63.234 203.578 56.7601 199.384 52.2725C195.191 47.7848 189.453 45.541 182.169 45.541C181.36 45.541 180.625 45.541 179.962 45.541C179.374 45.541 178.822 45.541 178.307 45.541C174.408 45.541 170.546 48.1895 166.72 53.4863C163.115 58.3418 160.026 64.5583 157.451 72.1357C155.097 79.0511 153.919 84.2744 153.919 87.8057Z" fill="white"/>
  <path d="M227.303 103.145C224.655 101.452 222.558 99.3558 221.013 96.8545C219.468 94.2796 218.696 91.5208 218.696 88.5781C218.696 85.6354 219.137 82.141 220.02 78.0947C220.903 74.0485 222.006 70.2965 223.331 66.8389C224.728 63.3812 226.384 60.0339 228.296 56.7969C230.283 53.5599 232.527 50.6908 235.028 48.1895C240.545 42.819 246.799 40.1338 253.788 40.1338C263.204 40.1338 270.414 43.5915 275.417 50.5068C280.051 56.7601 282.369 64.5215 282.369 73.791C282.369 84.7526 278.874 93.2865 271.885 99.3926C265.043 105.278 255.958 108.221 244.628 108.221C238.081 108.221 232.306 106.529 227.303 103.145ZM225.207 87.8057C225.207 97.7373 232.269 102.703 246.394 102.703C256.546 102.703 264.161 100.091 269.237 94.8682C274.387 89.6449 276.961 82.2145 276.961 72.5771C276.961 72.2829 276.961 71.9886 276.961 71.6943C276.961 63.234 274.865 56.7601 270.671 52.2725C266.478 47.7848 260.74 45.541 253.457 45.541C252.647 45.541 251.912 45.541 251.25 45.541C250.661 45.541 250.109 45.541 249.594 45.541C245.695 45.541 241.833 48.1895 238.007 53.4863C234.403 58.3418 231.313 64.5583 228.738 72.1357C226.384 79.0511 225.207 84.2744 225.207 87.8057Z" fill="white"/>
</svg>
