<svg xmlns="http://www.w3.org/2000/svg" width="width" height="52" viewBox="0 0 187.683 52">
  <g id="Group_2_Copy" data-name="Group 2 Copy" transform="translate(0 -0.111)">
    <g id="Group_7" data-name="Group 7" transform="translate(0 0.111)">
      <rect id="Rectangle" width="52" height="52" rx="8" fill="#28646e"/>
      <g id="Group_9" data-name="Group 9" transform="translate(10.4 11.7)">
        <path id="Fill_52" data-name="Fill 52" d="M.783,6.818A.782.782,0,0,1,.265,5.449a16.626,16.626,0,0,0,3.36-3.856A2.8,2.8,0,0,1,6.416.023.783.783,0,0,1,6.2,1.574c-.64-.085-1.068.529-1.222.8A18.255,18.255,0,0,1,1.3,6.622a.778.778,0,0,1-.517.2" transform="translate(13.172 1.762)" fill="#fff"/>
        <path id="Fill_54" data-name="Fill 54" d="M.783,3.391a.783.783,0,0,1-.5-1.383A21.912,21.912,0,0,1,3.161.082a.782.782,0,0,1,.7,1.4A20.956,20.956,0,0,0,1.283,3.21a.782.782,0,0,1-.5.181" transform="translate(0 18.451)" fill="#fff"/>
        <path id="Fill_56" data-name="Fill 56" d="M17.365,13.363c.311.291.672.166,1-.15A29.666,29.666,0,0,0,23.835,5.9a.688.688,0,0,1,.889-.436c.436.176.428.926.035,1.741a27.7,27.7,0,0,1-5.37,7.5.6.6,0,0,0,.013.885c.253.229.665.213,1.048-.177A31.925,31.925,0,0,0,23.806,11.5a.739.739,0,0,1,.752-.392c.376.076.436.436.322.873a22.325,22.325,0,0,1-2.95,4.174c-2.126,2.372-4.253,3.671-8.346,5.8A7.25,7.25,0,0,0,10.439,24.5c-.589.994-.765,1.32-.825,1.445a.993.993,0,0,0,.435,1.324.964.964,0,0,0,1.306-.5A14.785,14.785,0,0,1,12.1,25.48a5.555,5.555,0,0,1,2.41-2.124,23.633,23.633,0,0,0,8.145-5.719,27.287,27.287,0,0,0,2.99-4.093c1.144-1.926.543-3.577-.49-3.858a.132.132,0,0,1-.082-.194A10.346,10.346,0,0,0,26.384,6.44a1.944,1.944,0,0,0-1.447-2.5.132.132,0,0,1-.1-.164c.086-.315.172-.714.23-.976A2.226,2.226,0,0,0,23.555.12,2.286,2.286,0,0,0,21.71.5a.181.181,0,0,1-.238-.029A1.426,1.426,0,0,0,20.45,0a2.3,2.3,0,0,0-2.317,1.564A16.36,16.36,0,0,1,15.108,5.91,33.275,33.275,0,0,1,9.3,10.83c-.27.177-.648.136-.6-.226.072-.573.688-4.431.793-5.567.17-1.846-.823-2.688-1.937-2.84-.917-.124-2.307.141-3.07,2.228A46.784,46.784,0,0,0,2.316,10.9a19.874,19.874,0,0,0-.138,7.983.776.776,0,0,1-.1.532A31.593,31.593,0,0,0,.083,22.874.987.987,0,0,0,.491,24.13.96.96,0,0,0,1.825,23.7c.294-.623.9-1.793,1.14-2.277a16.909,16.909,0,0,0,.8-1.756,2.689,2.689,0,0,0-.023-1.536A15.96,15.96,0,0,1,3.9,11.68,66.723,66.723,0,0,1,6.207,4.489c.233-.576.564-.757.9-.726s.963.19.782,1.365C7.56,7.236,7.1,9.912,6.952,10.814a1.827,1.827,0,0,0,.657,1.949A1.939,1.939,0,0,0,9.72,12.41a39.858,39.858,0,0,0,6.631-5.648,15.524,15.524,0,0,0,3.121-4.745.888.888,0,0,1,1.038-.483c.21.061.467.347.286.948a20.584,20.584,0,0,1-5.728,7.951.687.687,0,0,0-.138,1,.649.649,0,0,0,.96.007,23.047,23.047,0,0,0,5.719-7.564A14.09,14.09,0,0,0,22.3,2.122a.775.775,0,0,1,.817-.617c.382.08.632.471.512,1.113A11.287,11.287,0,0,1,22.773,5a33.02,33.02,0,0,1-5.407,7.427.642.642,0,0,0,0,.94" transform="translate(3.09 1.055)" fill="#fff"/>
        <path id="Fill_58" data-name="Fill 58" d="M3.573,3.814c.121-.106.073-.243.04-.351C3.444,2.926,2.483.675,2.232.224A.339.339,0,0,0,1.773.03,3.64,3.64,0,0,0,.839.7a3.6,3.6,0,0,0-.787.839.338.338,0,0,0,.132.479C.6,2.328,2.7,3.574,3.216,3.812c.1.047.233.112.354.005Z" transform="translate(2.734 0)" fill="#fff"/>
        <path id="Fill_60" data-name="Fill 60" d="M4.187.723c-.028-.16-.169-.19-.279-.217C3.36.37.938.02.422,0a.339.339,0,0,0-.4.291A3.6,3.6,0,0,0,.106,1.44,3.62,3.62,0,0,0,.414,2.548a.338.338,0,0,0,.478.137C1.371,2.491,3.53,1.339,4,1.025c.094-.063.217-.14.189-.3Z" transform="translate(1.299 4.565)" fill="#fff"/>
        <path id="Fill_62" data-name="Fill 62" d="M1.124,0C.963.011.918.15.879.256c-.193.529-.8,2.9-.871,3.412A.339.339,0,0,0,.254,4.1,3.638,3.638,0,0,0,1.4,4.135a3.613,3.613,0,0,0,1.135-.189.339.339,0,0,0,.186-.462C2.583,2.988,1.667.72,1.4.22,1.351.12,1.289-.01,1.128,0Z" transform="translate(22.537 23.722)" fill="#fff"/>
        <path id="Fill_64" data-name="Fill 64" d="M.027.129c-.074.144.02.253.09.342C.47.912,2.181,2.66,2.58,2.989a.339.339,0,0,0,.5.013A3.614,3.614,0,0,0,3.7,2.038,3.567,3.567,0,0,0,4.132.97c.024-.182-.045-.33-.3-.4C3.338.434.924.039.361,0,.248,0,.1-.017.029.127Z" transform="translate(25.002 22.495)" fill="#fff"/>
      </g>
    </g>
    <g id="Logo" transform="translate(73 16.111)">
      <path id="Fill_18" data-name="Fill 18" d="M6.548,14.345H1.063A.971.971,0,0,1,0,13.274V.536A.486.486,0,0,1,.532,0h.922a.486.486,0,0,1,.531.536v11.54a.485.485,0,0,0,.532.536H6.548a.486.486,0,0,1,.532.536v.661a.486.486,0,0,1-.532.536" transform="translate(70.393 5.826)" fill="#28646e"/>
      <path id="Fill_20" data-name="Fill 20" d="M3.987,11.741a3.947,3.947,0,1,1,0-7.893,4.283,4.283,0,0,1,1.788.39.258.258,0,0,0,.116.03c.132,0,.222-.129.222-.322A2.131,2.131,0,0,0,3.987,1.729a4.083,4.083,0,0,0-2.005.512.555.555,0,0,1-.262.078c-.158,0-.286-.1-.415-.322l-.314-.56A.548.548,0,0,1,1.256.707,5.393,5.393,0,0,1,3.987,0,3.961,3.961,0,0,1,6.878,1.188a3.952,3.952,0,0,1,1.1,2.759v7.015a.486.486,0,0,1-.532.536H6.814a.422.422,0,0,1-.386-.22.246.246,0,0,0-.207-.143.217.217,0,0,0-.131.046A3.966,3.966,0,0,1,3.987,11.741Zm0-6.163A2.126,2.126,0,0,0,1.86,7.795a2.128,2.128,0,1,0,4.253,0A2.131,2.131,0,0,0,3.987,5.578Z" transform="translate(81.282 8.674)" fill="#28646e"/>
      <path id="Fill_22" data-name="Fill 22" d="M7.442,11.5h-.8a.485.485,0,0,1-.531-.536V3.946a2.128,2.128,0,1,0-4.253,0v7.015a.485.485,0,0,1-.531.536h-.8A.486.486,0,0,1,0,10.962V.78A.486.486,0,0,1,.532.243H1.16a.427.427,0,0,1,.387.219.218.218,0,0,0,.338.1A3.97,3.97,0,0,1,3.987,0,3.9,3.9,0,0,1,7.974,3.946v7.015a.485.485,0,0,1-.531.536" transform="translate(94.305 8.674)" fill="#28646e"/>
      <path id="Fill_24" data-name="Fill 24" d="M3.987,14.589A3.9,3.9,0,0,1,0,10.642V6.794A3.9,3.9,0,0,1,3.987,2.848a4.476,4.476,0,0,1,1.74.39.359.359,0,0,0,.147.035.236.236,0,0,0,.239-.254V.536A.486.486,0,0,1,6.645,0h.8a.486.486,0,0,1,.532.536V13.81a.486.486,0,0,1-.532.536H6.814a.426.426,0,0,1-.387-.219.245.245,0,0,0-.207-.144.217.217,0,0,0-.131.046A3.973,3.973,0,0,1,3.987,14.589Zm0-10.012A2.126,2.126,0,0,0,1.86,6.794v3.848a2.128,2.128,0,1,0,4.253,0V6.794A2.131,2.131,0,0,0,3.987,4.577Z" transform="translate(106.709 5.826)" fill="#28646e"/>
      <path id="Fill_26" data-name="Fill 26" d="M8.28,11.589H3.246a.276.276,0,0,1-.3-.305V.61A.553.553,0,0,0,2.338,0H.605A.553.553,0,0,0,0,.61V13.131a1.106,1.106,0,0,0,1.21,1.22H8.28a.553.553,0,0,0,.605-.61V12.2a.553.553,0,0,0-.605-.61" transform="translate(0.567 5.826)" fill="#28646e"/>
      <path id="Fill_28" data-name="Fill 28" d="M2.534,0H.587A.545.545,0,0,0,0,.61V8.184a.545.545,0,0,0,.587.61H2.534a.545.545,0,0,0,.588-.61V.61A.545.545,0,0,0,2.534,0" transform="translate(14.614 11.383)" fill="#28646e"/>
      <path id="Fill_30" data-name="Fill 30" d="M3.775,4.89c.165-.1.138-.273.121-.41C3.811,3.805,3.153.928,2.952.338a.406.406,0,0,0-.5-.327,4.308,4.308,0,0,0-1.243.6,4.326,4.326,0,0,0-1.1.83.411.411,0,0,0,.054.6c.424.454,2.644,2.381,3.2,2.772.111.079.25.183.416.082Z" transform="translate(11.496 4.52)" fill="#28646e"/>
      <path id="Fill_32" data-name="Fill 32" d="M.152,4.95c.17.092.3-.02.411-.1A34.577,34.577,0,0,0,3.61,1.908a.411.411,0,0,0,.023-.6A4.323,4.323,0,0,0,2.487.537,4.3,4.3,0,0,0,1.214.006C1-.024.817.058.732.359.562.959.056,3.867.006,4.546c-.01.137-.028.311.142.4Z" transform="translate(16.838 0.655)" fill="#28646e"/>
      <path id="Fill_34" data-name="Fill 34" d="M9.3,14.082H7.568a.553.553,0,0,1-.605-.61v-2.58a1.967,1.967,0,0,0-2.009-2,1.967,1.967,0,0,0-2.009,2v2.58a.553.553,0,0,1-.606.61H.606A.553.553,0,0,1,0,13.472V.61A.553.553,0,0,1,.606,0H2.339a.553.553,0,0,1,.606.61V6.064a.414.414,0,0,0,.44.416,1.084,1.084,0,0,0,.77-.527L6.488,2.487A1.073,1.073,0,0,1,7.4,1.9H9.411a.457.457,0,0,1,.413.749L7.21,6.231c-.138.222-.165.416.165.582a4.535,4.535,0,0,1,2.532,4.078v2.58a.553.553,0,0,1-.605.61" transform="translate(23.747 6.085)" fill="#28646e"/>
      <path id="Fill_36" data-name="Fill 36" d="M4.688,12.656a4.8,4.8,0,0,1-3.4-1.316A4.264,4.264,0,0,1,0,8.271V4.385A4.264,4.264,0,0,1,1.289,1.316,4.8,4.8,0,0,1,4.688,0a4.8,4.8,0,0,1,3.4,1.316A4.264,4.264,0,0,1,9.376,4.385V6.354A1.047,1.047,0,0,1,8.231,7.51H3.074a.262.262,0,0,0-.287.289v.472a1.856,1.856,0,0,0,1.9,1.89A2.07,2.07,0,0,0,6.574,8.949.485.485,0,0,1,7,8.7a.675.675,0,0,1,.36.116l1.224.814a.625.625,0,0,1,.157.787,3.778,3.778,0,0,1-1.25,1.5A4.865,4.865,0,0,1,4.688,12.656Zm0-10.161a1.856,1.856,0,0,0-1.9,1.89v.472a.262.262,0,0,0,.287.289H6.3a.262.262,0,0,0,.286-.289V4.385A1.856,1.856,0,0,0,4.688,2.495Z" transform="translate(38.11 7.704)" fill="#28646e"/>
      <path id="Fill_38" data-name="Fill 38" d="M2.182,1.1A1.091,1.091,0,1,0,1.091,2.2,1.1,1.1,0,0,0,2.182,1.1" transform="translate(63.492 18.691)" fill="#28646e"/>
      <path id="Fill_40" data-name="Fill 40" d="M9.267,2.724A4.561,4.561,0,0,0,4.84,0c-.11,0-.022.008-.129.013V0A4.407,4.407,0,0,0,2.636.5c-.087.04-.172.082-.256.127S2.177.656,2.068.5A.527.527,0,0,0,1.6.264H.576A.526.526,0,0,0,0,.844V11.75a.526.526,0,0,0,.576.58H2.184a.544.544,0,0,0,.615-.58V4.407a1.989,1.989,0,0,1,2.041-1.9A2.507,2.507,0,0,1,7.2,4.045a.572.572,0,0,0,.839.132L9.1,3.516a.61.61,0,0,0,.168-.791" transform="translate(52.261 7.828)" fill="#28646e"/>
    </g>
  </g>
</svg>
