<svg xmlns="http://www.w3.org/2000/svg" viewBox="0 0 40 40"><title>app-icon</title><rect width="40" height="40" style="fill:#28646e"/><path d="M18.73,15.6a.62.62,0,0,1-.45-.2.6.6,0,0,1,.06-.85,12.63,12.63,0,0,0,2.58-3,2.17,2.17,0,0,1,2.15-1.21.61.61,0,0,1-.16,1.2,1,1,0,0,0-.94.61,14.44,14.44,0,0,1-2.84,3.27.59.59,0,0,1-.4.15" style="fill:#fff;fill-rule:evenodd"/><path d="M8.6,25.8a.58.58,0,0,1-.46-.22.59.59,0,0,1,.08-.84,15.72,15.72,0,0,1,2.21-1.48.6.6,0,0,1,.81.27.59.59,0,0,1-.27.8,17.1,17.1,0,0,0-2,1.33.59.59,0,0,1-.39.14" style="fill:#fff;fill-rule:evenodd"/><path d="M23.74,20.09c.23.22.51.13.77-.11a22.93,22.93,0,0,0,4.2-5.63A.54.54,0,0,1,29.4,14c.33.14.33.72,0,1.34a21.1,21.1,0,0,1-4.13,5.77.46.46,0,0,0,0,.68c.2.18.51.17.81-.13a25,25,0,0,0,2.58-3,.57.57,0,0,1,.58-.31c.29.06.33.34.25.68a17.94,17.94,0,0,1-2.27,3.21c-1.64,1.82-3.28,2.82-6.42,4.46a5.59,5.59,0,0,0-2.42,2c-.46.76-.59,1-.64,1.11a.76.76,0,0,0,.34,1,.71.71,0,0,0,.32.07.73.73,0,0,0,.68-.46s0,0,.57-1a4.32,4.32,0,0,1,1.86-1.63,18.28,18.28,0,0,0,6.26-4.4,20.48,20.48,0,0,0,2.3-3.15c.88-1.48.42-2.75-.37-3a.1.1,0,0,1-.07-.15,7.66,7.66,0,0,0,1-2.34,1.5,1.5,0,0,0-1.11-1.93.1.1,0,0,1-.08-.12c.07-.25.14-.55.18-.75A1.73,1.73,0,0,0,28.5,9.9a1.76,1.76,0,0,0-1.42.3.15.15,0,0,1-.19,0,1.07,1.07,0,0,0-.78-.37A1.76,1.76,0,0,0,24.33,11,12.88,12.88,0,0,1,22,14.36a25.67,25.67,0,0,1-4.47,3.78c-.21.14-.5.11-.46-.17.05-.44.53-3.41.61-4.28a1.78,1.78,0,0,0-1.49-2.19c-.71-.09-1.78.11-2.36,1.72a35.29,35.29,0,0,0-1.67,5,15.22,15.22,0,0,0-.11,6.14.54.54,0,0,1-.08.41,24.47,24.47,0,0,0-1.53,2.67.76.76,0,0,0,.32,1,.64.64,0,0,0,.35.1.74.74,0,0,0,.67-.43c.23-.48.7-1.38.88-1.75a11.17,11.17,0,0,0,.61-1.35,2.09,2.09,0,0,0,0-1.19,12.13,12.13,0,0,1,.12-4.95,51.18,51.18,0,0,1,1.77-5.54c.18-.44.44-.58.69-.55s.74.14.6,1c-.25,1.62-.6,3.68-.71,4.37a1.4,1.4,0,0,0,.5,1.5,1.51,1.51,0,0,0,1.62-.27A31.36,31.36,0,0,0,23,15a12.17,12.17,0,0,0,2.4-3.65.68.68,0,0,1,.79-.37c.17,0,.36.27.22.73A15.69,15.69,0,0,1,22,17.84a.52.52,0,0,0-.11.76.5.5,0,0,0,.74,0A17.74,17.74,0,0,0,27,12.79a12.28,12.28,0,0,0,.53-1.35.59.59,0,0,1,.63-.47c.29.06.48.36.39.86a8.42,8.42,0,0,1-.66,1.82,25.47,25.47,0,0,1-4.15,5.72.48.48,0,0,0,0,.72" style="fill:#fff;fill-rule:evenodd"/><path d="M12.85,11.93c.09-.08.06-.18,0-.27-.13-.41-.87-2.14-1.06-2.49A.26.26,0,0,0,11.47,9a2.79,2.79,0,0,0-.72.52,2.74,2.74,0,0,0-.61.65.26.26,0,0,0,.1.36,26.66,26.66,0,0,0,2.34,1.38c.08,0,.18.09.27,0Z" style="fill:#fff;fill-rule:evenodd"/><path d="M12.22,13.07c0-.13-.13-.15-.21-.17-.43-.1-2.29-.37-2.69-.39a.26.26,0,0,0-.31.23,3.11,3.11,0,0,0,.07.88,2.7,2.7,0,0,0,.24.85.27.27,0,0,0,.37.11c.36-.15,2-1,2.38-1.28.08-.05.17-.11.15-.23Z" style="fill:#fff;fill-rule:evenodd"/><path d="M26.2,27.25c-.12,0-.16.11-.19.19-.15.41-.61,2.24-.67,2.63a.26.26,0,0,0,.19.33,2.86,2.86,0,0,0,.89,0,2.68,2.68,0,0,0,.87-.15c.13-.05.2-.16.14-.35-.11-.38-.81-2.13-1-2.51,0-.08-.09-.18-.22-.17Z" style="fill:#fff;fill-rule:evenodd"/><path d="M27.25,26.4a.26.26,0,0,0,.07.27c.27.33,1.59,1.68,1.9,1.93a.25.25,0,0,0,.38,0,2.57,2.57,0,0,0,.48-.74,2.71,2.71,0,0,0,.33-.82c0-.14,0-.25-.23-.31-.38-.1-2.24-.41-2.67-.43-.09,0-.2,0-.26.09Z" style="fill:#fff;fill-rule:evenodd"/></svg>