<?xml version="1.0" encoding="UTF-8"?>
<svg version="1.1" viewBox="0 0 88 88" xmlns="http://www.w3.org/2000/svg">
<path d="m37.2 44.6-12.8 8.6v-30.3c0-2.1 1.6-3.8 3.5-3.8h18.5c2 0 3.5 1.7 3.5 3.8v30.4l-12.7-8.7zm12.7 16.5v1.4h1.4v-15.9h2.9v-1.4h-1.9v-22.3c0-3.4-2.7-6.2-5.9-6.2h-18.5c-3.3 0-5.9 2.8-5.9 6.2v34.9l15.2-10.2 12.8 8.6v3.5h-1.4v1.4h1.3zm-4.3 2.9h1.4v-1.4h-1.4v1.4zm1.5 2.9h1.4v-2.9h-1.4v2.9zm8.6-7.3v-5.8h2.9v-1.4h-2.9v-5.8h-1.4v13h1.4zm4.4 0v-4.3h2.9v-1.4h-4.3v5.8h1.4zm-11.6 0v-1.4h-4.3v4.3h1.4v-2.9h2.9zm17.3-1.4h1.4v-1.4h-1.4v1.4zm-2.9-2.9v5.8h1.4v-4.3h1.4v-1.4h-2.8zm4.4 13h1.4v-10.1h-1.4v10.1zm-17.4 4.3h1.4v-2.9h-1.4v2.9zm15.9 0h1.4v-4.3h-1.4v4.3zm-17.3-2.9h1.4v-2.9h-1.4v2.9zm15.9 5.8h-11.6v-2.9h-1.4v4.4h14.4v-4.3h-1.4v2.8zm-17.4 4.6c0 0.8-0.7 1.5-1.5 1.5s-1.5-0.6-1.5-1.5 0.7-1.5 1.5-1.5 1.5 0.7 1.5 1.5m29.3-4.6c0 0.8-0.7 1.5-1.5 1.5s-1.5-0.7-1.5-1.5 0.7-1.5 1.5-1.5c0.9 0 1.5 0.7 1.5 1.5m-19.1 11.5c0 0.5-0.3 0.8-0.8 0.9-0.5 0-0.8-0.3-0.9-0.8v-0.1c0-0.5 0.4-0.8 0.9-0.8 0.4 0 0.7 0.3 0.8 0.8m17.6-18.5c0 0.5-0.3 0.8-0.8 0.9-0.5 0-0.8-0.3-0.9-0.8v-0.1c0-0.5 0.4-0.8 0.9-0.8s0.8 0.4 0.8 0.8m-45.3-59.3c-0.4 0.1-0.5-0.2-0.7-0.4-0.7-1-3.4-5.7-3.8-6.7-0.2-0.5-0.1-0.8 0.3-1.1 0.5-0.3 1.2-0.5 2.5-0.7 1.2-0.3 2-0.4 2.6-0.3 0.4 0.1 0.6 0.3 0.6 0.9 0 1.1-0.7 6.4-1 7.7-0.1 0.2-0.2 0.5-0.5 0.6zm13.5 0c0.4 0.1 0.5-0.2 0.7-0.4 0.7-1 3.4-5.7 3.8-6.7 0.2-0.5 0.1-0.8-0.3-1.1-0.5-0.3-1.2-0.5-2.5-0.7s-2-0.3-2.6-0.2c-0.4 0.1-0.7 0.3-0.7 0.9 0 1.1 0.8 6.4 1.1 7.7 0.1 0.1 0.2 0.4 0.5 0.5zm-23.4 5.6c0.2-0.3 0-0.6-0.1-0.8-0.7-1-4-5.3-4.8-6.1-0.4-0.4-0.7-0.4-1.1-0.2-0.4 0.3-0.9 0.9-1.5 1.9s-1 1.7-1.1 2.2c-0.1 0.4 0 0.7 0.6 0.9 1 0.4 6.1 1.9 7.3 2.1 0.2 0.2 0.5 0.3 0.7 0zm33.3-0.3c-0.2-0.3 0-0.6 0.1-0.8 0.7-1 4-5.3 4.8-6.1 0.4-0.4 0.7-0.4 1.1-0.2 0.4 0.3 0.9 0.9 1.5 1.9s1 1.7 1.1 2.2c0.1 0.4 0 0.7-0.6 0.9-1 0.4-6.1 1.9-7.3 2.1-0.2 0.2-0.5 0.3-0.7 0z" />
</svg>
