<svg xmlns="http://www.w3.org/2000/svg" viewBox="0 0 68 64">
  <path d="M56.71.1h6.1v8.8h-6.1z" fill="none"/>
  <path fill="none" d="M56.71.1h6.09v8.8h-6.09z"/>
  <path d="M57.08 8.86c.32.13.54-.09.71-.26.88-.82 4.21-4.74 4.83-5.6a.7.7 0 000-1l-.07-.06A8 8 0 0060.27.8a8.2 8.2 0 00-2.42-.7.72.72 0 00-.79.63V.8c-.17 1.07-.4 6.2-.33 7.39 0 .24 0 .54.35.67m10.71 1.59a7.63 7.63 0 00-.63-2.38.7.7 0 00-.93-.33h-.08c-1 .42-5.58 2.92-6.58 3.6-.2.13-.46.3-.4.64s.36.41.59.46c1.15.29 6.25 1 7.34 1.05A.73.73 0 0068 13a7.88 7.88 0 00-.17-2.47M10.2 8.6c.17.17.38.39.71.26.33-.13.34-.43.35-.67.08-1.19-.15-6.32-.32-7.39a.7.7 0 00-.71-.7h-.08a8.11 8.11 0 00-2.42.7 8.52 8.52 0 00-2.26 1.12.7.7 0 00-.15 1v.07c.62.9 4 4.81 4.83 5.63m-1.32 3.43c.05-.34-.2-.51-.4-.65-1-.68-5.57-3.18-6.58-3.6a.71.71 0 00-.97.2v.07a7.91 7.91 0 00-.63 2.38A7.91 7.91 0 000 12.92a.73.73 0 00.81.64H.9a73.61 73.61 0 007.34-1c.23-.06.53-.12.59-.46" fill="#50e3c2"/>
  <path d="M61.17 39.73a3.4 3.4 0 00-4.79-.39l-.18.16a18 18 0 01-1.85-2 10.41 10.41 0 01-1.13-2.86c1.07-1.34 1.94-2.57 2.56-3.5a5.43 5.43 0 001-3.8 4.18 4.18 0 00-1.72-2.86 3.76 3.76 0 00-.86-.47 6.77 6.77 0 00.57-1.39 4.4 4.4 0 00-2.13-4.94 4.19 4.19 0 00-1.07-.4A4.7 4.7 0 0050.1 12a4.27 4.27 0 00-2.88-.9A4.43 4.43 0 0045.38 8a5 5 0 00-6.92 1.07 1 1 0 00-.08.11l-.38.39v-.06a26.08 26.08 0 00-3.7-2.22 4.37 4.37 0 00-5.42 1.47l-.06-.07c-2.54-3-5.65-2.91-7.47-1.52a4.25 4.25 0 00-1.66 4.05 4.48 4.48 0 00-3.83 5 4.75 4.75 0 00.14.63 4.25 4.25 0 00-1.39.48 4.45 4.45 0 00-2 5.16 7.07 7.07 0 00.61 1.38 4 4 0 00-1.78 1.3c-1 1.33-1.54 3.64.24 6.14.86 1.2 1.69 2.27 2.54 3.27l.11.12a10.26 10.26 0 01-1.12 2.82 15.54 15.54 0 01-1.62 1.72 3.39 3.39 0 00-4.69.46L3.17 44a3.4 3.4 0 00.39 4.79l16.73 14.3a3.39 3.39 0 002.2.81h.28a3.38 3.38 0 002.31-1.19l3.66-4.3a3.4 3.4 0 00-.17-4.59 24.84 24.84 0 012.21-2 19.53 19.53 0 013-1.89 19.14 19.14 0 013 1.89 28.26 28.26 0 012.48 2.29 3.41 3.41 0 00.07 4.32l3.66 4.3a3.38 3.38 0 002.31 1.19h.28a3.39 3.39 0 002.2-.81l16.66-14.28a3.4 3.4 0 00.39-4.83z" fill="#28646e"/>
  <path d="M29 49.47a28.79 28.79 0 00-2.64 2.42L13.77 41.18a12.14 12.14 0 001.88-2.11A12.54 12.54 0 0017 35.91h.09a4.69 4.69 0 003-1.17 4.43 4.43 0 001.51-2.66 4.48 4.48 0 003-1.24 5.3 5.3 0 001.64-3 4 4 0 00.84.09 4.69 4.69 0 003.22-1.32 4.46 4.46 0 001.33-3.85 4.82 4.82 0 002.88-1.46 4.46 4.46 0 001-4.84A53.05 53.05 0 0040.68 11a2.07 2.07 0 012.83-.72l.12.07a1.76 1.76 0 01.37 2.44l-.13.15A24.52 24.52 0 0141.28 16c-.44.46-.93 1-1.51 1.62a1.47 1.47 0 002.17 2c.55-.62 1-1.12 1.46-1.57a27.33 27.33 0 002.7-3.18l.18-.16a1.43 1.43 0 012-.33c.58.44 1 1.43.14 2.75a15.65 15.65 0 01-1.22 1.68l-.08.08a1.08 1.08 0 00-.18.24c-.91 1.1-2 2.27-3 3.35a1.49 1.49 0 000 2.08 1.47 1.47 0 002.08 0c1.11-1.18 2.31-2.47 3.31-3.71a1.53 1.53 0 011.85-.48A1.44 1.44 0 0152 22c-.33 1.27-2.18 3.19-3.66 4.73l-.73.75a1.47 1.47 0 002.08 2.08v-.05l.71-.74c.39-.4.78-.8 1.16-1.21a1.75 1.75 0 00.23-.24l.08-.1.07-.07a1.05 1.05 0 011.45-.18c.54.39.86 1.31 0 2.63A52.34 52.34 0 0149 35.19c-4.07 4.5-8.21 8.09-10.81 9.36-1 .47-1.85.87-2.69 1.26a30.67 30.67 0 00-6.5 3.66m9.52 0a19.13 19.13 0 00-1.56-1.11c.75-.35 1.59-.73 2.49-1.18 2.92-1.43 7.23-5.11 11.55-9.86a11.36 11.36 0 00.86 1.75A13.08 13.08 0 0054 41.41L41.38 52.13a29 29 0 00-2.88-2.66m-7.43-38.78A1.55 1.55 0 0133 10a21.42 21.42 0 013 1.82c-.75.77-1.64 1.68-2.47 2.47a15.65 15.65 0 01-2.25-1.36 1.68 1.68 0 01-.27-2.21m-8-1.18c.77-.6 2.14-.49 3.45 1.07.4.48.83 1 1.31 1.5a4.42 4.42 0 001.68 3.12 24.23 24.23 0 002.85 1.72 1.72 1.72 0 010 2.36 2.07 2.07 0 01-2.93 0A58.23 58.23 0 0123 12c-.82-1.18-.48-2.09.07-2.5m-3.72 4.9a1.57 1.57 0 012.16.48.35.35 0 000 .08 61.27 61.27 0 006 6.53l.59.58c1.16 1.29.41 2.21.15 2.47a1.59 1.59 0 01-2.25.06v-.06A68.88 68.88 0 0119.16 17c-.78-1.24-.41-2.14.19-2.57M16 19.93c.67-.37 1.46-.38 2.38.75s3.43 3.86 4.48 5.06c.84 1 1.2 2.24.35 2.89a1.92 1.92 0 01-2.72-.23 1 1 0 01-.12-.16c-2.11-2.19-4.65-5.31-5-6.53a1.49 1.49 0 01.63-1.78m-2 9.7c-.71-1-.85-2-.33-2.6a1.15 1.15 0 011.62-.03c1 1.17 2.1 2.47 2.94 3.34.8 1.06.42 1.77-.06 2.18s-1.4.65-1.79.2c-.8-.93-1.57-1.93-2.38-3.07" fill="#fff"/>
  <path d="M26.5 56.5l-3.66 4.3a.44.44 0 01-.64.05L5.46 46.59a.46.46 0 010-.65l3.66-4.3a.44.44 0 01.31-.17.48.48 0 01.3.11l16.72 14.27a.45.45 0 01.05.65" fill="#50e3c2"/>
  <path d="M62.54 46.59L45.8 60.85a.44.44 0 01-.64-.05l-3.66-4.3a.45.45 0 010-.65l16.79-14.27a.46.46 0 01.3-.11.46.46 0 01.32.17l3.66 4.3a.46.46 0 01-.06.65" fill="#d7ecec"/>
</svg>
