<svg xmlns="http://www.w3.org/2000/svg" viewBox="0 0 80 68">
  <path fill="none" stroke="#28646e" stroke-linecap="round" stroke-miterlimit="10" stroke-width="3" d="M34.98 60.96l9.52-5.59"/>
  <path d="M34.57 47.94c0-4.11-1-4.32-2.79-6.63s-5.65-5.14-5.65-11.56a13.6 13.6 0 0113.33-13.87 4.86 4.86 0 01.54 0A13.6 13.6 0 0153.87 29.2v.55c0 6.42-3.85 9.25-5.65 11.56s-2.79 2.52-2.79 6.63" fill="#fff" stroke="#28646e" stroke-miterlimit="10" stroke-width="3"/>
  <path d="M32.93 9.67c-.37.07-.56-.2-.71-.42-.75-1.06-3.51-5.92-4-7a.76.76 0 01.24-1.06h.07a9 9 0 012.6-.76 9.08 9.08 0 012.7-.26.78.78 0 01.71.83v.08c0 1.18-.8 6.73-1.11 8-.06.26-.13.58-.5.65zM47.07 9.67c.37.07.56-.2.71-.42.75-1.06 3.51-5.92 4-7a.76.76 0 00-.24-1.06h-.07a9 9 0 00-2.6-.76 9.08 9.08 0 00-2.7-.26.77.77 0 00-.71.83.25.25 0 000 .08c0 1.18.8 6.73 1.1 8 .06.26.13.58.5.65zM22.65 15.53c.19-.3 0-.58-.14-.8-.71-1.09-4.19-5.5-5-6.35a.74.74 0 00-1-.21l-.06.05a7.49 7.49 0 00-1.56 2 7.9 7.9 0 00-1.14 2.31.81.81 0 00.57 1c1.08.44 6.36 2 7.6 2.2.25 0 .57.11.76-.19zM57.36 15.18c-.19-.3 0-.58.14-.8.7-1.09 4.19-5.5 5-6.35a.74.74 0 011-.21h.06a7.9 7.9 0 011.57 2 8 8 0 011.13 2.31.8.8 0 01-.57 1c-1.08.44-6.36 2-7.6 2.2-.25 0-.57.11-.76-.19z" fill="#50e3c2"/>
  <circle cx="40" cy="33" r="4" fill="#50e3c2"/>
  <path fill="none" stroke="#28646e" stroke-linecap="round" stroke-miterlimit="10" stroke-width="3" d="M34.98 66.41l9.52-5.6"/>
  <path fill="none" stroke="#50e3c2" stroke-miterlimit="10" stroke-width="2" d="M40 33.08v16.18"/>
  <path d="M47.31 56.16H32.69a1 1 0 01-1-.95v-5a1 1 0 011-1h14.62a1 1 0 011 1v5a1 1 0 01-1 1h0" fill="#d7ecec" stroke="#28646e" stroke-miterlimit="10" stroke-width="3"/>
</svg>
