<svg xmlns="http://www.w3.org/2000/svg" xmlns:xlink="http://www.w3.org/1999/xlink" viewBox="0 0 100 100"><defs><style>.a{fill:url(#a);}.b{fill:#28646e;fill-rule:evenodd;}</style><linearGradient id="a" y1="50" x2="100" y2="50" gradientUnits="userSpaceOnUse"><stop offset="0" stop-color="#d1efef"/><stop offset="1" stop-color="#efe6b3"/></linearGradient></defs><circle class="a" cx="50" cy="50" r="50"/><path class="b" d="M46.81,41.34A1.33,1.33,0,0,1,45.92,39a28.45,28.45,0,0,0,5.72-6.55,4.77,4.77,0,0,1,4.74-2.67,1.33,1.33,0,0,1-.3,2.65H56c-1.08-.15-1.81.9-2.08,1.35A30.46,30.46,0,0,1,47.68,41a1.31,1.31,0,0,1-.87.33M24.41,63.86a1.33,1.33,0,0,1-.85-2.35,38,38,0,0,1,4.89-3.27,1.33,1.33,0,1,1,1.19,2.38,36.06,36.06,0,0,0-4.38,2.93,1.33,1.33,0,0,1-.85.31m33.45-12.6c.53.49,1.14.28,1.7-.26a50.35,50.35,0,0,0,9.3-12.42,1.17,1.17,0,0,1,1.51-.74c.74.3.73,1.57.06,3A47.1,47.1,0,0,1,61.3,53.53a1,1,0,0,0,0,1.51c.43.39,1.13.36,1.78-.31a53,53,0,0,0,5.71-6.64,1.25,1.25,0,0,1,1.28-.67c.64.13.74.74.54,1.49-.31,1.19-3.68,5.6-5,7.08-3.62,4-7.23,6.24-14.19,9.85-2.43,1.26-4.25,2.47-5.35,4.32-1,1.69-1.3,2.24-1.4,2.46a1.68,1.68,0,0,0,.74,2.24,1.63,1.63,0,0,0,2.18-.76.36.36,0,0,0,0-.09s0,0,1.26-2.18A9.45,9.45,0,0,1,53,68.22a40.1,40.1,0,0,0,13.85-9.71,45.92,45.92,0,0,0,5.08-6.95c1.94-3.27.92-6.07-.83-6.55a.23.23,0,0,1-.17-.27l0-.06a17.37,17.37,0,0,0,2.23-5.18c.35-1.69-.13-3.75-2.46-4.25a.22.22,0,0,1-.17-.26h0c.14-.54.29-1.22.39-1.66a3.79,3.79,0,0,0-2.58-4.55,3.92,3.92,0,0,0-3.14.65.3.3,0,0,1-.4-.05,2.43,2.43,0,0,0-1.74-.8c-1.46,0-2.89.42-3.94,2.65A27.9,27.9,0,0,1,54,38.6,57.13,57.13,0,0,1,44.14,47c-.45.3-1.1.22-1-.39.12-1,1.17-7.52,1.35-9.45.29-3.14-1.4-4.57-3.29-4.82-1.56-.21-3.93.24-5.22,3.78a78.69,78.69,0,0,0-3.69,11A33.59,33.59,0,0,0,32,60.62a1.35,1.35,0,0,1-.17.9,51.7,51.7,0,0,0-3.39,5.89,1.67,1.67,0,0,0,.69,2.13,1.64,1.64,0,0,0,2.22-.65l.05-.09c.5-1.06,1.53-3,1.94-3.87a27.82,27.82,0,0,0,1.35-3,4.52,4.52,0,0,0,0-2.61A26.92,26.92,0,0,1,35,48.4a109.79,109.79,0,0,1,3.92-12.21c.39-1,1-1.29,1.52-1.24s1.64.33,1.33,2.32c-.55,3.58-1.33,8.13-1.59,9.66-.12.75-.27,2.5,1.12,3.31,1.08.62,2.27.27,3.59-.6a68.12,68.12,0,0,0,11.27-9.59A26.5,26.5,0,0,0,61.44,32a1.51,1.51,0,0,1,1.76-.82c.36.1.8.59.49,1.61C63,35.27,59.87,41,54,46.28A1.16,1.16,0,0,0,53.72,48a1.11,1.11,0,0,0,1.63,0,39.15,39.15,0,0,0,9.72-12.85,25.15,25.15,0,0,0,1.17-3,1.33,1.33,0,0,1,1.39-1.05c.65.14,1.08.8.87,1.89a19,19,0,0,1-1.45,4c-1.7,3.61-5.31,8.45-9.19,12.61a1.08,1.08,0,0,0,0,1.6m-24.06-18c.21-.18.13-.41.07-.6-.29-.91-1.92-4.73-2.35-5.5a.57.57,0,0,0-.78-.32A6,6,0,0,0,29.15,28a6,6,0,0,0-1.33,1.42.58.58,0,0,0,.22.82c.71.52,4.29,2.63,5.16,3,.17.08.39.19.6,0ZM26,34.54a.58.58,0,0,0-.69.49A6.53,6.53,0,0,0,25.45,37,6.15,6.15,0,0,0,26,38.86a.57.57,0,0,0,.81.23c.82-.33,4.48-2.29,5.28-2.82.16-.1.37-.23.32-.51h0M63.31,67.05c-.28,0-.35.26-.42.44-.33.9-1.35,4.92-1.48,5.79a.58.58,0,0,0,.42.74,6.25,6.25,0,0,0,2,0,5.92,5.92,0,0,0,1.93-.32A.57.57,0,0,0,66,73c-.24-.84-1.8-4.69-2.25-5.54-.08-.17-.19-.39-.47-.38Zm2.32-1.86c-.12.24,0,.43.16.58.6.75,3.51,3.71,4.18,4.28a.58.58,0,0,0,.85,0,6.15,6.15,0,0,0,1.07-1.64,6.62,6.62,0,0,0,.73-1.81.59.59,0,0,0-.51-.68c-.85-.23-5-.9-5.91-1-.19,0-.44,0-.56.2ZM50,3.29A46.71,46.71,0,1,0,96.71,50,46.71,46.71,0,0,0,50,3.29Zm0,89.48A42.77,42.77,0,1,1,92.77,50,42.76,42.76,0,0,1,50,92.77Z"/></svg>