<svg xmlns="http://www.w3.org/2000/svg" viewBox="0 0 20 20">
  <path
    d="M6.82,13.18l-3.54,3.54c-1.72-1.72-2.78-4.09-2.78-6.72C.5,4.75,4.75,.5,10,.5c2.62,0,5,1.06,6.72,2.78l-3.54,3.54c-.81-.81-1.94-1.32-3.18-1.32-2.49,0-4.5,2.01-4.5,4.5,0,1.24,.5,2.37,1.32,3.18Zm6.36-6.36c.81,.81,1.32,1.94,1.32,3.18,0,2.49-2.01,4.5-4.5,4.5-1.24,0-2.37-.5-3.18-1.32l-3.54,3.54c1.72,1.72,4.09,2.78,6.72,2.78,5.25,0,9.5-4.25,9.5-9.5,0-2.62-1.06-5-2.78-6.72l-3.54,3.54Z"
    fill="#ebebeb"
    stroke="#9b9b9b"
    stroke-miterlimit="10"
  />
</svg>
