<svg xmlns="http://www.w3.org/2000/svg" width="58" height="48" viewBox="0 0 58 48">
  <path d="M42.945,0c-.193,0-.384,0-.573.008A10.025,10.025,0,0,0,34.329,4.87L29.344,13a.851.851,0,0,0,.113,1.036l5.913,6.154a.85.85,0,0,1,.2.834L31.711,33.949a.861.861,0,0,1-1.685-.274l.412-11.354a.852.852,0,0,0-.38-.74L23.37,17.109a.855.855,0,0,1-.377-.784L24.009,4.666a1.964,1.964,0,0,0-.8-1.759A13.682,13.682,0,0,0,15.055,0,15.552,15.552,0,0,0,.029,16.595c.522,9.335,7.6,15.248,10.67,18.086C15.491,39.114,29,48,29,48s13.509-8.886,18.3-13.319c3.066-2.838,10.148-8.751,10.67-18.086A15.552,15.552,0,0,0,42.945,0" fill="#e35050"/>
</svg>
