<svg width="1024" height="190" viewBox="0 0 1024 190" fill="none"
  xmlns="http://www.w3.org/2000/svg">
  <path d="M-17 113C132.333 113 390.8 113 466 113C660 113 694 175 874 175C1018 175 1077.33 175 1100 175" stroke="#AAF1E7" stroke-width="2"/>
  <circle cx="791" cy="95" r="93" fill="#F7F7F7" stroke="#AAF1E7" stroke-width="4"/>
  <path d="M-115 148C-30 148 474.2 148 555 148C852 148 783 51 1009 51C1159.4 51 1255 51 1284 51" stroke="#AAF1E7" stroke-width="2"/>
  <path d="M-24 58C120.875 58 368.817 58 477.716 58C755.799 58 808.305 148 1047.49 148H1100" stroke="#AAF1E7" stroke-width="2"/>
</svg>
