<svg width="342" height="106" viewBox="0 0 342 106" fill="none"
  xmlns="http://www.w3.org/2000/svg">
  <path d="M37.849 104.856C32.137 104.856 26.6516 103.632 21.393 101.184C16.225 98.6453 11.7823 95.2 8.06496 90.848C4.34763 86.4053 1.85429 81.464 0.584961 76.024H4.80096C6.97696 83.368 11.1476 89.3973 17.313 94.112C23.4783 98.736 30.3236 101.048 37.849 101.048C44.105 101.048 49.8623 99.5067 55.121 96.424C60.3796 93.2507 64.5503 89.0347 67.633 83.776C70.7156 78.4267 72.257 72.624 72.257 66.368C72.257 60.112 70.8063 54.3093 67.905 48.96C65.0943 43.6107 61.241 39.3947 56.345 36.312C51.5396 33.1387 46.281 31.552 40.569 31.552C35.0383 31.552 29.8703 32.912 25.065 35.632C20.2596 38.352 15.9983 42.1147 12.281 46.92H7.52096L12.281 1.496H65.321V5.44H15.953L12.281 40.392C15.817 36.312 20.033 33.184 24.929 31.008C29.825 28.832 35.0383 27.744 40.569 27.744C47.1876 27.744 53.217 29.512 58.657 33.048C64.1876 36.4933 68.5396 41.1627 71.713 47.056C74.977 52.9493 76.609 59.3867 76.609 66.368C76.609 73.3493 74.841 79.7867 71.305 85.68C67.8596 91.5733 63.145 96.2427 57.161 99.688C51.2676 103.133 44.8303 104.856 37.849 104.856Z" fill="#28646E"/>
  <path d="M112.433 105.264C102.732 105.264 93.8466 102.907 85.7773 98.192C77.7079 93.3867 71.3159 86.9493 66.6013 78.88C61.9773 70.72 59.6653 61.88 59.6653 52.36C59.6653 43.112 62.0226 34.4533 66.7373 26.384C71.5426 18.3147 77.9799 11.9227 86.0493 7.208C94.2093 2.40267 103.004 0 112.433 0C121.953 0 130.748 2.40267 138.817 7.208C146.887 11.9227 153.279 18.3147 157.993 26.384C162.799 34.4533 165.201 43.248 165.201 52.768C165.201 62.1973 162.844 70.9467 158.129 79.016C153.415 86.9947 147.023 93.3867 138.953 98.192C130.884 102.907 122.044 105.264 112.433 105.264ZM112.433 101.32C121.137 101.32 129.161 99.144 136.505 94.792C143.94 90.3493 149.833 84.4107 154.185 76.976C158.537 69.5413 160.713 61.4267 160.713 52.632C160.713 43.928 158.537 35.8587 154.185 28.424C149.833 20.8987 143.94 14.96 136.505 10.608C129.161 6.16533 121.137 3.944 112.433 3.944C103.729 3.944 95.6599 6.16533 88.2253 10.608C80.8813 14.96 75.0333 20.8987 70.6813 28.424C66.3293 35.8587 64.1533 43.928 64.1533 52.632C64.1533 61.4267 66.3293 69.5413 70.6813 76.976C75.0333 84.4107 80.8813 90.3493 88.2253 94.792C95.6599 99.144 103.729 101.32 112.433 101.32Z" fill="#28646E"/>
  <path d="M200.35 105.264C190.648 105.264 181.763 102.907 173.694 98.192C165.625 93.3867 159.232 86.9493 154.518 78.88C149.894 70.72 147.582 61.88 147.582 52.36C147.582 43.112 149.939 34.4533 154.654 26.384C159.459 18.3147 165.896 11.9227 173.966 7.208C182.126 2.40267 190.921 0 200.35 0C209.87 0 218.665 2.40267 226.734 7.208C234.803 11.9227 241.195 18.3147 245.91 26.384C250.715 34.4533 253.118 43.248 253.118 52.768C253.118 62.1973 250.761 70.9467 246.046 79.016C241.331 86.9947 234.939 93.3867 226.87 98.192C218.801 102.907 209.961 105.264 200.35 105.264ZM200.35 101.32C209.054 101.32 217.078 99.144 224.422 94.792C231.857 90.3493 237.75 84.4107 242.102 76.976C246.454 69.5413 248.63 61.4267 248.63 52.632C248.63 43.928 246.454 35.8587 242.102 28.424C237.75 20.8987 231.857 14.96 224.422 10.608C217.078 6.16533 209.054 3.944 200.35 3.944C191.646 3.944 183.577 6.16533 176.142 10.608C168.798 14.96 162.95 20.8987 158.598 28.424C154.246 35.8587 152.07 43.928 152.07 52.632C152.07 61.4267 154.246 69.5413 158.598 76.976C162.95 84.4107 168.798 90.3493 176.142 94.792C183.577 99.144 191.646 101.32 200.35 101.32Z" fill="#28646E"/>
  <path d="M288.266 105.264C278.565 105.264 269.68 102.907 261.61 98.192C253.541 93.3867 247.149 86.9493 242.434 78.88C237.81 70.72 235.498 61.88 235.498 52.36C235.498 43.112 237.856 34.4533 242.57 26.384C247.376 18.3147 253.813 11.9227 261.882 7.208C270.042 2.40267 278.837 0 288.266 0C297.786 0 306.581 2.40267 314.65 7.208C322.72 11.9227 329.112 18.3147 333.826 26.384C338.632 34.4533 341.034 43.248 341.034 52.768C341.034 62.1973 338.677 70.9467 333.962 79.016C329.248 86.9947 322.856 93.3867 314.786 98.192C306.717 102.907 297.877 105.264 288.266 105.264ZM288.266 101.32C296.97 101.32 304.994 99.144 312.338 94.792C319.773 90.3493 325.666 84.4107 330.018 76.976C334.37 69.5413 336.546 61.4267 336.546 52.632C336.546 43.928 334.37 35.8587 330.018 28.424C325.666 20.8987 319.773 14.96 312.338 10.608C304.994 6.16533 296.97 3.944 288.266 3.944C279.562 3.944 271.493 6.16533 264.058 10.608C256.714 14.96 250.866 20.8987 246.514 28.424C242.162 35.8587 239.986 43.928 239.986 52.632C239.986 61.4267 242.162 69.5413 246.514 76.976C250.866 84.4107 256.714 90.3493 264.058 94.792C271.493 99.144 279.562 101.32 288.266 101.32Z" fill="#28646E"/>
</svg>
