<svg viewBox="0 0 20 20" fill="none" xmlns="http://www.w3.org/2000/svg">
<path fill-rule="evenodd" clip-rule="evenodd" d="M1.89998 5.44445C1.89998 5.09391 2.15575 4.90001 2.3631 4.90001H17.6369C17.8442 4.90001 18.1 5.09391 18.1 5.44445V6.5H1.89998V5.44445ZM1.89998 9.5V15.5556C1.89998 15.9061 2.15575 16.1 2.3631 16.1H17.6369C17.8442 16.1 18.1 15.9061 18.1 15.5556V9.5H1.89998ZM2.3631 3.10001C1.06478 3.10001 0.0999756 4.1995 0.0999756 5.44445V15.5556C0.0999756 16.8005 1.06478 17.9 2.3631 17.9H17.6369C18.9352 17.9 19.9 16.8005 19.9 15.5556V5.44445C19.9 4.1995 18.9352 3.10001 17.6369 3.10001H2.3631ZM3 13C3 12.4477 3.44772 12 4 12H8C8.55228 12 9 12.4477 9 13C9 13.5523 8.55228 14 8 14H4C3.44772 14 3 13.5523 3 13Z" fill="currentColor"/>
</svg>
