<?xml version="1.0" encoding="utf-8"?>
<!-- Generator: Adobe Illustrator 23.0.1, SVG Export Plug-In . SVG Version: 6.00 Build 0)  -->
<svg version="1.1" id="Layer_1" xmlns="http://www.w3.org/2000/svg" xmlns:xlink="http://www.w3.org/1999/xlink" x="0px" y="0px"
	 viewBox="0 0 24 24" style="enable-background:new 0 0 24 24;" xml:space="preserve">
<style type="text/css">
	.st0{fill-rule:evenodd;clip-rule:evenodd;}
</style>
<path class="st0" d="M9.2,8.5L4.9,9.1C4.3,9.2,3.9,9.7,4,10.2c0,0.2,0.1,0.4,0.3,0.6l3.1,3l-0.7,4.3c-0.1,0.6,0.3,1.1,0.8,1.2
	c0.2,0,0.5,0,0.6-0.1l3.8-2l3.8,2c0.5,0.3,1.1,0.1,1.4-0.4c0.1-0.2,0.1-0.4,0.1-0.6l-0.7-4.3l3.1-3c0.4-0.4,0.4-1,0-1.4
	c-0.2-0.2-0.4-0.3-0.6-0.3l-4.3-0.6l-1.9-3.9c-0.2-0.5-0.9-0.7-1.4-0.5c-0.2,0.1-0.4,0.3-0.5,0.5L9.2,8.5z M12,6L13.5,9l0.4,0.8
	l0.8,0.1l3.4,0.5l-2.4,2.4L15,13.4l0.1,0.8l0.6,3.4l-3-1.6L12,15.6L11.3,16l-3,1.6l0.6-3.4L9,13.4l-0.6-0.6l-2.4-2.4l3.4-0.5
	l0.8-0.1L10.5,9C10.5,9,12,6,12,6z"/>
</svg>
