<svg xmlns="http://www.w3.org/2000/svg" width="20" height="20" viewBox="0 0 20 20"><path d="M15.492 16.974l-.573-.653.978-2.608a.554.554 0 0 0-.318-.712l-1.882-.734c-.157-.061-.385-.62-.471-1.14.154-.68.69-2.251 1.653-2.691.637-.29 1.34-.3 2.021-.308.594-.008 1.201-.025 1.723-.244.168.68.266 1.385.266 2.116 0 2.828-1.332 5.344-3.397 6.974M1.112 10c0-.312.016-.62.047-.922.198.508.434 1.02.748 1.539.672 1.105 1.895 1.324 2.256 1.365a.71.71 0 0 1 .421.605l.052.857c.033.544.304 1.04.743 1.362l2.11 1.537.123.098c.195.157.56.453 1.035.453.243 0 .514-.078.805-.293.414-.303.511-.667.524-.917.028-.654-.506-1.158-.544-1.182-.108-.134-.039-.47-.006-.523.172-.075.468-.281.525-.846.059-.612-.188-1.476-.831-1.91-.47-.236-1.749-.884-2.098-1.099-.528-.32-.812-.55-.84-.655.006-.063.082-.263.67-.796l1.417-1.29a1.82 1.82 0 0 0 .577-1.603L8.54 3.651a1.81 1.81 0 0 0-1.233-1.473l-.912-.297a8.84 8.84 0 0 1 4.56-.717c.012.013.017.03.03.043.418.386.232 2.329-.095 3.4-.162.533-.044 1.107.309 1.499.288.317.699.486 1.164.486.132 0 .267-.013.405-.04 1.243-.245 2.749-1.995 3.452-2.89a8.888 8.888 0 0 1 2.065 3.146c-.318.184-.82.2-1.4.209-.76.01-1.618.02-2.468.407-1.728.79-2.28 3.464-2.301 3.578a.552.552 0 0 0-.007.181c.039.293.278 1.765 1.183 2.118l1.371.536-.902 2.405a.557.557 0 0 0 .102.562l.707.805A8.824 8.824 0 0 1 10 18.889c-4.901 0-8.889-3.988-8.889-8.889m3.942-7.381c.591.184 1.35.432 1.907.614a.704.704 0 0 1 .481.574l.303 2.13a.707.707 0 0 1-.224.624L6.083 7.87c-.38.344-1.172 1.064-.984 1.831.158.652.874 1.087 1.417 1.417.364.224 1.927 1.01 2.04 1.06.214.145.32.635.29.855-.245.163-.432.447-.524.808a1.574 1.574 0 0 0 .304 1.421c.133.121.248.314.167.445-.15.11-.167.124-.48-.13l-2.279-1.67a.707.707 0 0 1-.288-.53l-.053-.86a1.816 1.816 0 0 0-1.217-1.605.544.544 0 0 0-.153-.03c-.01 0-.999-.072-1.465-.84-.267-.443-1.064-1.766-1.1-3.358A8.935 8.935 0 0 1 5.054 2.62m6.901 2.311c.008-.026.604-2.08.298-3.519a8.835 8.835 0 0 1 3.125 1.528c-.81 1.037-2.065 2.373-2.824 2.523-.137.026-.39.052-.529-.102-.092-.102-.12-.267-.07-.43m4.593-2.471c-.024-.026-.041-.056-.07-.077-.008-.005-.018-.006-.027-.012A9.949 9.949 0 0 0 10 0C5.783 0 2.177 2.626.708 6.324a.646.646 0 0 0-.037.102A9.926 9.926 0 0 0 0 10c0 5.514 4.486 10 10 10s10-4.486 10-10c0-3.01-1.342-5.707-3.453-7.541"/></svg>
