<?xml version="1.0" encoding="UTF-8"?>
<svg version="1.1" viewBox="0 0 24 24" xmlns="http://www.w3.org/2000/svg">
<path d="m17.3 21.7h-10.6c-0.7 0-1.2-0.5-1.2-1.2v-6.8c0-0.7 0.5-1.2 1.2-1.2s1.2 0.5 1.2 1.2v5.6h8.2v-5.5c0-0.7 0.5-1.2 1.2-1.2s1.2 0.5 1.2 1.2v6.7c0 0.7-0.5 1.2-1.2 1.2zm5-7.7c-0.3 0-0.6-0.1-0.8-0.3l-9.5-8.6-9.5 8.6c-0.5 0.4-1.3 0.4-1.7-0.1s-0.4-1.2 0.1-1.7l10.3-9.3c0.5-0.4 1.2-0.4 1.6 0l4.1 3.7v-2.6c0-0.7 0.5-1.2 1.2-1.2s1.2 0.5 1.2 1.2v4.7 0.1l3.8 3.4c0.5 0.4 0.5 1.2 0.1 1.7-0.2 0.3-0.6 0.4-0.9 0.4z"/>
</svg>
