<svg viewBox="0 0 20 20" fill="none" xmlns="http://www.w3.org/2000/svg">
<path fill-rule="evenodd" clip-rule="evenodd" d="M4.41474 3.50938C4.49867 3.44224 4.4651 3.34989 4.41474 3.27436C4.12863 2.55091 3.80659 1.84242 3.44965 1.15116C3.43767 1.1213 3.41976 1.094 3.3972 1.07105C3.37463 1.0481 3.34776 1.02985 3.3181 1.01736C3.28844 1.00488 3.25644 0.998409 3.22426 0.998306C3.19208 0.998206 3.16056 1.00445 3.13082 1.01675C2.89244 1.13292 2.67175 1.28274 2.47596 1.46159C2.26183 1.61418 2.07449 1.80131 1.9219 2.01544C1.86315 2.11615 1.87184 2.22536 2.01452 2.32607C2.30826 2.53589 3.77682 3.34992 4.13771 3.50938C4.16201 3.50938 4.18721 3.5172 4.21328 3.52529C4.26825 3.54235 4.32712 3.56061 4.38974 3.50938H4.41474ZM14.5279 10.6012C14.3097 10.811 14.0664 10.9035 13.8566 10.702L13.8398 10.744C13.795 10.7039 13.7591 10.6547 13.7345 10.5998C13.7099 10.5448 13.6972 10.4852 13.6972 10.425C13.6972 10.3648 13.7099 10.3054 13.7345 10.2504C13.7591 10.1955 13.795 10.1463 13.8398 10.1062C15.2867 8.60699 16.5158 6.91185 17.4908 5.07051C17.7395 4.55796 17.9335 4.02053 18.0698 3.46736C18.1454 3.03094 17.9774 2.77084 17.7256 2.71209C17.5981 2.70332 17.4721 2.74109 17.3703 2.81823C17.2685 2.89537 17.198 3.00667 17.1719 3.13173C17.0417 3.53618 16.8846 3.93144 16.7019 4.31504C15.7837 6.26583 14.4687 8.00381 12.8411 9.41792C12.8002 9.46298 12.7505 9.49901 12.6948 9.52365C12.6392 9.54829 12.5787 9.56094 12.5178 9.56094C12.4569 9.56094 12.3968 9.54829 12.3412 9.52365C12.2855 9.49901 12.2358 9.46298 12.1949 9.41792C12.1531 9.36856 12.122 9.31097 12.1039 9.24887C12.0858 9.18678 12.0809 9.12159 12.0896 9.0575C12.0983 8.9934 12.1203 8.93179 12.1543 8.87677C12.1883 8.82176 12.2336 8.77448 12.2871 8.73805C13.99 7.28817 15.3176 5.44839 16.1564 3.37516C16.2739 2.96391 16.1057 2.7373 15.963 2.7373C15.8268 2.69786 15.6812 2.70834 15.552 2.7668C15.4228 2.82526 15.3185 2.92776 15.2582 3.05612C14.7626 4.24713 14.0483 5.33467 13.1518 6.26222C11.8012 7.69187 10.2981 8.9696 8.66974 10.0726C8.48277 10.2499 8.24758 10.3677 7.99357 10.4111C7.73955 10.4544 7.4784 10.4213 7.24322 10.316C7.04518 10.1666 6.89678 9.96095 6.81743 9.72589C6.73808 9.49082 6.73123 9.23717 6.79817 8.99828C6.82293 8.84764 6.86038 8.62495 6.90602 8.35354L6.90613 8.35288C7.04612 7.5204 7.26311 6.23 7.42763 5.15432C7.55352 4.3654 7.11719 4.26482 6.89898 4.23964C6.68077 4.21446 6.45439 4.34021 6.29493 4.72628C5.68606 6.31548 5.16759 7.93791 4.74218 9.58573C4.40839 11.0121 4.37094 12.492 4.63276 13.9333C4.73303 14.273 4.73303 14.6344 4.63276 14.974C4.47502 15.3792 4.29292 15.7743 4.08732 16.1573C4.01809 16.2994 3.90144 16.5285 3.7751 16.7766C3.6104 17.1001 3.42923 17.4558 3.31525 17.6933C3.26296 17.8053 3.17989 17.9002 3.07592 17.967C2.97195 18.0339 2.85159 18.0699 2.728 18.0709C2.61891 18.0707 2.51171 18.0417 2.41737 17.9869C2.27744 17.9042 2.17201 17.7737 2.12108 17.6193C2.07015 17.465 2.07711 17.2974 2.14034 17.1476C2.54026 16.3417 2.99149 15.5624 3.49146 14.8144C3.55553 14.7057 3.57936 14.578 3.55867 14.4536C3.22199 12.67 3.25329 10.8365 3.65088 9.06549C4.03599 7.57593 4.52414 6.11492 5.11142 4.69288C5.63177 3.28289 6.57174 3.10661 7.19281 3.19054C7.40942 3.21968 7.61734 3.2939 7.80342 3.40856C7.98949 3.52321 8.14963 3.67568 8.27305 3.85606C8.39647 4.03644 8.4807 4.24084 8.52016 4.45581C8.55963 4.67078 8.55344 4.89166 8.50213 5.10412C8.4497 5.64008 8.23547 7.05755 8.09247 8.00367C8.02946 8.42059 7.98028 8.74598 7.96488 8.86407C7.93131 9.10746 8.19147 9.14097 8.36772 9.01508C9.80367 8.05336 11.1221 6.92664 12.2957 5.65797C13.1338 4.80196 13.8229 3.81199 14.3349 2.7289C14.4446 2.40509 14.6579 2.12635 14.9414 1.93531C15.2249 1.74427 15.5631 1.65148 15.9044 1.6714C16.0346 1.6758 16.1628 1.70636 16.281 1.76114C16.3992 1.81593 16.5049 1.89392 16.5925 1.99043C16.6156 2.01107 16.6455 2.02239 16.6765 2.02239C16.7075 2.02239 16.7374 2.01107 16.7605 1.99043C16.9368 1.86057 17.1392 1.76997 17.3535 1.72508C17.5678 1.68019 17.789 1.68201 18.0026 1.7302C18.3726 1.8416 18.6856 2.09124 18.8763 2.42728C19.067 2.76332 19.1208 3.15984 19.0267 3.53457C19.0111 3.60004 18.9944 3.67826 18.9764 3.7619C18.9461 3.90342 18.9124 4.06048 18.8755 4.19763C18.8716 4.20864 18.8701 4.22023 18.871 4.23185C18.8719 4.24347 18.8753 4.25478 18.8808 4.26504C18.8864 4.27531 18.8942 4.28431 18.9034 4.29148C18.9126 4.29864 18.9228 4.3038 18.9341 4.30664C19.1136 4.34386 19.2835 4.41852 19.4324 4.52548C19.5813 4.63243 19.7058 4.76946 19.7984 4.9277C19.8909 5.08593 19.9494 5.26186 19.9697 5.44405C19.9899 5.62625 19.9719 5.81049 19.9164 5.9852C19.7304 6.71596 19.4301 7.41293 19.0267 8.04999C19.0214 8.06203 19.0188 8.07495 19.0189 8.0881C19.0191 8.10126 19.022 8.1143 19.0275 8.12622C19.0331 8.13814 19.0409 8.1488 19.0509 8.15736C19.0609 8.16592 19.0727 8.17214 19.0853 8.1758C19.7819 8.36884 20.1849 9.48517 19.4128 10.786C18.8272 11.7683 18.1499 12.6926 17.39 13.5471C15.85 15.2107 13.973 16.5269 11.8842 17.4079C11.2117 17.715 10.6452 18.2143 10.2561 18.843C10.0737 19.1121 9.90841 19.3924 9.76105 19.6823C9.71134 19.8016 9.62721 19.9036 9.51968 19.9753C9.41214 20.047 9.28583 20.0851 9.15659 20.0851C9.06109 20.086 8.96649 20.0661 8.87956 20.0265C8.72216 19.9457 8.60304 19.806 8.54803 19.6378C8.49302 19.4696 8.50691 19.2866 8.58614 19.1284C8.61971 19.0445 8.74533 18.8262 9.13979 18.1547C9.67599 17.407 10.4121 16.8253 11.2634 16.4762C14.033 15.0746 15.4679 14.1598 16.9031 12.5568C17.6735 11.6984 18.3435 10.7553 18.9005 9.74535C18.976 9.4516 18.9343 9.20805 18.6825 9.15769C18.5807 9.14248 18.4767 9.15942 18.385 9.20605C18.2932 9.25268 18.2183 9.32672 18.1706 9.41792C17.4909 10.3612 16.7327 11.2457 15.9044 12.0618C15.6442 12.3219 15.3674 12.3386 15.1996 12.1792C15.1569 12.1421 15.1226 12.0964 15.0992 12.045C15.0757 11.9936 15.0635 11.9377 15.0635 11.8812C15.0635 11.8247 15.0757 11.7689 15.0992 11.7175C15.1226 11.6661 15.1569 11.6203 15.1996 11.5833C16.6794 10.1178 17.9046 8.41593 18.8251 6.54765C19.1188 5.99373 19.1188 5.49004 18.8251 5.37254C18.7668 5.3503 18.7046 5.34033 18.6423 5.34324C18.58 5.34615 18.5192 5.36197 18.4632 5.38955C18.4073 5.41712 18.3576 5.45584 18.3173 5.50347C18.2771 5.55111 18.2471 5.60662 18.2292 5.66637C17.2562 7.49163 16.0077 9.15603 14.5279 10.6012ZM9.4503 6.73231C9.377 6.73281 9.3043 6.71727 9.23761 6.68683C9.17093 6.65638 9.11191 6.6118 9.06427 6.5561C8.97364 6.44697 8.9274 6.3076 8.93518 6.16596C8.94296 6.02433 9.00403 5.89076 9.10607 5.79222C9.97841 5.02774 10.7311 4.13664 11.3387 3.14858C11.4933 2.79858 11.754 2.50597 12.0837 2.31176C12.4134 2.11755 12.7955 2.03147 13.1766 2.06588C13.315 2.08863 13.439 2.16463 13.5221 2.27754C13.6052 2.39045 13.6411 2.53128 13.6217 2.67013C13.6049 2.8092 13.5335 2.93602 13.4233 3.02256C13.3132 3.10911 13.1731 3.14835 13.034 3.13178C12.6303 3.07525 12.3508 3.46155 12.2106 3.65532L12.1948 3.67723C11.5431 4.76855 10.7246 5.75137 9.76913 6.5897C9.67604 6.67717 9.55303 6.72521 9.4253 6.72391L9.4503 6.73231ZM0.545693 15.6537C0.465976 15.6536 0.386987 15.6364 0.314564 15.6031C0.242141 15.5697 0.177991 15.5211 0.126054 15.4606C0.0345391 15.3501 -0.00986467 15.2079 0.00270309 15.065C0.0152708 14.922 0.0838633 14.7899 0.193262 14.697C0.823539 14.2036 1.4913 13.7602 2.19065 13.3709C2.32017 13.3089 2.46874 13.2996 2.60496 13.345C2.74117 13.3904 2.85449 13.487 2.92092 13.6143C2.95253 13.6776 2.97096 13.7465 2.97583 13.8171C2.9807 13.8877 2.97181 13.9586 2.94919 14.0257C2.92657 14.0928 2.89092 14.1548 2.84428 14.2081C2.79764 14.2613 2.741 14.3049 2.67749 14.3361C2.05489 14.6918 1.45727 15.0899 0.889519 15.5279C0.792762 15.6082 0.671478 15.6526 0.545693 15.6537ZM3.46571 4.33457C3.53237 4.35596 3.61717 4.38316 3.61717 4.48307C3.6338 4.59117 3.55165 4.64984 3.49299 4.69173L3.49136 4.69289C3.18083 4.91111 1.7541 5.71671 1.44357 5.851C1.41722 5.86837 1.38749 5.87987 1.35628 5.8846C1.32508 5.88933 1.29317 5.88723 1.26285 5.87846C1.23253 5.86968 1.20433 5.85446 1.18048 5.83379C1.15662 5.81312 1.13774 5.78755 1.12474 5.75879C1.01483 5.51157 0.946566 5.24765 0.92312 4.97812C0.85957 4.71742 0.839865 4.44803 0.864518 4.18084C0.881304 4.05495 0.956692 3.97102 1.13294 3.97102C1.46865 3.98781 3.06348 4.23113 3.43276 4.32345C3.44281 4.32722 3.45398 4.33081 3.46571 4.33457ZM15.8875 16.9294C15.7825 16.9294 15.7477 17.0228 15.7227 17.0897L15.7199 17.0974C15.4777 17.842 15.2733 18.5983 15.1072 19.3634C15.0985 19.3938 15.0959 19.4256 15.1002 19.4569C15.1045 19.4881 15.1156 19.5181 15.1322 19.545C15.1488 19.5718 15.1705 19.5949 15.1965 19.6128C15.2226 19.6306 15.2524 19.6429 15.2834 19.6486C15.5478 19.6877 15.8162 19.6877 16.0805 19.6486C16.3485 19.6489 16.6148 19.6065 16.8694 19.5228C16.8997 19.5128 16.9278 19.4965 16.9513 19.4749C16.9749 19.4533 16.9936 19.427 17.0062 19.3976C17.0189 19.3683 17.0251 19.3366 17.0247 19.3046C17.0243 19.2727 17.0172 19.2412 17.0038 19.2122C16.9031 18.8849 16.2651 17.3827 16.0805 17.047C16.0805 16.9799 16.005 16.8958 15.8875 16.9042V16.9294ZM16.8176 16.293C16.807 16.2506 16.8104 16.206 16.8275 16.1658L16.8611 16.1574C16.9114 16.0734 17.0035 16.0733 17.0791 16.0733C17.4567 16.0985 19.0682 16.3673 19.4039 16.4596C19.4672 16.4699 19.5239 16.5046 19.5617 16.5565C19.5994 16.6084 19.6152 16.673 19.6055 16.7364C19.5414 16.9908 19.4453 17.2362 19.3199 17.4667C19.2147 17.7053 19.0732 17.9262 18.9002 18.1213C18.879 18.1448 18.8533 18.1634 18.8244 18.1763C18.7955 18.1891 18.7642 18.1957 18.7326 18.1957C18.701 18.1957 18.6697 18.1891 18.6408 18.1763C18.6119 18.1634 18.5858 18.1448 18.5646 18.1213C18.2625 17.8947 17.1211 16.7029 16.8861 16.4008C16.8521 16.3733 16.8282 16.3354 16.8176 16.293Z" fill="currentColor" />
</svg>
