<?xml version="1.0" encoding="UTF-8"?>
<svg version="1.1" viewBox="0 0 34 14" xml:space="preserve" xmlns="http://www.w3.org/2000/svg">
<path d="m11.9 7.6h-1.4c-0.3 0-0.5 0.2-0.5 0.4v5.4c0 0.3 0.2 0.4 0.4 0.4h1.4c0.3 0 0.4-0.2 0.4-0.4v-5.4c0.1-0.2-0.1-0.4-0.3-0.4m-1.4-1.4c0.1-0.1 0.1-0.2 0.1-0.3-0.1-0.5-0.5-2.5-0.7-2.9-0.1-0.2-0.2-0.3-0.3-0.3-0.2 0-0.5 0.2-0.9 0.4-0.4 0.3-0.7 0.5-0.8 0.7-0.1 0.1-0.1 0.2 0 0.4 0.3 0.3 1.9 1.7 2.3 2 0.1 0 0.2 0.1 0.3 0zm1.2-2.7c0.1 0.1 0.2 0 0.3-0.1 0.5-0.4 1.8-1.6 2.2-2.1 0.1-0.2 0.1-0.3 0-0.4-0.1-0.2-0.4-0.3-0.8-0.5s-0.7-0.4-0.9-0.4-0.3 0-0.3 0.2c-0.1 0.4-0.5 2.5-0.5 3-0.1 0.1-0.1 0.2 0 0.3zm11.5 10.3h-1.2c-0.3 0-0.4-0.2-0.4-0.4v-1.8c0-0.7-0.5-1.4-1.4-1.4s-1.4 0.7-1.4 1.4v1.8c0 0.3-0.2 0.4-0.4 0.4h-1.4c-0.3 0-0.4-0.2-0.4-0.4v-9.1c0-0.3 0.2-0.4 0.4-0.4h1.2c0.3 0 0.4 0.2 0.4 0.4v3.9c0 0.2 0.1 0.3 0.3 0.3s0.4-0.2 0.5-0.4l1.7-2.5c0.2-0.3 0.4-0.4 0.6-0.4h1.4c0.3 0 0.5 0.3 0.3 0.5l-1.9 2.5c-0.1 0.2-0.1 0.3 0.1 0.4 1.1 0.5 1.8 1.7 1.8 2.9v1.8c0.2 0.4 0.1 0.5-0.2 0.5m7-8.8c-2 0-3.3 1.5-3.3 3.1v2.8c0 1.7 1.3 3.1 3.3 3.1 1.8 0 2.5-0.9 2.9-1.6 0.1-0.1 0.1-0.4-0.1-0.6l-0.9-0.6c-0.2-0.1-0.4-0.1-0.6 0.1-0.4 0.6-0.8 0.9-1.3 0.9-0.9 0-1.4-0.7-1.4-1.3v-0.3c0-0.1 0.1-0.2 0.2-0.2h3.7c0.5 0 0.8-0.3 0.8-0.8v-1.5c0-1.7-1.3-3.1-3.3-3.1zm1.3 3.4c0 0.1-0.1 0.2-0.2 0.2h-2.3c-0.1 0-0.2-0.1-0.2-0.2v-0.3c0-0.7 0.5-1.3 1.4-1.3s1.4 0.7 1.4 1.3v0.3zm-25.6 3.5h-3.6c-0.1 0-0.2-0.1-0.2-0.2v-7.6c0-0.3-0.2-0.4-0.4-0.4h-1.3c-0.2 0-0.4 0.1-0.4 0.4v8.9c0 0.6 0.3 0.9 0.9 0.9h5.1c0.3 0 0.4-0.2 0.4-0.4v-1.1c-0.1-0.4-0.2-0.5-0.5-0.5"/>
</svg>
