<?xml version="1.0" encoding="UTF-8"?>
<svg version="1.1" viewBox="0 0 110 11" xml:space="preserve" xmlns="http://www.w3.org/2000/svg">
<path d="m0 0.8c0-0.1 0.1-0.3 0.3-0.3h1.7c0.1 0 0.3 0.1 0.3 0.3v7.8h3.5c0.2 0 0.3 0.1 0.3 0.3v1.6c0 0.2-0.1 0.3-0.3 0.3h-5.5c-0.2 0-0.3-0.1-0.3-0.3v-9.7zm10.7 0c0-0.1 0.1-0.3 0.3-0.3h1.8c0.1 0 0.3 0.1 0.3 0.3v9.7c0 0.2-0.1 0.3-0.3 0.3h-1.8c-0.2 0-0.3-0.1-0.3-0.3v-9.7zm8.1 0.1c0-0.2 0.1-0.4 0.4-0.4h1.7c0.2 0 0.4 0.2 0.4 0.4v3.9l3.3-4.1c0.1-0.1 0.2-0.1 0.3-0.1h1.8c0.3 0 0.4 0.3 0.3 0.5l-3.4 4.3 3.7 4.9c0.2 0.2 0 0.5-0.3 0.5h-2c-0.1 0-0.2-0.1-0.3-0.1l-3.4-4.6v4.4c0 0.2-0.2 0.4-0.4 0.4h-1.7c-0.2 0-0.3-0.2-0.4-0.3v-9.7zm12.5-0.1c0-0.1 0.1-0.3 0.3-0.3h6.1c0.2 0 0.3 0.1 0.3 0.3v1.6c0 0.2-0.1 0.3-0.3 0.3h-4.1v1.8h3.3c0.1 0 0.3 0.1 0.3 0.3v1.6c0 0.2-0.1 0.3-0.3 0.3h-3.3v2h4.1c0.2 0 0.3 0.1 0.3 0.3v1.6c0 0.2-0.1 0.3-0.3 0.3h-6.1c-0.2 0-0.3-0.1-0.3-0.3v-9.8zm15.8 4.1c0.6 0 1.1-0.6 1.1-1.2s-0.5-1.1-1.1-1.1h-2.1v2.3h2.1zm-4.4-4.1c0-0.1 0.1-0.3 0.3-0.3h4.4c1.8 0 3.2 1.4 3.2 3.2 0 1.3-0.9 2.4-2.2 2.9l2 3.7c0.1 0.2 0 0.4-0.2 0.4h-1.9c-0.1 0-0.2 0-0.2-0.1l-2.1-3.8h-1v3.7c0 0.2-0.1 0.3-0.3 0.3h-1.7c-0.2 0-0.3-0.1-0.3-0.3v-9.7zm15 7.3c0.8 0 1.4 0.6 1.4 1.4 0 0.7-0.6 1.4-1.4 1.4-0.7 0-1.4-0.6-1.4-1.4 0-0.7 0.6-1.4 1.4-1.4m6.1-7.3c0-0.1 0.1-0.3 0.3-0.3h1.7c0.1 0 0.3 0.1 0.3 0.3v7.8h3.5c0.2 0 0.3 0.1 0.3 0.3v1.6c0 0.2-0.1 0.3-0.3 0.3h-5.6c-0.2 0-0.3-0.1-0.3-0.3v-9.7zm15.7 6.5-1.1-2.4-1.1 2.4h2.2zm-6.1 3.1 4.6-9.9c0-0.1 0.1-0.2 0.2-0.2h0.1c0.1 0 0.2 0.1 0.2 0.2l4.6 9.9c0.1 0.2 0 0.4-0.2 0.4h-1.6c-0.3 0-0.4-0.1-0.5-0.4l-0.5-1.2h-4l-0.5 1.2c-0.1 0.2-0.3 0.4-0.5 0.4h-1.6c-0.2 0-0.3-0.2-0.3-0.4zm14.1-9.8c0-0.1 0.1-0.3 0.3-0.3h0.4l5.8 5.7v-5.2c0-0.1 0.1-0.3 0.3-0.3h1.7c0.1 0 0.3 0.1 0.3 0.3v9.9c0 0.1-0.1 0.3-0.3 0.3h-0.2c-0.1 0-0.1 0-0.2-0.1l-5.8-5.9v5.5c0 0.2-0.1 0.3-0.3 0.3h-1.7c-0.2 0-0.3-0.1-0.3-0.3v-9.9zm17.1 8c1.7 0 2.9-1.3 2.9-3s-1.2-3-2.9-3h-1.4v5.9h1.4zm-3.7-7.8c0-0.1 0.1-0.3 0.3-0.3h3.6c2.8 0 5.1 2.3 5.1 5.1s-2.3 5.1-5.1 5.1h-3.6c-0.1 0-0.3-0.1-0.3-0.3v-9.6z"/>
</svg>
