<?xml version="1.0" encoding="UTF-8"?>
<svg version="1.1" viewBox="0 0 89 16" xmlns="http://www.w3.org/2000/svg">
<path d="m59.1 15.4h-4.2c-0.5 0-0.8-0.3-0.8-0.8v-9.8c0-0.3 0.1-0.4 0.4-0.4h0.7c0.3 0 0.4 0.1 0.4 0.4v8.8c0 0.3 0.1 0.4 0.4 0.4h3.1c0.3 0 0.4 0.1 0.4 0.4v0.6c0 0.2-0.1 0.4-0.4 0.4m6.4-4.5c-1 0-1.6 0.9-1.6 1.7s0.6 1.7 1.6 1.7 1.6-0.9 1.6-1.7c0-0.9-0.6-1.7-1.6-1.7m2.6 4.5h-0.5c-0.1 0-0.2-0.1-0.3-0.2s-0.2-0.1-0.3-0.1c-0.3 0.2-0.9 0.4-1.6 0.4-1.8 0-3.1-1.4-3.1-3s1.2-3 3.1-3c0.5 0 1 0.1 1.4 0.3 0.1 0.1 0.3 0 0.3-0.2 0-0.8-0.6-1.7-1.6-1.7-0.7 0-1.2 0.2-1.5 0.4-0.2 0.1-0.4 0-0.5-0.2l-0.2-0.4c-0.1-0.2 0-0.5 0.2-0.6 0.6-0.4 1.4-0.5 2.1-0.5 1.8 0 3.1 1.4 3.1 3v5.4c-0.1 0.2-0.3 0.4-0.6 0.4m10.1 0h-0.6c-0.3 0-0.4-0.1-0.4-0.4v-5.4c0-0.8-0.6-1.7-1.6-1.7s-1.6 0.9-1.6 1.7v5.4c0 0.3-0.1 0.4-0.4 0.4h-0.6c-0.3 0-0.4-0.1-0.4-0.4v-7.8c0-0.3 0.1-0.4 0.4-0.4h0.5c0.1 0 0.2 0.1 0.3 0.2s0.2 0.1 0.3 0.1c0.3-0.2 0.9-0.4 1.6-0.4 1.8 0 3.1 1.4 3.1 3v5.3c-0.2 0.2-0.4 0.4-0.6 0.4m8.5-5.8c0-0.8-0.6-1.7-1.6-1.7s-1.6 0.9-1.6 1.7v2.9c0 0.8 0.6 1.7 1.6 1.7s1.6-0.9 1.6-1.7v-2.9zm1 5.8h-0.5c-0.1 0-0.2-0.1-0.3-0.2s-0.2-0.1-0.3-0.1c-0.3 0.2-0.9 0.4-1.6 0.4-1.8 0-3.1-1.4-3.1-3v-2.9c0-1.6 1.2-3 3.1-3 0.4 0 0.9 0.1 1.3 0.3 0.2 0.1 0.3 0 0.3-0.2v-1.9c0-0.3 0.1-0.4 0.4-0.4h0.6c0.3 0 0.4 0.2 0.4 0.4v10.2c0.1 0.2-0.1 0.4-0.3 0.4zm-80.9-2.1h-3.9c-0.1 0-0.2-0.1-0.2-0.2v-8.2c0-0.3-0.2-0.5-0.5-0.5h-1.3c-0.3 0-0.5 0.2-0.5 0.5v9.5c0 0.6 0.3 0.9 0.9 0.9h5.4c0.3 0 0.5-0.2 0.5-0.5v-1.2c0.1-0.2-0.1-0.3-0.4-0.3m6.4-4.6h-1.5c-0.3 0-0.5 0.2-0.5 0.5v5.8c0 0.3 0.2 0.5 0.5 0.5h1.5c0.3 0 0.5-0.2 0.5-0.5v-5.9c-0.1-0.3-0.2-0.4-0.5-0.4m-1.5-1.5c0.1-0.1 0.1-0.2 0.1-0.3-0.1-0.5-0.6-2.7-0.7-3.2-0.1-0.2-0.2-0.3-0.4-0.2-0.2 0-0.5 0.2-1 0.5-0.4 0.2-0.7 0.4-0.8 0.5-0.1 0.2-0.1 0.3 0.1 0.5 0.3 0.3 2 1.8 2.5 2.1 0 0.1 0.1 0.1 0.2 0.1zm1.4-2.9c0.1 0.1 0.2 0 0.3-0.1 0.5-0.4 1.9-1.7 2.3-2.2 0.2-0.2 0.1-0.3 0-0.5s-0.4-0.3-0.9-0.6c-0.5-0.2-0.8-0.4-1-0.4s-0.3 0-0.4 0.3c0 0.4-0.4 2.6-0.5 3.2 0 0.1 0 0.2 0.2 0.3zm12.3 11.1h-1.3c-0.3 0-0.5-0.2-0.5-0.5v-2c0-0.7-0.5-1.5-1.5-1.5s-1.5 0.8-1.5 1.5v2c0 0.3-0.2 0.5-0.5 0.5h-1.3c-0.3 0-0.5-0.2-0.5-0.5v-9.8c0-0.3 0.2-0.5 0.5-0.5h1.2c0.3 0 0.5 0.2 0.5 0.5v4.2c0 0.2 0.1 0.3 0.3 0.3s0.4-0.2 0.6-0.4l1.8-2.6c0.2-0.3 0.4-0.4 0.7-0.4h1.5c0.3 0 0.5 0.3 0.3 0.6l-2 2.7c-0.1 0.2-0.1 0.3 0.1 0.4 1.2 0.6 1.9 1.8 1.9 3.1v2c0.1 0.2 0 0.4-0.3 0.4m8.9-5.8c0 0.1-0.1 0.2-0.2 0.2h-2.5c-0.1 0-0.2-0.1-0.2-0.2v-0.4c0-0.7 0.5-1.4 1.5-1.4 0.9 0 1.5 0.7 1.5 1.4l-0.1 0.4zm-1.4-3.7c-2.2 0-3.6 1.6-3.6 3.3v3c0 1.8 1.4 3.3 3.6 3.3 2 0 2.7-0.9 3.1-1.7 0.1-0.1 0.1-0.4-0.1-0.6l-0.9-0.6c-0.2-0.1-0.5-0.1-0.6 0.1-0.4 0.6-0.8 0.9-1.4 0.9-0.9 0-1.5-0.7-1.5-1.4v-0.4c0-0.1 0.1-0.2 0.2-0.2h4c0.6 0 0.9-0.3 0.9-0.9v-1.5c-0.1-1.8-1.6-3.3-3.7-3.3zm17.5 9.2c0-0.5-0.4-0.8-0.8-0.8-0.5 0-0.8 0.4-0.8 0.8 0 0.5 0.4 0.8 0.8 0.8 0.5 0 0.8-0.4 0.8-0.8m-3.1-7.1c-0.4-1-1.5-2.1-3.4-2.1h-0.1c-0.6 0-1.1 0.1-1.6 0.4-0.1 0-0.1 0.1-0.2 0.1s-0.2 0-0.2-0.1c-0.1-0.1-0.2-0.2-0.4-0.2h-0.8c-0.3 0-0.4 0.2-0.4 0.4v8.3c0 0.3 0.2 0.4 0.4 0.4h1.2c0.3 0 0.5-0.2 0.5-0.4v-5.5c0-0.8 0.7-1.4 1.6-1.4s1.4 0.5 1.8 1.2c0.1 0.2 0.4 0.2 0.6 0.1l0.8-0.5c0.3-0.2 0.2-0.5 0.2-0.7"/>
</svg>
