<?xml version="1.0" encoding="utf-8"?>
<!-- Generator: Adobe Illustrator 23.0.1, SVG Export Plug-In . SVG Version: 6.00 Build 0)  -->
<svg version="1.1" id="Layer_1" xmlns="http://www.w3.org/2000/svg" xmlns:xlink="http://www.w3.org/1999/xlink" x="0px" y="0px"
	 viewBox="0 0 24 24" style="enable-background:new 0 0 24 24;" xml:space="preserve">
<style type="text/css">
	.st0{fill-rule:evenodd;clip-rule:evenodd;}
</style>
<g>
	<path class="st0" d="M12,6c-6.2,0-9,6-9,6s2.7,6,9,6s9-6,9-6S18.2,6,12,6 M12,7.5c4.1,0,6.5,3.1,7.3,4.5c-0.8,1.4-3.1,4.5-7.3,4.5
		c-4.2,0-6.5-3.1-7.3-4.5C5.6,10.6,7.9,7.5,12,7.5"/>
	<path class="st0" d="M12,8.2c-2.1,0-3.8,1.7-3.8,3.8s1.7,3.8,3.8,3.8s3.8-1.7,3.8-3.8S14.1,8.2,12,8.2 M12,9.8c1.2,0,2.2,1,2.2,2.2
		c0,1.2-1,2.2-2.2,2.2c-1.2,0-2.2-1-2.2-2.2C9.8,10.8,10.8,9.8,12,9.8"/>
</g>
</svg>
