<svg xmlns="http://www.w3.org/2000/svg" viewBox="0 0 36.93 24"><path d="M24.1,6c-3.18,0-4.86,1.57-4.86,3.57,0,3.61,4.24,3.11,4.24,5,0,.32-.26,1-2,1a6.56,6.56,0,0,1-2.9-.62l-.52,2.38a6.64,6.64,0,0,0,3.26.67c2.17,0,5.22-1.67,5.22-4.09,0-2.91-4.24-3.1-4.24-4.39,0-.66.57-1.19,2.07-1.19a4.32,4.32,0,0,1,2.07.77L27,6.57A9,9,0,0,0,24.1,6Zm-13.6.21L7.71,14.38s-.15-.71-.21-1.14A10.36,10.36,0,0,0,3.36,8.38l2.43,9.26H9.1L13.76,6.21Zm4.45,0L13.14,17.64h3.05L18,6.21Zm16.45,0-5,11.43h3L30.05,16h3.83l.31,1.61h2.74L34.6,6.21ZM0,6.26s6,1.82,7.34,6.31l-1-5.17A1.87,1.87,0,0,0,4.65,6.26ZM32.53,9.52l.88,4.29H30.93Z"/></svg>
