<svg width="26" height="38" viewBox="0 0 26 38" fill="none" xmlns="http://www.w3.org/2000/svg">
  <symbol id="mid-autumn-slogan-text-1">
    <path d="M8.06 9.746H18.434C18.8673 9.746 19.2313 9.902 19.526 10.214C19.838 10.5087 19.994 10.8727 19.994 11.306V28.674C19.994 29.5753 19.7427 30.2513 19.24 30.702C18.7547 31.17 17.8707 31.404 16.588 31.404C16.4667 31.404 16.3367 31.404 16.198 31.404C16.0593 31.404 15.9207 31.3953 15.782 31.378C15.522 31.3607 15.2967 31.248 15.106 31.04C14.9327 30.8493 14.846 30.6327 14.846 30.39C14.846 30.0953 14.9413 29.8527 15.132 29.662C15.34 29.4713 15.5827 29.3847 15.86 29.402C16.068 29.4193 16.2587 29.428 16.432 29.428C16.6053 29.428 16.7527 29.428 16.874 29.428C17.446 29.428 17.784 29.376 17.888 29.272C17.992 29.1507 18.044 28.9513 18.044 28.674V23.942C18.044 23.838 17.992 23.786 17.888 23.786H8.086C7.99933 23.786 7.93867 23.838 7.904 23.942C7.71333 25.1727 7.436 26.3773 7.072 27.556C6.72533 28.7173 6.292 29.8353 5.772 30.91C5.668 31.1007 5.52067 31.248 5.33 31.352C5.13933 31.456 4.94 31.508 4.732 31.508C4.66267 31.508 4.59333 31.4993 4.524 31.482C4.472 31.482 4.41133 31.4733 4.342 31.456C3.96067 31.3347 3.77 31.066 3.77 30.65C3.77 30.5807 3.77867 30.5113 3.796 30.442C3.83067 30.39 3.85667 30.3293 3.874 30.26C4.63667 28.752 5.2 27.2267 5.564 25.684C5.94533 24.1413 6.19667 22.6333 6.318 21.16C6.43933 19.6693 6.5 18.274 6.5 16.974V11.306C6.5 10.8727 6.64733 10.5087 6.942 10.214C7.254 9.902 7.62667 9.746 8.06 9.746ZM17.888 15.804C17.992 15.804 18.044 15.752 18.044 15.648V11.826C18.044 11.722 17.992 11.67 17.888 11.67H8.606C8.502 11.67 8.45 11.722 8.45 11.826V15.648C8.45 15.752 8.502 15.804 8.606 15.804H17.888ZM8.216 21.706C8.19867 21.81 8.242 21.862 8.346 21.862H17.888C17.992 21.862 18.044 21.81 18.044 21.706V17.884C18.044 17.78 17.992 17.728 17.888 17.728H8.606C8.502 17.728 8.45 17.78 8.45 17.884C8.43267 19.1493 8.35467 20.4233 8.216 21.706Z" />
  </symbol>
  <symbol id="mid-autumn-slogan-text-2">
    <path d="M17.992 16.454H16.614C16.51 16.454 16.458 16.506 16.458 16.61V17.884C16.458 17.988 16.51 18.04 16.614 18.04H21.788C22.2213 18.04 22.5853 18.1873 22.88 18.482C23.192 18.7767 23.348 19.1493 23.348 19.6V28.96C23.348 29.4107 23.2527 29.8267 23.062 30.208C22.8713 30.5893 22.5247 30.884 22.022 31.092C21.5367 31.3173 20.8433 31.43 19.942 31.43C19.6993 31.43 19.4827 31.3347 19.292 31.144C19.1187 30.9533 19.032 30.7367 19.032 30.494C19.032 30.2167 19.1273 29.9913 19.318 29.818C19.5087 29.6273 19.7427 29.532 20.02 29.532C20.6267 29.5493 21.0167 29.5147 21.19 29.428C21.3633 29.324 21.45 29.168 21.45 28.96V28.284C21.45 28.1627 21.3893 28.128 21.268 28.18C21.164 28.2147 21.086 28.232 21.034 28.232C20.878 28.232 20.7307 28.1627 20.592 28.024C20.384 27.7987 20.1847 27.556 19.994 27.296C19.8033 27.0187 19.63 26.7153 19.474 26.386C19.4567 26.334 19.422 26.308 19.37 26.308C19.3353 26.308 19.3007 26.334 19.266 26.386C19.0927 26.7153 18.8673 27.036 18.59 27.348C18.33 27.6427 18.0267 27.9287 17.68 28.206C17.576 28.2927 17.4373 28.336 17.264 28.336C16.9693 28.336 16.744 28.206 16.588 27.946C16.5187 27.8247 16.484 27.686 16.484 27.53C16.484 27.2007 16.614 26.932 16.874 26.724C17.4287 26.256 17.836 25.7187 18.096 25.112C18.356 24.488 18.4947 23.7253 18.512 22.824C18.512 22.72 18.46 22.668 18.356 22.668H17.628C17.4027 22.668 17.212 22.59 17.056 22.434C16.9 22.278 16.822 22.0873 16.822 21.862C16.822 21.6367 16.9 21.446 17.056 21.29C17.212 21.134 17.4027 21.056 17.628 21.056H18.746C19.0927 21.056 19.396 21.186 19.656 21.446C19.916 21.6887 20.046 21.992 20.046 22.356C20.046 22.5813 20.0373 22.798 20.02 23.006C20.02 23.1967 20.0113 23.3873 19.994 23.578C19.994 23.6647 20.0027 23.734 20.02 23.786C20.1587 24.2193 20.332 24.6613 20.54 25.112C20.748 25.5627 20.9907 25.9873 21.268 26.386C21.3027 26.4553 21.3373 26.4813 21.372 26.464C21.424 26.4467 21.45 26.4033 21.45 26.334V19.99C21.45 19.886 21.398 19.834 21.294 19.834H16.614C16.51 19.834 16.458 19.886 16.458 19.99V29.896C16.458 30.156 16.3627 30.3727 16.172 30.546C15.9987 30.7193 15.782 30.806 15.522 30.806C15.2793 30.806 15.0627 30.7193 14.872 30.546C14.6987 30.3727 14.612 30.156 14.612 29.896V28.206C14.612 28.0673 14.5513 28.0327 14.43 28.102C14.326 28.1367 14.2393 28.154 14.17 28.154C13.962 28.154 13.7887 28.0847 13.65 27.946C13.4593 27.738 13.2687 27.504 13.078 27.244C12.8873 26.984 12.714 26.7067 12.558 26.412C12.5407 26.3427 12.506 26.308 12.454 26.308C12.4193 26.308 12.3847 26.3427 12.35 26.412C12.142 26.7587 11.8993 27.0967 11.622 27.426C11.3447 27.738 11.0327 28.024 10.686 28.284C10.5647 28.388 10.4347 28.44 10.296 28.44C10.14 28.44 9.984 28.3793 9.828 28.258C9.70667 28.1887 9.646 28.2147 9.646 28.336V30.494C9.646 30.7713 9.55067 31.0053 9.36 31.196C9.16933 31.3867 8.93533 31.482 8.658 31.482C8.398 31.482 8.17267 31.3867 7.982 31.196C7.79133 31.0053 7.696 30.7713 7.696 30.494V19.6C7.696 19.1493 7.84333 18.7767 8.138 18.482C8.45 18.1873 8.82267 18.04 9.256 18.04H14.456C14.56 18.04 14.612 17.988 14.612 17.884V16.61C14.612 16.506 14.56 16.454 14.456 16.454H13.104C12.6707 16.454 12.298 16.3067 11.986 16.012C11.6913 15.7 11.544 15.3273 11.544 14.894V13.334C11.544 13.23 11.492 13.178 11.388 13.178H7.982C7.722 13.178 7.49667 13.0913 7.306 12.918C7.13267 12.7273 7.046 12.502 7.046 12.242C7.046 11.9993 7.13267 11.7913 7.306 11.618C7.49667 11.4273 7.722 11.332 7.982 11.332H11.388C11.492 11.332 11.544 11.28 11.544 11.176V9.954C11.544 9.694 11.6307 9.46867 11.804 9.278C11.9947 9.08733 12.2287 8.992 12.506 8.992C12.766 8.992 12.9913 9.08733 13.182 9.278C13.3727 9.46867 13.468 9.694 13.468 9.954V11.176C13.468 11.28 13.52 11.332 13.624 11.332H17.472C17.576 11.332 17.628 11.28 17.628 11.176V10.11C17.628 9.83267 17.7147 9.60733 17.888 9.434C18.0787 9.24333 18.3127 9.148 18.59 9.148C18.85 9.148 19.0753 9.24333 19.266 9.434C19.4567 9.60733 19.552 9.83267 19.552 10.11V11.176C19.552 11.28 19.604 11.332 19.708 11.332H23.088C23.348 11.332 23.5647 11.4273 23.738 11.618C23.9113 11.7913 23.998 11.9993 23.998 12.242C23.998 12.502 23.9113 12.7273 23.738 12.918C23.5647 13.0913 23.348 13.178 23.088 13.178H19.708C19.604 13.178 19.552 13.23 19.552 13.334V14.894C19.552 15.3273 19.396 15.7 19.084 16.012C18.7893 16.3067 18.4253 16.454 17.992 16.454ZM2.782 11.774C2.55667 11.7047 2.38333 11.5833 2.262 11.41C2.14067 11.2367 2.08 11.046 2.08 10.838C2.08 10.5433 2.16667 10.3093 2.34 10.136C2.53067 9.96267 2.73867 9.876 2.964 9.876C3.016 9.876 3.068 9.88467 3.12 9.902C3.172 9.902 3.224 9.91067 3.276 9.928C4.19467 10.188 5.122 10.578 6.058 11.098C6.43933 11.3233 6.63 11.6353 6.63 12.034C6.63 12.346 6.54333 12.5887 6.37 12.762C6.19667 12.918 5.99733 12.996 5.772 12.996C5.616 12.996 5.45133 12.9527 5.278 12.866C4.914 12.658 4.51533 12.4673 4.082 12.294C3.64867 12.1033 3.21533 11.93 2.782 11.774ZM17.628 13.334C17.628 13.23 17.576 13.178 17.472 13.178H13.624C13.52 13.178 13.468 13.23 13.468 13.334V14.582C13.468 14.686 13.52 14.738 13.624 14.738H17.472C17.576 14.738 17.628 14.686 17.628 14.582V13.334ZM2.496 17.858C2.288 17.7887 2.11467 17.6673 1.976 17.494C1.85467 17.3207 1.794 17.13 1.794 16.922C1.794 16.6447 1.88933 16.4107 2.08 16.22C2.288 16.0293 2.522 15.934 2.782 15.934C2.85133 15.934 2.938 15.9513 3.042 15.986C3.94333 16.2807 4.862 16.688 5.798 17.208C5.98867 17.312 6.12733 17.4593 6.214 17.65C6.30067 17.8233 6.344 18.0053 6.344 18.196C6.344 18.4907 6.25733 18.7247 6.084 18.898C5.928 19.054 5.73733 19.132 5.512 19.132C5.33867 19.132 5.19133 19.0973 5.07 19.028C4.68867 18.8027 4.28133 18.5947 3.848 18.404C3.41467 18.196 2.964 18.014 2.496 17.858ZM14.43 26.334C14.4647 26.4033 14.4993 26.4293 14.534 26.412C14.586 26.3947 14.612 26.3513 14.612 26.282V19.99C14.612 19.886 14.56 19.834 14.456 19.834H9.802C9.698 19.834 9.646 19.886 9.646 19.99V26.828C9.646 26.8973 9.65467 26.9493 9.672 26.984C9.70667 27.0013 9.73267 26.9927 9.75 26.958C9.802 26.906 9.84533 26.8713 9.88 26.854C10.4347 26.4207 10.842 25.892 11.102 25.268C11.3793 24.6267 11.5267 23.812 11.544 22.824C11.544 22.72 11.492 22.668 11.388 22.668H10.816C10.5907 22.668 10.4 22.59 10.244 22.434C10.088 22.278 10.01 22.0873 10.01 21.862C10.01 21.6367 10.088 21.446 10.244 21.29C10.4 21.134 10.5907 21.056 10.816 21.056H11.908C12.272 21.056 12.5753 21.186 12.818 21.446C13.078 21.6887 13.208 21.992 13.208 22.356C13.208 22.5293 13.1993 22.694 13.182 22.85C13.182 23.006 13.1733 23.162 13.156 23.318C13.156 23.4047 13.1647 23.4653 13.182 23.5C13.3033 23.9853 13.468 24.4793 13.676 24.982C13.884 25.4673 14.1353 25.918 14.43 26.334ZM5.902 21.16C6.23133 21.16 6.5 21.29 6.708 21.55C6.916 21.81 6.98533 22.096 6.916 22.408C6.72533 23.24 6.474 24.1673 6.162 25.19C5.86733 26.2127 5.538 27.2267 5.174 28.232C4.82733 29.22 4.472 30.104 4.108 30.884C3.9 31.3347 3.536 31.56 3.016 31.56C2.72133 31.56 2.48733 31.4647 2.314 31.274C2.14067 31.1007 2.054 30.9013 2.054 30.676C2.054 30.5373 2.08 30.4073 2.132 30.286C2.73867 29.0727 3.29333 27.738 3.796 26.282C4.29867 24.826 4.68867 23.3787 4.966 21.94C5.00067 21.7147 5.10467 21.5327 5.278 21.394C5.46867 21.238 5.67667 21.16 5.902 21.16Z" />
  </symbol>
  <symbol id="mid-autumn-slogan-text-3">
    <path d="M4.212 9.538H21.788C22.2213 9.538 22.5853 9.694 22.88 10.006C23.192 10.3007 23.348 10.6647 23.348 11.098V29.35C23.348 29.7833 23.192 30.1473 22.88 30.442C22.5853 30.754 22.2213 30.91 21.788 30.91H4.212C3.77867 30.91 3.406 30.754 3.094 30.442C2.79933 30.1473 2.652 29.7833 2.652 29.35V11.098C2.652 10.6647 2.79933 10.3007 3.094 10.006C3.406 9.694 3.77867 9.538 4.212 9.538ZM4.55 28.856C4.55 28.96 4.602 29.012 4.706 29.012H21.294C21.398 29.012 21.45 28.96 21.45 28.856V11.592C21.45 11.488 21.398 11.436 21.294 11.436H4.706C4.602 11.436 4.55 11.488 4.55 11.592V28.856ZM12.064 14.478C12.064 14.374 12.012 14.322 11.908 14.322H6.136C5.91067 14.322 5.72 14.244 5.564 14.088C5.408 13.932 5.33 13.7413 5.33 13.516C5.33 13.2907 5.408 13.1 5.564 12.944C5.72 12.788 5.91067 12.71 6.136 12.71H11.908C11.9427 12.71 11.9773 12.71 12.012 12.71C12.0467 12.6927 12.064 12.684 12.064 12.684C12.064 12.4413 12.1507 12.2333 12.324 12.06C12.5147 11.8693 12.7313 11.774 12.974 11.774C13.2167 11.774 13.4247 11.8693 13.598 12.06C13.7887 12.2333 13.884 12.4413 13.884 12.684C13.884 12.684 13.9013 12.6927 13.936 12.71C13.9707 12.71 14.0053 12.71 14.04 12.71H19.812C20.0373 12.71 20.228 12.788 20.384 12.944C20.54 13.1 20.618 13.2907 20.618 13.516C20.618 13.7413 20.54 13.932 20.384 14.088C20.228 14.244 20.0373 14.322 19.812 14.322H14.04C13.936 14.322 13.884 14.374 13.884 14.478V14.816C13.884 14.92 13.936 14.972 14.04 14.972H17.212C17.5587 14.972 17.862 15.102 18.122 15.362C18.382 15.6047 18.512 15.908 18.512 16.272V19.054C18.512 19.418 18.382 19.73 18.122 19.99C17.862 20.2327 17.5587 20.354 17.212 20.354H14.04C13.936 20.354 13.884 20.406 13.884 20.51V21.03C13.884 21.134 13.936 21.186 14.04 21.186C14.664 21.1513 15.262 21.1167 15.834 21.082C16.4233 21.03 16.9607 20.9867 17.446 20.952C17.55 20.9173 17.602 20.8567 17.602 20.77C17.6367 20.5273 17.7667 20.3367 17.992 20.198C18.1653 20.1113 18.3387 20.068 18.512 20.068C18.928 20.068 19.2227 20.2327 19.396 20.562C19.5867 20.874 19.7773 21.2207 19.968 21.602C20.176 21.966 20.3407 22.3127 20.462 22.642C20.514 22.746 20.54 22.85 20.54 22.954C20.54 23.1793 20.462 23.3787 20.306 23.552C20.15 23.708 19.9247 23.786 19.63 23.786C19.4567 23.786 19.2833 23.734 19.11 23.63C18.9367 23.5087 18.8067 23.3613 18.72 23.188L18.46 22.642C18.4253 22.538 18.3647 22.5033 18.278 22.538C17.446 22.6073 16.5013 22.6853 15.444 22.772C14.3867 22.8413 13.3033 22.902 12.194 22.954C11.0847 23.006 10.0273 23.058 9.022 23.11C8.01667 23.1447 7.13267 23.1707 6.37 23.188C6.12733 23.188 5.91933 23.1013 5.746 22.928C5.59 22.7547 5.512 22.5553 5.512 22.33C5.512 22.1047 5.59 21.9227 5.746 21.784C5.902 21.628 6.09267 21.5413 6.318 21.524C7.046 21.5067 7.89533 21.4807 8.866 21.446C9.854 21.394 10.868 21.342 11.908 21.29C12.012 21.29 12.064 21.238 12.064 21.134V20.51C12.064 20.406 12.012 20.354 11.908 20.354H8.788C8.44133 20.354 8.138 20.2327 7.878 19.99C7.618 19.73 7.488 19.418 7.488 19.054V16.272C7.488 15.908 7.618 15.6047 7.878 15.362C8.138 15.102 8.44133 14.972 8.788 14.972H11.908C12.012 14.972 12.064 14.92 12.064 14.816V14.478ZM11.908 17.026C12.012 17.026 12.064 16.974 12.064 16.87V16.558C12.064 16.454 12.012 16.402 11.908 16.402H9.438C9.334 16.402 9.282 16.454 9.282 16.558V16.87C9.282 16.974 9.334 17.026 9.438 17.026H11.908ZM16.562 17.026C16.666 17.026 16.718 16.974 16.718 16.87V16.558C16.718 16.454 16.666 16.402 16.562 16.402H14.04C13.936 16.402 13.884 16.454 13.884 16.558V16.87C13.884 16.974 13.936 17.026 14.04 17.026H16.562ZM9.438 18.3C9.334 18.3 9.282 18.352 9.282 18.456V18.768C9.282 18.872 9.334 18.924 9.438 18.924H11.908C12.012 18.924 12.064 18.872 12.064 18.768V18.456C12.064 18.352 12.012 18.3 11.908 18.3H9.438ZM14.04 18.3C13.936 18.3 13.884 18.352 13.884 18.456V18.768C13.884 18.872 13.936 18.924 14.04 18.924H16.562C16.666 18.924 16.718 18.872 16.718 18.768V18.456C16.718 18.352 16.666 18.3 16.562 18.3H14.04ZM15.184 25.528C15.184 25.424 15.132 25.372 15.028 25.372H5.902C5.67667 25.372 5.486 25.294 5.33 25.138C5.19133 24.982 5.122 24.8 5.122 24.592C5.122 24.3667 5.19133 24.1847 5.33 24.046C5.486 23.89 5.67667 23.812 5.902 23.812H15.028C15.132 23.812 15.184 23.7687 15.184 23.682C15.184 23.4393 15.2707 23.2313 15.444 23.058C15.6173 22.8847 15.8253 22.798 16.068 22.798C16.3107 22.798 16.5187 22.8847 16.692 23.058C16.8653 23.2313 16.952 23.4393 16.952 23.682C16.952 23.7687 17.004 23.812 17.108 23.812H20.098C20.3233 23.812 20.5053 23.89 20.644 24.046C20.8 24.1847 20.878 24.3667 20.878 24.592C20.878 24.8 20.8 24.982 20.644 25.138C20.5053 25.294 20.3233 25.372 20.098 25.372H17.108C17.004 25.372 16.952 25.424 16.952 25.528V25.84C16.952 26.9667 16.6833 27.7293 16.146 28.128C15.6087 28.5267 14.82 28.7 13.78 28.648C13.5547 28.6307 13.364 28.544 13.208 28.388C13.0693 28.2147 13 28.0153 13 27.79C13 27.53 13.0953 27.3133 13.286 27.14C13.4767 26.9493 13.702 26.8627 13.962 26.88C14.534 26.8973 14.8807 26.8453 15.002 26.724C15.1233 26.6027 15.184 26.308 15.184 25.84V25.528ZM11.206 25.97C11.3447 26.1953 11.4833 26.438 11.622 26.698C11.778 26.958 11.9167 27.2093 12.038 27.452C12.09 27.556 12.116 27.66 12.116 27.764C12.116 27.972 12.038 28.1627 11.882 28.336C11.726 28.492 11.5267 28.57 11.284 28.57C10.8853 28.57 10.582 28.3793 10.374 27.998C10.2527 27.7553 10.1053 27.5213 9.932 27.296C9.75867 27.0533 9.594 26.828 9.438 26.62C9.334 26.4813 9.282 26.3253 9.282 26.152C9.282 26.0133 9.31667 25.8833 9.386 25.762C9.47267 25.6407 9.58533 25.554 9.724 25.502C9.88 25.45 10.036 25.424 10.192 25.424C10.6427 25.424 10.9807 25.606 11.206 25.97Z" />
  </symbol>
  <symbol id="mid-autumn-slogan-text-4">
    <path d="M4.212 9.538H21.788C22.2213 9.538 22.5853 9.694 22.88 10.006C23.192 10.3007 23.348 10.6647 23.348 11.098V29.35C23.348 29.7833 23.192 30.1473 22.88 30.442C22.5853 30.754 22.2213 30.91 21.788 30.91H4.212C3.77867 30.91 3.406 30.754 3.094 30.442C2.79933 30.1473 2.652 29.7833 2.652 29.35V11.098C2.652 10.6647 2.79933 10.3007 3.094 10.006C3.406 9.694 3.77867 9.538 4.212 9.538ZM4.55 28.856C4.55 28.96 4.602 29.012 4.706 29.012H21.294C21.398 29.012 21.45 28.96 21.45 28.856V11.592C21.45 11.488 21.398 11.436 21.294 11.436H4.706C4.602 11.436 4.55 11.488 4.55 11.592V28.856ZM16.354 16.61H9.646C9.26467 16.61 8.92667 16.4713 8.632 16.194C8.35467 15.9167 8.216 15.5787 8.216 15.18V13.802C8.216 13.4033 8.35467 13.0653 8.632 12.788C8.92667 12.5107 9.26467 12.372 9.646 12.372H16.354C16.7527 12.372 17.0907 12.5107 17.368 12.788C17.6453 13.0653 17.784 13.4033 17.784 13.802V15.18C17.784 15.5787 17.6453 15.9167 17.368 16.194C17.0907 16.4713 16.7527 16.61 16.354 16.61ZM15.938 14.088C15.938 13.984 15.886 13.932 15.782 13.932H10.218C10.114 13.932 10.062 13.984 10.062 14.088V14.92C10.062 15.024 10.114 15.076 10.218 15.076H15.782C15.886 15.076 15.938 15.024 15.938 14.92V14.088ZM17.212 25.892H8.788C8.38933 25.892 8.05133 25.7533 7.774 25.476C7.49667 25.1987 7.358 24.8607 7.358 24.462V18.586C7.358 18.1873 7.49667 17.8493 7.774 17.572C8.05133 17.2947 8.38933 17.156 8.788 17.156H17.212C17.6107 17.156 17.9487 17.2947 18.226 17.572C18.5033 17.8493 18.642 18.1873 18.642 18.586V24.462C18.642 24.8607 18.5033 25.1987 18.226 25.476C17.9487 25.7533 17.6107 25.892 17.212 25.892ZM16.666 19.574C16.77 19.574 16.822 19.522 16.822 19.418V18.898C16.822 18.794 16.77 18.742 16.666 18.742H9.334C9.23 18.742 9.178 18.794 9.178 18.898V19.418C9.178 19.522 9.23 19.574 9.334 19.574H16.666ZM9.334 21.134C9.23 21.134 9.178 21.186 9.178 21.29V21.784C9.178 21.888 9.23 21.94 9.334 21.94H16.666C16.77 21.94 16.822 21.888 16.822 21.784V21.29C16.822 21.186 16.77 21.134 16.666 21.134H9.334ZM9.334 23.5C9.23 23.5 9.178 23.552 9.178 23.656V24.176C9.178 24.28 9.23 24.332 9.334 24.332H16.666C16.77 24.332 16.822 24.28 16.822 24.176V23.656C16.822 23.552 16.77 23.5 16.666 23.5H9.334ZM6.162 28.596C5.902 28.6307 5.668 28.5613 5.46 28.388C5.26933 28.2147 5.174 27.9893 5.174 27.712C5.174 27.5213 5.23467 27.3567 5.356 27.218C5.49467 27.062 5.668 26.9667 5.876 26.932C6.43067 26.8107 6.994 26.672 7.566 26.516C8.15533 26.3427 8.69267 26.1693 9.178 25.996C9.23 25.9787 9.27333 25.97 9.308 25.97C9.36 25.9527 9.412 25.944 9.464 25.944C9.65467 25.944 9.828 26.022 9.984 26.178C10.1573 26.3167 10.244 26.5073 10.244 26.75C10.244 27.166 10.062 27.452 9.698 27.608C9.178 27.816 8.59733 28.0067 7.956 28.18C7.332 28.336 6.734 28.4747 6.162 28.596ZM15.808 26.464C15.9293 26.1173 16.172 25.944 16.536 25.944C16.588 25.944 16.6313 25.9527 16.666 25.97C16.718 25.97 16.77 25.9787 16.822 25.996C17.3073 26.1693 17.8447 26.3427 18.434 26.516C19.0233 26.672 19.5953 26.8107 20.15 26.932C20.3407 26.9667 20.4967 27.0707 20.618 27.244C20.7567 27.4 20.826 27.5733 20.826 27.764C20.826 28.0413 20.722 28.258 20.514 28.414C20.3233 28.57 20.098 28.6307 19.838 28.596C19.2833 28.4747 18.6853 28.336 18.044 28.18C17.4027 28.0067 16.822 27.816 16.302 27.608C15.938 27.4693 15.756 27.192 15.756 26.776C15.756 26.724 15.756 26.672 15.756 26.62C15.7733 26.568 15.7907 26.516 15.808 26.464Z" />
  </symbol>
</svg>
