<svg xmlns="http://www.w3.org/2000/svg" viewBox="0 0 160 82">
  <path d="M42.56 52.85a27.46 27.46 0 1113-16.94" fill="none" stroke="#9b9b9b" stroke-linejoin="round" stroke-width="2.85"/>
  <path d="M54.49 62.59a13.7 13.7 0 1113.7-13.7 13.7 13.7 0 01-13.7 13.7zm0-24.91a11.21 11.21 0 1011.22 11.21 11.2 11.2 0 00-11.22-11.21zM95.47 19a12.26 12.26 0 11-12.26 12.21A12.27 12.27 0 0195.47 19m0-3a15.26 15.26 0 1015.26 15.26A15.26 15.26 0 0095.47 16zM143.93 19a12.26 12.26 0 11-12.26 12.26A12.27 12.27 0 01143.93 19m0-3a15.26 15.26 0 1015.25 15.26A15.26 15.26 0 00143.93 16z" fill="#9b9b9b"/>
  <path d="M25.73 51.94v7.85h2V53.9h2v-2z" fill="#4a4a4a"/>
  <path d="M29.66 55.87h2v-2h-2zM19.83 51.93v5.89h2v-5.89h3.94V50h-5.9zM31.62 69.61h2V55.87h-2zM2.17 63.69h2v-2h-2zM10 40.12h4v-2h-4zM15.92 57.8V50h3.91v-2h-3.91v-7.88H14V57.8zM8.06 59.76v2h2V40.12h-2V57.8h-2v2z" fill="#4a4a4a"/>
  <path d="M6.1 57.8v-2H.2v5.9h2v-3.9zM29.66 75.49h2v-5.88h-2zM27.7 79.42H12V75.5h-2v5.88h19.66V75.5h-2zM8.06 75.5h2v-3.93h-2zM6.1 71.57h2v-3.95h-2z" fill="#4a4a4a"/>
  <path d="M4.13 67.62h2v-3.93h-2z" fill="#4a4a4a"/>
  <path d="M6.1 57.8H2.17v3.92h2v2h2v3.92h2v4h2v3.86h2v3.91H27.7V75.5h2v-5.89h2V55.87h-2v-2h-2v5.89h-2v-7.84h-3.91v5.88h-2V50h-3.88v7.8H14V40.12h-4v21.6H8v-2H6z" fill="#fff"/>
  <path d="M33.82 37.2c-1.74-.3-3.27-1.38-4.86-2.1-1.59.72-3.12 1.8-4.86 2.1-2.75-.22-1.64-3.58-1.43-5.38h0c0-.3.14-.81.18-1.15a38.64 38.64 0 01-3.21-3.43 1.74 1.74 0 01-.27-1.67 1.71 1.71 0 011.2-1.2 40.07 40.07 0 014.62-.89 41.06 41.06 0 012.26-4.11 1.87 1.87 0 013 0 40.06 40.06 0 012.27 4.11c.35.08.8.13 1.15.19h0c1.53.41 4 .13 4.65 1.89a1.75 1.75 0 01-.27 1.68 39.87 39.87 0 01-3.21 3.43 38.36 38.36 0 01.58 4.65 1.86 1.86 0 01-1.8 1.88z" fill="none" stroke="#9b9b9b" stroke-linecap="round" stroke-linejoin="round" stroke-width="2.63"/>
  <path fill="none" stroke="#9b9b9b" stroke-linecap="round" stroke-linejoin="round" stroke-width="2.5" d="M28.96 44.19v2.58M33.48 42.42V45M24.44 42.42V45"/>
</svg>
