<svg width="364" height="152" viewBox="0 0 364 152" fill="none" xmlns="http://www.w3.org/2000/svg">
<path d="M0 0H364V152H0V0Z" fill="#28646E"/>
<path d="M111.687 110.802C110.005 110.802 109.044 110.321 108.804 109.36L109.284 85.5771H100.516L86.1016 85.457H77.4531C76.4121 85.457 75.3711 85.2969 74.3301 84.9766C73.2891 84.6562 72.7686 83.8154 72.7686 82.4541C77.0127 77.0088 81.1367 71.5234 85.1406 65.998C97.873 48.6211 106.602 39.9326 111.326 39.9326C116.611 39.9326 119.254 49.2217 119.254 67.7998C119.254 70.2021 119.214 72.7646 119.134 75.4873L145.68 75.127C145.68 77.209 145.399 78.7305 144.839 79.6914C144.358 80.6523 143.918 81.1729 143.518 81.2529L121.296 83.0547C120.175 86.1777 119.494 89.7012 119.254 93.625C118.854 100.031 118.653 105.396 118.653 109.721L111.687 110.802ZM109.284 51.1035C107.522 53.5059 105.36 55.8682 102.798 58.1904C100.315 60.4326 97.873 62.7148 95.4707 65.0371C93.0684 67.2793 90.9062 69.5615 88.9844 71.8838C87.0625 74.2061 85.8613 76.6084 85.3809 79.0908C85.9414 79.0908 87.1826 79.0908 89.1045 79.0908C91.0264 79.0908 93.7891 78.8906 97.3926 78.4902C100.996 78.0098 104.96 77.5293 109.284 77.0488V51.1035Z" fill="white"/>
<path d="M161.655 103.715C158.772 101.873 156.49 99.5908 154.809 96.8682C153.127 94.0654 152.286 91.0625 152.286 87.8594C152.286 84.6562 152.767 80.8525 153.728 76.4482C154.688 72.0439 155.89 67.96 157.331 64.1963C158.853 60.4326 160.654 56.7891 162.736 53.2656C164.898 49.7422 167.341 46.6191 170.063 43.8965C176.069 38.0508 182.876 35.1279 190.483 35.1279C200.733 35.1279 208.581 38.8916 214.026 46.4189C219.071 53.2256 221.594 61.6738 221.594 71.7637C221.594 83.6953 217.79 92.9844 210.183 99.6309C202.735 106.037 192.846 109.24 180.514 109.24C173.387 109.24 167.101 107.398 161.655 103.715ZM159.373 87.0186C159.373 97.8291 167.061 103.234 182.436 103.234C193.486 103.234 201.774 100.392 207.3 94.7061C212.905 89.0205 215.708 80.9326 215.708 70.4424C215.708 70.1221 215.708 69.8018 215.708 69.4814C215.708 60.2725 213.426 53.2256 208.861 48.3408C204.297 43.4561 198.051 41.0137 190.123 41.0137C189.242 41.0137 188.441 41.0137 187.721 41.0137C187.08 41.0137 186.479 41.0137 185.919 41.0137C181.675 41.0137 177.471 43.8965 173.307 49.6621C169.383 54.9473 166.02 61.7139 163.217 69.9619C160.654 77.4893 159.373 83.1748 159.373 87.0186Z" fill="white"/>
<path d="M273.004 110.802C271.322 110.802 270.361 110.321 270.121 109.36L270.602 85.5771H261.833L247.419 85.457H238.771C237.729 85.457 236.688 85.2969 235.647 84.9766C234.606 84.6562 234.086 83.8154 234.086 82.4541C238.33 77.0088 242.454 71.5234 246.458 65.998C259.19 48.6211 267.919 39.9326 272.644 39.9326C277.929 39.9326 280.571 49.2217 280.571 67.7998C280.571 70.2021 280.531 72.7646 280.451 75.4873L306.997 75.127C306.997 77.209 306.717 78.7305 306.156 79.6914C305.676 80.6523 305.235 81.1729 304.835 81.2529L282.613 83.0547C281.492 86.1777 280.812 89.7012 280.571 93.625C280.171 100.031 279.971 105.396 279.971 109.721L273.004 110.802ZM270.602 51.1035C268.84 53.5059 266.678 55.8682 264.115 58.1904C261.633 60.4326 259.19 62.7148 256.788 65.0371C254.386 67.2793 252.224 69.5615 250.302 71.8838C248.38 74.2061 247.179 76.6084 246.698 79.0908C247.259 79.0908 248.5 79.0908 250.422 79.0908C252.344 79.0908 255.106 78.8906 258.71 78.4902C262.313 78.0098 266.277 77.5293 270.602 77.0488V51.1035Z" fill="white"/>
</svg>
