<svg xmlns="http://www.w3.org/2000/svg" viewBox="0 0 216 40" height="40">
  <path d="M24.7,5.3a56.51,56.51,0,0,1-3.6,6.9l2.4.9c-.1.4-.5.7-1.3.8V38.8c0,.3-1.8,1-3.3,1h-.8V16.6A62.49,62.49,0,0,1,.4,32L0,31.5C8.7,24.8,16.2,14.4,19.2,5.3H1L.7,4.1H32L34.7.6s3,2.3,5,4c-.1.5-.6.7-1.2.7ZM24.2,16c18.7,5.2,17.1,15.4,12.2,13-2.3-4.2-8.2-9.5-12.6-12.6Z"/>
  <path d="M69.5,35.2c1,.1,2.1.1,3.3.1,3.2,0,10.9,0,14.3-.1v.6c-1.4.3-2,1.6-2.1,3.2H72.7c-7.7,0-12-1.6-14.6-8.4a21.85,21.85,0,0,1-10.8,9.2l-.4-.5c6-4.2,8.4-10.8,9.2-16.4L62,24.1c-.2.6-.6.9-1.6.9a21.58,21.58,0,0,1-1.8,4.5,9.2,9.2,0,0,0,6.7,5V20.9H47.8l-.3-1.2H80l2.5-3.2s2.8,2.2,4.4,3.8c-.1.5-.6.7-1.2.7H69.5v5.9H76l2.6-3.4s2.8,2.3,4.6,3.9c-.1.5-.6.7-1.2.7H69.5ZM59,17c0,.4-1.9,1.3-3.6,1.3h-.7V.9l4.5,1.8H75.1L77.2.5l4.4,3.3a3.75,3.75,0,0,1-1.8.9v12c0,.3-2.2,1.1-3.5,1.1h-.7V15.7H59ZM59,4V8.6H75.6V4ZM75.5,14.5V9.8H59v4.7Z"/>
  <path d="M94.3,10.4c10,1.2,6.9,8.5,3.2,5.9a12.9,12.9,0,0,0-3.6-5.6Zm9.9-1.7c-1.1,5-3.2,14.1-3.5,16.2a13.15,13.15,0,0,0-.4,3.8c.1,2.1,1.6,3.9,1.4,7.6-.1,2-1.2,3.2-2.9,3.2-.9,0-1.6-.7-1.8-2.2.7-4.3.5-8.2-.4-8.8a4.37,4.37,0,0,0-2-.7v-.9h1.8c.6,0,.7,0,1.1-.9.7-1.5.7-1.5,6.2-17.6ZM96.8.3c10.5,1.3,7.4,8.8,3.5,6.2A14.46,14.46,0,0,0,96.4.6ZM114.5,17c10,1.2,7.9,6.9,5,5.7a18.7,18.7,0,0,0-5.8-5,39.58,39.58,0,0,1-11.1,6.5l-.4-.5a35.91,35.91,0,0,0,9.4-9.2l1,.3c1.7-2.7,2-6,2-9.4h-2l-.4-1.2h6.6l1.5-1.6,3.1,2.5a2.68,2.68,0,0,1-1.6.6c-.1,6.3-.6,8.5-1.8,9.5a5.09,5.09,0,0,1-3,.9,2.28,2.28,0,0,0-.4-1.7,3,3,0,0,0-1.5-.7V13c.7,0,1.7.1,2.3.1s.7,0,.9-.3c.5-.5.8-2.4.9-7.4h-1.8c-.3,4.1-1.5,7.3-3.8,9.7l3.1.9c-.2.5-.8.7-2,.7ZM121,30.1a1.61,1.61,0,0,1-1.7.6c-.9.9-1.9,2.1-3,3.3l5.6-.6V34c-3.6,1.2-8.7,2.7-15.7,4.6a1.53,1.53,0,0,1-1.2.9l-1.6-4.4c1.5-.1,4-.3,7-.6V28h-6.5l-.3-1.2h6.9V23.7H107l-.3-1.2h7.1l1.7-2.2s1.9,1.6,3.1,2.8c-.1.5-.5.7-1.1.7h-3.6v3.1h2.5l1.7-2.1s2,1.5,3.2,2.6c-.1.5-.5.7-1.1.7h-6.3v6.2l.9-.1c.6-1.8,1.5-4.1,1.9-5.9Zm-17-16c1-.6,1.1-.9,1.1-1.5V3.2l3,.3c1.2-.9,2.3-1.9,3.4-2.9l3.2,2.8a1.3,1.3,0,0,1-1.5.1,29.46,29.46,0,0,1-5,1.7v7c.7-.5,1.5-1,2.3-1.5a15.31,15.31,0,0,0-1.4-3.4l.5-.3c5.9,3.5,3.2,8.3,1.1,6.2V11.9c-1,1.2-2.5,2.8-4,4.4a2.79,2.79,0,0,1-1,1.1Zm1.4,14.5c6.6,1.8,4.1,6.4,1.7,4.6a11.07,11.07,0,0,0-2.2-4.3Zm21-.4c0,.3-1.4,1.1-2.5,1.1h-.6V6.5l4.4.5c-.1.5-.4.8-1.2.9V28.2Zm7.5-26.8c-.1.6-.6,1-1.6,1.2V34.9c0,2.6-.5,4.2-4.8,4.6a3.82,3.82,0,0,0-.9-2.5,5.09,5.09,0,0,0-3.2-1.2v-.6s3.8.3,4.6.3.9-.2.9-.8V.8Z"/>
  <path d="M179,35.4c1.2.4,1.5.9,1.5,1.5,0,1.5-1.4,2-8.4,2h-4.5c-3.9,0-4.6-.7-4.6-3.2V31.9h-3.3c-2,5.6-8.2,7.3-17.2,7.9l-.1-.7c7.2-1.2,11.4-3,12.8-7.2h-2.6v.5c0,.4-1.7,1.3-3.3,1.3h-.6V17.5l4.2,1.7h16.6l1.9-2.1,4,3.1a4,4,0,0,1-1.6.8V32.2c0,.3-2,1.1-3.2,1.1h-.7V31.8H167v3.3c0,.5.1.6,1.5.6H176c.5,0,.7-.1.9-.5a26,26,0,0,0,1.6-3.9h.5ZM146.6,18.7l-3.8-2.5a12.72,12.72,0,0,1,1.2-1V.7l3.7,2h7.8l2-2.4S159.7,2,161,3.2c-.1.5-.5.7-1.1.7h-5.7v3h1.4l1.6-1.7,3.5,2.6a2.3,2.3,0,0,1-1.4.7V12c0,.3-1.7.9-2.8.9h-.6v-.7h-1.8v3.2h1.8l1.8-2.2s2.1,1.6,3.5,2.8c-.1.5-.5.7-1.1.7H147.7ZM151,7V4h-3.5V7Zm-3.4,1.2V11H156V8.2Zm3.4,4.1h-3.5v3.2H151Zm1.5,8.2V23h17.3V20.5Zm17.3,3.7H152.5v2.5h17.3Zm-17.3,6.4h17.3V27.9H152.5ZM160,9.2A24.62,24.62,0,0,0,164.5,0l5.2,1.9c-.2.5-.7.8-1.6.7A9.27,9.27,0,0,1,167,4.2h7.7l2.1-2.5s2.3,1.7,3.7,3c-.1.5-.5.7-1.1.7H166.1a17.94,17.94,0,0,1-5.5,4.2Zm15.7,8.4V16.3H165.1v.6c0,.3-1.4.9-2.5.9h-.4v-9l3.2,1.3h10L177,8.5l3.4,2.5a2.32,2.32,0,0,1-1.5.7v4.9c0,.3-1.6.9-2.6.9h-.6Zm-2-12.2s1.8,1.4,3,2.4c-.1.5-.5.7-1.1.7H164.8l-.3-1.2h7.7ZM165.1,15h2.1V11.4h-2.1Zm4.2-3.6V15h2.1V11.4Zm6.4,3.6V11.4h-2.1V15Z"/>
  <path d="M196.2,18.6a4,4,0,0,1-2.1-3.4,3.06,3.06,0,0,1,3.12-3h.08a3.85,3.85,0,0,1,2.8,1.1,6.05,6.05,0,0,1,.6,2.9,11.23,11.23,0,0,1-5.8,9.7l-.9-1.3a12,12,0,0,0,3.6-5Z"/>
</svg>
