<svg xmlns="http://www.w3.org/2000/svg" viewBox="0 0 216 40" height="40">
  <path d="M21.26,22.82c.1.1.1.1.1.3s-1.4,5.7-1.6,6.5c-.9,0-10.3-.1-13.7-.1-3,0-4.1.1-4.5.1s-.3-.1-.3-.3v-.8c0-.2,0-.3.2-.3h1.3c1.2,0,1.4-.5,1.4-.9,0-.6.1-8.8.1-10.8v-1.8c0-2.1-.1-5.6-.1-6.2-.1-.9-.2-1.2-1.1-1.2H1.66a.32.32,0,0,1-.3-.3v-.8a.26.26,0,0,1,.23-.3h.07c.3,0,1.5.1,4.5.1,3.6,0,4.9-.1,5.2-.1s.3.1.3.3V7a.32.32,0,0,1-.3.3H9.56c-1,0-1.1.3-1.1,1.2,0,.5-.1,5.4-.1,7.7V19c0,.6,0,7.7.1,9.1h1.8a48.15,48.15,0,0,0,5.5-.2c1.8-.3,3.9-4.2,4.4-5.5.1-.1.2-.2.4-.1Z"/>
  <path d="M27.76,22.32c0,3.4,2.4,5.3,4.3,5.3a4.72,4.72,0,0,0,4-1.9.38.38,0,0,1,.4-.2l.5.3c.2.1.2.2,0,.7A6.71,6.71,0,0,1,31,30c-2.1,0-3.6-.5-4.7-1.8a7.37,7.37,0,0,1-1.8-5.4,7,7,0,0,1,1.6-4.9c1.4-1.8,2.9-2.4,5.7-2.4,3.8,0,5,3.9,5,5.3,0,.5-.3.5-.9.5h-8v1Zm4.1-2.2c.7,0,1.1-.2,1.1-.5,0-1-.3-2.9-2-2.9s-2.6,1.2-3,3.4Z"/>
  <path d="M39.76,25.42a.34.34,0,0,1,.1-.3l.6-.2a.34.34,0,0,1,.3.1l1.1,1.8a2.92,2.92,0,0,0,2.8,1.8A2.1,2.1,0,0,0,47,26.75c0-.05,0-.09,0-.13,0-1.3-.9-1.9-3.2-2.6s-4-1.8-4-4.1a4.1,4.1,0,0,1,1.7-3.5,5.47,5.47,0,0,1,3.4-1.1,6.86,6.86,0,0,1,3.2.7c.5.3.6.4.6.6l.4,2.2v.4l-.6.3a.41.41,0,0,1-.3-.1l-1.6-1.8a2.76,2.76,0,0,0-2.1-1,2.07,2.07,0,0,0-2.3,1.82v.08c0,1.3,1,1.7,3,2.3a6.44,6.44,0,0,1,3.3,1.7,3.4,3.4,0,0,1,1,2.6c0,2.8-2.2,4.7-5.5,4.7a7.4,7.4,0,0,1-3.6-.9,1.27,1.27,0,0,1-.3-.4Z"/>
  <path d="M52.76,25.42a.34.34,0,0,1,.1-.3l.6-.2a.34.34,0,0,1,.3.1l1.1,1.8a2.92,2.92,0,0,0,2.8,1.8A2.1,2.1,0,0,0,60,26.75c0-.05,0-.09,0-.13,0-1.3-.9-1.9-3.2-2.6s-4-1.8-4-4.1a4.1,4.1,0,0,1,1.7-3.5,5.47,5.47,0,0,1,3.4-1.1,6.86,6.86,0,0,1,3.2.7c.5.3.6.4.6.6l.4,2.2v.4l-.6.3a.41.41,0,0,1-.3-.1l-1.6-1.8a2.76,2.76,0,0,0-2.1-1,2.07,2.07,0,0,0-2.3,1.82v.08c0,1.3,1,1.7,3,2.3a6.44,6.44,0,0,1,3.3,1.7,3.4,3.4,0,0,1,1,2.6c0,2.8-2.2,4.7-5.5,4.7a7.4,7.4,0,0,1-3.6-.9,1.27,1.27,0,0,1-.3-.4Z"/>
  <path d="M75.46,29.92a.79.79,0,0,1-.4.1l-.5-.1c-.1-.1-.1-.1-.1-.3.1-.5.1-3.2.1-5.6l-.1-12c0-2.2-.4-2.6-1.4-3l-.4-.1c-.4-.1-.5-.1-.5-.3v-.3q0-.15.3-.3c1.3-.5,3.2-1.3,4.3-1.8a1.81,1.81,0,0,1,1-.4c.3,0,.4.2.3.5s-.1,4-.2,6.9v3.9a6.39,6.39,0,0,1,4.5-1.7,5.79,5.79,0,0,1,4.8,2.8,7.52,7.52,0,0,1,1,4.1c0,3.6-3.2,7.6-7.2,7.6a8.59,8.59,0,0,1-4.2-.9Zm2.5-7.4c0,2.8.1,3.8.5,4.8a2.76,2.76,0,0,0,2.4,1.5,3.34,3.34,0,0,0,3-1.7,6.59,6.59,0,0,0,.9-3.7c0-3.8-1.6-6-4.2-6a3.84,3.84,0,0,0-2.6,1Z"/>
  <path d="M93.06,21.12c0-1.5-.3-2-1.2-2.6l-.6-.3c-.2-.1-.3-.1-.3-.3v-.2q0-.15.3-.3l4-1.9a.85.85,0,0,1,.5-.1c.2,0,.3.2.3.4l.3,2.4h.1c1.1-1.8,2.5-3,3.9-3a1.54,1.54,0,0,1,1.69,1.39,1.48,1.48,0,0,1,0,.21,2,2,0,0,1-1.8,1.8,1.64,1.64,0,0,1-1.1-.3,1.57,1.57,0,0,0-.9-.3,1.77,1.77,0,0,0-1.4,1,3.42,3.42,0,0,0-.4,1.6v6.3c0,1.1.3,1.4.9,1.4h1.4c.2,0,.3.1.3.2v.8c0,.2-.1.2-.2.2s-1.7-.1-4.1-.1-3.6.1-3.8.1-.2-.1-.2-.2v-.7a.26.26,0,0,1,.23-.3.09.09,0,0,1,.07,0h1.2a.85.85,0,0,0,.9-.78V21.12Z"/>
  <path d="M115.76,17.42a7.35,7.35,0,0,1,2.3,5.2,7.9,7.9,0,0,1-2,5,7.29,7.29,0,0,1-5.5,2.4,6.36,6.36,0,0,1-5.3-2.4,7.09,7.09,0,0,1-1.8-5.1,7.35,7.35,0,0,1,2.8-5.5,7.19,7.19,0,0,1,9.5.4Zm-1.7,5.1c0-3.6-1.9-5.7-3.4-5.7a2.67,2.67,0,0,0-2.1.9c-1,1.2-1.4,2.5-1.4,4.9a7.63,7.63,0,0,0,1,4.6,2.81,2.81,0,0,0,2.6,1.4C113,28.62,114.06,25.92,114.06,22.52Z"/>
  <path d="M125.76,29.42l-4.5-11.5a1.22,1.22,0,0,0-1.2-.9h-.6c-.2,0-.2-.1-.2-.2v-.7a.26.26,0,0,1,.23-.3h.07c.4,0,1.1.1,3.4.1,1.6,0,2.4-.1,2.8-.1a.26.26,0,0,1,.3.23v.77c0,.2-.1.2-.3.2h-.3c-.3,0-.5.3-.3.8l2.4,7.7h.2l2.6-6.4a1.65,1.65,0,0,0-.3-1.5c-.2-.3-.5-.3-.9-.3h-.4c-.2,0-.2-.1-.2-.2v-.7a.26.26,0,0,1,.23-.3.09.09,0,0,1,.07,0c.2,0,1.3.1,3.4.1,1.5,0,2.2-.1,2.5-.1a.26.26,0,0,1,.3.23v.77a.28.28,0,0,1-.24.3h-.56c-.3,0-.6.3-.5.8l2.4,7.1h.1l2.2-6c.5-1.4.1-2.1-.7-2.1h-.5a.22.22,0,0,1-.2-.2v-.7a.26.26,0,0,1,.23-.3h.07c.2,0,1.2.1,2.8.1,1.4,0,2-.1,2.4-.1.2,0,.3.1.3.2v.7c0,.2-.1.3-.2.3h-.5c-.5,0-1.1.2-1.2.6-.3.6-4.5,11-5,12.1a.64.64,0,0,1-.7.4c-.3,0-.5-.2-.7-.7l-3.3-8.9h-.2l-3.8,9a1,1,0,0,1-.8.6A2.27,2.27,0,0,1,125.76,29.42Z"/>
  <path d="M144.16,25.42a.34.34,0,0,1,.1-.3l.6-.2a.34.34,0,0,1,.3.1l1.1,1.8a2.92,2.92,0,0,0,2.8,1.8,2.1,2.1,0,0,0,2.29-1.87c0-.05,0-.09,0-.13,0-1.3-.9-1.9-3.2-2.6s-4-1.8-4-4.1a4.1,4.1,0,0,1,1.7-3.5,5.47,5.47,0,0,1,3.4-1.1,6.86,6.86,0,0,1,3.2.7c.5.3.6.4.6.6l.4,2.2v.4l-.6.3a.41.41,0,0,1-.3-.1l-1.6-1.8a2.76,2.76,0,0,0-2.1-1,2.07,2.07,0,0,0-2.3,1.82v.08c0,1.3,1,1.7,3,2.3a6.44,6.44,0,0,1,3.3,1.7,3.4,3.4,0,0,1,1,2.6c0,2.8-2.2,4.7-5.5,4.7a7.4,7.4,0,0,1-3.6-.9,1.27,1.27,0,0,1-.3-.4Z"/>
  <path d="M158.86,20.22c0-1-.2-1.6-1.7-2-.3-.1-.3-.2-.3-.3v-.4c0-.1.1-.2.2-.3.5-.2,3.7-1.3,4.3-1.6a2.69,2.69,0,0,1,.8-.2c.2,0,.3.1.3.4-.1.5-.1,2.6-.1,5.4v3.6a18.73,18.73,0,0,0,.1,2.8c.1.6.2.9.5.9h1.3c.3,0,.3.1.3.2v.7a.28.28,0,0,1-.24.3h-.06c-.3,0-1.8-.1-4-.1-1.9,0-3.2.1-3.6.1a.27.27,0,0,1-.3-.24.06.06,0,0,1,0-.06v-.6a.26.26,0,0,1,.23-.3h1.47c.3,0,.5-.1.5-.7,0-1,.1-2,.1-3v-4.6Zm1.1-8.1a1.9,1.9,0,0,1-2-1.8h0a2,2,0,0,1,2.18-1.81h0a1.8,1.8,0,0,1,1.9,1.69h0a1.9,1.9,0,0,1-1.87,1.91Z"/>
  <path d="M170.66,15.72c.3-.1.5-.3.7-.3s.3.1.4.4l.3,1.7h.2a5,5,0,0,1,1.6-1.3,4.64,4.64,0,0,1,2.6-.8,4.48,4.48,0,0,1,2.9.8,3.82,3.82,0,0,1,1.8,3.4v8c0,.7.4.9.8.9h.9c.3,0,.4.1.4.2v.8c0,.2-.1.2-.3.2s-1.2-.1-3.6-.1c-2,0-3,.1-3.2.1s-.3-.1-.3-.4v-.6c0-.2.1-.3.4-.3h.7c.3,0,.5-.2.6-.8a29.19,29.19,0,0,0,.1-3.1v-3.8c0-1.3-.1-2.2-.9-2.8a2.52,2.52,0,0,0-2-.6,2.82,2.82,0,0,0-2.1.9,3.34,3.34,0,0,0-.7,2.3v6.9c0,.7.2,1.1.6,1.1h.6c.3,0,.3.1.3.3v.6a.28.28,0,0,1-.24.3h-.06c-.2,0-1.1-.1-3.1-.1s-3.1.1-3.3.1-.2-.1-.2-.3v-.6a.26.26,0,0,1,.23-.3h.77c.4,0,.9-.1.9-.7v-7.4a2,2,0,0,0-1.4-1.9l-.3-.1q-.3-.15-.3-.3v-.3a.31.31,0,0,1,.3-.3Z"/>
  <path d="M186.46,37.42a2.74,2.74,0,0,1-1.6-2.6c0-1.8,1.8-3,3.4-3.7v-.2a2.61,2.61,0,0,1-2.2-2.4c0-1.8,1.8-2.9,2.8-3.3v-.1a5.37,5.37,0,0,1-2.8-4.9c0-2.2,1.8-4.8,6.1-4.8a5.8,5.8,0,0,1,4.5,1.9,5.27,5.27,0,0,1,2.8-1.2c1.2,0,1.8.7,1.7,1.6a1.32,1.32,0,0,1-1.3,1.3,1.37,1.37,0,0,1-1-.5c-.3-.2-.5-.4-.8-.4a1.33,1.33,0,0,0-.8.2,5.15,5.15,0,0,1,.4,2.2,5,5,0,0,1-1.4,3.6,5.8,5.8,0,0,1-4.2,1.5,13.36,13.36,0,0,1-1.9-.1c-.6.3-1.4.9-1.4,1.6,0,1.3,1.2,1.3,4.1,1.2,2.5-.1,4.1.1,5.6,1.2a3.84,3.84,0,0,1,1.6,3.2,4.72,4.72,0,0,1-2,3.8,9.81,9.81,0,0,1-6.4,1.8A10.44,10.44,0,0,1,186.46,37.42Zm3.3-5.9a3,3,0,0,0-2,2.6,3.09,3.09,0,0,0,1.2,2.3,6.6,6.6,0,0,0,3.8.8c1.7,0,4.5-1,4.5-2.9s-1.4-3.1-4.5-3Zm4.5-11.6a4.57,4.57,0,0,0-.7-2.6,1.77,1.77,0,0,0-1.5-.7,2.14,2.14,0,0,0-1.8.8,6.32,6.32,0,0,0-.9,3.7,3.82,3.82,0,0,0,.8,2.6,2.38,2.38,0,0,0,1.9.7c1.7.1,2.2-2.2,2.2-4.5Z"/>
  <path d="M202.56,27.62a2.25,2.25,0,0,1,2.29-2.21H205a2.17,2.17,0,0,1,2.2,2.15v.15a2.17,2.17,0,0,1-2.12,2.2H205a2.23,2.23,0,0,1-2.4-2A2.43,2.43,0,0,1,202.56,27.62Z"/>
</svg>
