<svg xmlns="http://www.w3.org/2000/svg" viewBox="0 0 216 40" height="40">
  <path d="M24.56,17.43c0-1,0-9.1-.1-9.3h-.1c-.3.5-4.4,10.1-4.8,10.9-.5,1.1-3.8,8.8-4,9.1s-.4.7-.7.7-.4-.2-.5-.6c-.1-.2-4.4-10.5-4.6-11-.6-1.5-3.6-8.9-4-9.3-.1.5-.2,8.8-.2,9.1s0,6,.2,8.1c.1,1.7.5,3,1.5,3h1.4c.2,0,.3.1.3.2v.8a.32.32,0,0,1-.3.3c-.3,0-1.2-.1-3.8-.1-2.8,0-3.9.1-4.3.1s-.3-.1-.3-.3v-.8c0-.1,0-.2.2-.2H2c1.1,0,1.5-1.2,1.6-2.3.3-2.3.5-10.4.5-11V9.13c0-1.2-.2-1.9-1.6-1.9H1.16c-.2,0-.3-.1-.3-.2v-.9c0-.1.1-.2.3-.2s1.2.1,4.7.1c1.6,0,2.5-.1,2.9-.1s.6.1.8.6c1.2,3.1,5.8,14,6.8,16.7.3-.6,2.6-6,3.5-8,.6-1.4,3.6-8.2,3.7-8.8.1-.3.5-.4,1.3-.4,4.8,0,5.9-.1,6.3-.1.1,0,.2.1.2.3v.7a.28.28,0,0,1-.24.3H29.66c-.9,0-.9.6-1,1.3V19c0,2,.1,6.8.1,7.3,0,1.3.3,1.8.9,1.8h1.8c.2,0,.2.1.2.2v.8c0,.2,0,.3-.3.3s-2-.1-4.9-.1c-3.2,0-4.5.1-4.9.1a.26.26,0,0,1-.3-.24.06.06,0,0,1,0-.06v-.8a.27.27,0,0,1,.23-.3h2.07c.6,0,.9-.2,1-1.2,0-.3.1-5.1.1-7.7v-1.7Z"/>
  <path d="M47.06,17.13a7.37,7.37,0,0,1,2.3,5.2,7.9,7.9,0,0,1-2,5,7.25,7.25,0,0,1-5.5,2.4,6.33,6.33,0,0,1-5.3-2.4,7.09,7.09,0,0,1-1.8-5.1,7.35,7.35,0,0,1,2.8-5.5,7.2,7.2,0,0,1,4.7-1.6A7.51,7.51,0,0,1,47.06,17.13Zm-1.8,5.1c0-3.6-1.9-5.7-3.4-5.7a2.7,2.7,0,0,0-2.1.9c-1,1.2-1.4,2.5-1.4,4.9a7.63,7.63,0,0,0,1,4.6,2.79,2.79,0,0,0,2.6,1.4C44.16,28.33,45.26,25.63,45.26,22.23Z"/>
  <path d="M54.16,20.83c0-1.5-.3-2-1.2-2.6l-.6-.3c-.2-.1-.3-.1-.3-.3v-.2q0-.15.3-.3l4-1.9a.85.85,0,0,1,.5-.1c.2,0,.3.2.3.4l.3,2.4h.1c1.1-1.8,2.5-3,3.9-3a1.55,1.55,0,0,1,1.69,1.39,1.48,1.48,0,0,1,0,.21,2,2,0,0,1-1.8,1.8,1.59,1.59,0,0,1-1.1-.3,1.64,1.64,0,0,0-.9-.3,1.77,1.77,0,0,0-1.4,1,3.42,3.42,0,0,0-.4,1.6v6.3c0,1.1.3,1.4.9,1.4h1.4c.2,0,.3.1.3.2V29c0,.2-.1.2-.2.2s-1.7-.1-4.1-.1-3.6.1-3.8.1-.2-.1-.2-.2v-.7a.27.27,0,0,1,.23-.3h1.27a.85.85,0,0,0,.9-.78v-.12Z"/>
  <path d="M68,22c0,3.4,2.4,5.3,4.3,5.3a4.69,4.69,0,0,0,4-1.9.41.41,0,0,1,.4-.2l.5.3c.2.1.2.2,0,.7a6.51,6.51,0,0,1-6,3.5c-2.1,0-3.6-.5-4.7-1.8a7.36,7.36,0,0,1-1.8-5.4,7,7,0,0,1,1.6-4.9c1.4-1.8,2.9-2.4,5.7-2.4,3.8,0,5,3.9,5,5.3,0,.5-.3.5-.9.5h-8Zm4-2.2c.7,0,1.1-.2,1.1-.5,0-1-.3-2.9-2-2.9s-2.6,1.2-3,3.4Z"/>
  <path d="M89.26,20.83c0-1.5-.3-2-1.2-2.6l-.6-.3c-.2-.1-.3-.1-.3-.3v-.2q0-.15.3-.3l4-1.9a.85.85,0,0,1,.5-.1c.2,0,.3.2.3.4l.3,2.4h.1c1.1-1.8,2.5-3,3.9-3a1.55,1.55,0,0,1,1.69,1.39,1.48,1.48,0,0,1,0,.21,2,2,0,0,1-1.8,1.8,1.59,1.59,0,0,1-1.1-.3,1.64,1.64,0,0,0-.9-.3,1.77,1.77,0,0,0-1.4,1,3.42,3.42,0,0,0-.4,1.6v6.3c0,1.1.3,1.4.9,1.4H95c.2,0,.3.1.3.2V29c0,.2-.1.2-.2.2s-1.7-.1-4.1-.1-3.6.1-3.8.1-.2-.1-.2-.2v-.7a.27.27,0,0,1,.23-.3h1.27a.85.85,0,0,0,.9-.78V20.83Z"/>
  <path d="M103.06,22c0,3.4,2.4,5.3,4.3,5.3a4.69,4.69,0,0,0,4-1.9.41.41,0,0,1,.4-.2l.5.3c.2.1.2.2,0,.7a6.51,6.51,0,0,1-6,3.5c-2.1,0-3.6-.5-4.7-1.8a7.36,7.36,0,0,1-1.8-5.4,7,7,0,0,1,1.6-4.9c1.4-1.8,2.9-2.4,5.7-2.4,3.8,0,5,3.9,5,5.3,0,.5-.3.5-.9.5h-8Zm4-2.2c.7,0,1.1-.2,1.1-.5,0-1-.3-2.9-2-2.9s-2.6,1.2-3,3.4Z"/>
  <path d="M122.36,27.73a7,7,0,0,1-2.9,1.8,7.84,7.84,0,0,1-2.1.2c-1.2,0-2.3-1-2.3-2.8,0-1.5.7-3,3-4,2-1,3.3-1.5,4-2v-1.8a3.26,3.26,0,0,0-.5-1.8,1.92,1.92,0,0,0-1.6-.5,3.3,3.3,0,0,0-1.9.6c-.5.3-.1.8-.1,1.6,0,1.2-.6,1.9-2,1.9a1,1,0,0,1-1.1-.89.74.74,0,0,1,0-.21,3.41,3.41,0,0,1,1.5-2.7,8.47,8.47,0,0,1,5.3-1.8,3.9,3.9,0,0,1,3,.9,3.29,3.29,0,0,1,.8,2.5l.1,5.2v1.6c0,1.8.3,2.3.9,2.3a1.66,1.66,0,0,0,1.1-.5c.1-.2.2-.2.3-.1l.4.3a.4.4,0,0,1,.1.5,3.23,3.23,0,0,1-3,1.9,2.83,2.83,0,0,1-2.8-2h-.2v-.2Zm-.2-5.7c-1.4.9-3.6,1.5-3.6,3.9,0,1.3.7,2,1.5,2s2.1-1,2.1-1.6Z"/>
  <path d="M143.66,23.93a8.9,8.9,0,0,0,.3,2.9,2.2,2.2,0,0,0,1.4.6c.5,0,.6.1.7.2l.1.4c.1.2,0,.3-.2.4l-4.4,1.2c-.2.1-.4-.1-.5-.3l-.5-1.5a7.3,7.3,0,0,1-4.6,1.9,5.36,5.36,0,0,1-3.9-1.6,5.93,5.93,0,0,1-2-4.8,8.22,8.22,0,0,1,2.3-6,6.32,6.32,0,0,1,4.9-2.1,9.11,9.11,0,0,1,3.1.5l-.1-6.4c0-1.1-.3-1.6-2.1-1.9-.2-.1-.3-.1-.3-.3v-.6q0-.15.3-.3c1.6-.2,3.8-.4,4.7-.6a3,3,0,0,1,.9-.1c.1,0,.3.2.2.6-.1,1.6-.1,6.4-.1,10.6v7.2Zm-3.5-4.3a4.83,4.83,0,0,0-.3-1.6,3.34,3.34,0,0,0-2.9-1.5,2.85,2.85,0,0,0-2.3,1,5.86,5.86,0,0,0-1.3,3.9c0,3.8,2,6.4,4,6.4a3,3,0,0,0,2.5-1.2,2.92,2.92,0,0,0,.3-1.3Z"/>
  <path d="M150.06,19.93c0-1-.2-1.6-1.7-2-.3-.1-.3-.2-.3-.3v-.4c0-.1.1-.2.2-.3.5-.2,3.7-1.3,4.3-1.6a3,3,0,0,1,.8-.2c.2,0,.3.1.3.4-.1.5-.1,2.6-.1,5.4v3.6a18.73,18.73,0,0,0,.1,2.8c.1.6.2.9.5.9h1.3c.3,0,.3.1.3.2v.7a.28.28,0,0,1-.24.3h-.06c-.3,0-1.8-.1-4-.1-1.9,0-3.2.1-3.6.1a.26.26,0,0,1-.3-.24.06.06,0,0,1,0-.06v-.6a.27.27,0,0,1,.23-.3h1.47c.3,0,.5-.1.5-.7,0-1,.1-2,.1-3v-4.6Zm1.1-8.1a1.9,1.9,0,0,1-2-1.8h0a2,2,0,0,1,2.18-1.8h0a1.8,1.8,0,0,1,1.9,1.69h0a1.9,1.9,0,0,1-1.87,1.91Z"/>
  <path d="M161.86,15.43c.3-.1.5-.3.7-.3s.3.1.4.4l.3,1.7h.2a5,5,0,0,1,1.6-1.3,4.64,4.64,0,0,1,2.6-.8,4.54,4.54,0,0,1,2.9.8,3.82,3.82,0,0,1,1.8,3.4v8c0,.7.4.9.8.9h.9c.3,0,.4.1.4.2v.8c0,.2-.1.2-.3.2s-1.2-.1-3.6-.1c-2,0-3,.1-3.2.1s-.3-.1-.3-.4v-.6c0-.2.1-.3.4-.3h.7c.3,0,.5-.2.6-.8a29.19,29.19,0,0,0,.1-3.1v-3.8c0-1.3-.1-2.2-.9-2.8a2.52,2.52,0,0,0-2-.6,2.82,2.82,0,0,0-2.1.9,3.34,3.34,0,0,0-.7,2.3v6.9c0,.7.2,1.1.6,1.1h.6c.3,0,.3.1.3.3v.6a.28.28,0,0,1-.24.3h-.06c-.2,0-1.1-.1-3.1-.1s-3.1.1-3.3.1-.2-.1-.2-.3v-.6a.27.27,0,0,1,.23-.3h.77c.4,0,.9-.1.9-.7v-7.4a2,2,0,0,0-1.4-1.9l-.3-.1q-.3-.15-.3-.3v-.3a.32.32,0,0,1,.3-.3Z"/>
  <path d="M177.66,37.13a2.73,2.73,0,0,1-1.6-2.6c0-1.8,1.8-3,3.4-3.7v-.2a2.61,2.61,0,0,1-2.2-2.4c0-1.8,1.8-2.9,2.8-3.3v-.1a5.36,5.36,0,0,1-2.8-4.9c0-2.2,1.8-4.8,6.1-4.8a5.8,5.8,0,0,1,4.5,1.9,5.35,5.35,0,0,1,2.8-1.2c1.2,0,1.8.7,1.7,1.6a1.32,1.32,0,0,1-1.3,1.3,1.37,1.37,0,0,1-1-.5c-.3-.2-.5-.4-.8-.4a1.33,1.33,0,0,0-.8.2,5.63,5.63,0,0,1-1,5.8,5.71,5.71,0,0,1-4.2,1.5,12,12,0,0,1-1.9-.1c-.6.3-1.4.9-1.4,1.6,0,1.3,1.2,1.3,4.1,1.2,2.5-.1,4.1.1,5.6,1.2a3.85,3.85,0,0,1,1.6,3.2,4.72,4.72,0,0,1-2,3.8,9.75,9.75,0,0,1-6.4,1.8A10.44,10.44,0,0,1,177.66,37.13Zm3.3-5.9a3,3,0,0,0-2,2.6,3.08,3.08,0,0,0,1.2,2.3,6.6,6.6,0,0,0,3.8.8c1.7,0,4.5-1,4.5-2.9s-1.4-3.1-4.5-3Zm4.5-11.6a4.57,4.57,0,0,0-.7-2.6,1.83,1.83,0,0,0-1.5-.7,2.14,2.14,0,0,0-1.8.8,6.32,6.32,0,0,0-.9,3.7,3.82,3.82,0,0,0,.8,2.6,2.35,2.35,0,0,0,1.9.7C185,24.23,185.46,21.93,185.46,19.63Z"/>
  <path d="M193.76,27.33a2.25,2.25,0,0,1,2.29-2.21h.11a2.18,2.18,0,0,1,2.2,2.16v.14a2.16,2.16,0,0,1-2.12,2.2h-.08a2.23,2.23,0,0,1-2.4-2A2.43,2.43,0,0,1,193.76,27.33Z"/>
</svg>
