<svg xmlns="http://www.w3.org/2000/svg" viewBox="0 0 216 40" height="40">
  <path d="M35,1.5s3.1,2.2,4.9,3.8c-.1.5-.6.7-1.2.7H22.4a59.49,59.49,0,0,1-4.9,6.8H32.1L34,10.6l4.3,3.3a3.75,3.75,0,0,1-1.8.9V34.6c0,3-.6,4.7-5,5.2a7.41,7.41,0,0,0-.7-3,3.83,3.83,0,0,0-2.7-1.4v-.6s2.9.2,3.7.2c.6,0,.8-.3.8-.8V14.1H26.7V36.7c0,.3-1.2,1.1-3.1,1.1h-.7V14.1H17V37.4c0,.3-1.2,1-3.1,1h-.6V14.1H7.5V38.4c0,.4-1.6,1.4-3.3,1.4H3.6V11.1l4.3,1.8h8.2c.3-1.9.7-4.6,1-6.8H.8L.4,4.8h32Z"/>
  <path d="M69.5,35.3c1,.1,2.1.1,3.3.1,3.2,0,10.9,0,14.3-.1v.6c-1.4.3-2,1.6-2.1,3.2H72.7c-7.7,0-12-1.6-14.6-8.4a21.85,21.85,0,0,1-10.8,9.2l-.4-.5c6-4.2,8.4-10.8,9.2-16.4L62,24.2c-.2.6-.6.9-1.6.9a21.58,21.58,0,0,1-1.8,4.5,9.2,9.2,0,0,0,6.7,5V21.1H47.8l-.4-1.3H79.9l2.5-3.2s2.8,2.2,4.4,3.8c-.1.5-.6.7-1.2.7H69.5V27H76l2.6-3.4s2.8,2.3,4.6,3.9c-.1.5-.6.7-1.2.7H69.5ZM59,17.2c0,.4-1.9,1.3-3.6,1.3h-.7V1.1l4.5,1.8H75.1L77.2.7,81.6,4a3.75,3.75,0,0,1-1.8.9v12c0,.3-2.2,1.1-3.5,1.1h-.7V15.8H59ZM59,4.1V8.8H75.6V4.2H59ZM75.5,14.7V10H59v4.7Z"/>
  <path d="M99.7,11.9V38.4c0,.5-1.3,1.5-3,1.5h-.6V.8l3.8,1.8H108L109.7.8l3.7,2.8a3.33,3.33,0,0,1-1.6.8v8c0,.3-1.8.9-2.9.9h-.6V11.9Zm0-8.1V6.7h8.7V3.8Zm8.7,6.8V7.9H99.7v2.7Zm16.7,21.6c.9.3,1.1.7,1.1,1.3,0,1.2-1.1,1.7-5.6,1.7H118c-2.8,0-3.2-.7-3.2-2.7V27.6H113c-1.2,5.4-5,7.9-11.8,9.2l-.2-.7c5.4-1.8,7.6-4.3,8.4-8.5h-.5v.5c0,.3-1.5,1-2.9,1h-.5V20.2a34.78,34.78,0,0,1-5.3,1.5l-.3-.6c3.7-1.8,8-4.9,10-7.6l4.4,2.6c-.3.4-.7.5-1.4.3a23,23,0,0,1-5.9,3.2l2.1.9h9.1l1.6-1.7,3.5,2.6a1.64,1.64,0,0,1-1.3.6v5.4c0,.3-1.7,1.1-2.8,1.1h-.6v-.9h-.4v4.3c0,.4.1.6.9.6h3.7a.71.71,0,0,0,.6-.3,16.27,16.27,0,0,0,1.1-3.4h.5Zm-16.2-5.9h9.6V21.6h-9.6ZM116,14c12.9,2.3,11.8,9.7,7.9,8.1-1.6-2.6-5.5-5.9-8.3-7.7ZM133.5,3.5a4.25,4.25,0,0,1-1.8.9v31c0,2.6-.6,4-5.4,4.4-.2-1-.4-1.8-1.1-2.2a9,9,0,0,0-4-1.2v-.6s4.8.3,5.8.3,1.1-.3,1.1-1V11.9h-8.7v.5c0,.3-1.6,1.1-3,1.1h-.5V.9l3.8,1.6h8L129.5.4Zm-14.1.3V6.7h8.7V3.8Zm8.6,6.8V7.9h-8.7v2.7Z"/>
  <path d="M154.3,5.8s2.3,1.8,3.6,3a1,1,0,0,1-1.1.7H141.5l-.3-1.2h11.2Zm-3.3,8,1.8-2.3a40.67,40.67,0,0,1,3.4,2.9,1,1,0,0,1-1.1.7H143.2l-.3-1.2H151Zm1.8,3.2a40.67,40.67,0,0,1,3.4,2.9,1,1,0,0,1-1.1.7H143.2l-.3-1.2H151Zm2.4,19.7c0,.3-1.7,1.1-2.9,1.1h-.6V35.7h-5v2.6c0,.3-1.5,1.2-2.9,1.2h-.5V23.2l3.6,1.6h4.5l1.8-1.9,3.8,2.9a3.87,3.87,0,0,1-1.7.8V36.7ZM145.4.8c9.8,1.3,6.5,8.5,2.8,6A13.46,13.46,0,0,0,145,1.1Zm6.4,33.7V26h-5.1v8.5Zm2.8,4.8a45.59,45.59,0,0,0,9.4-6.8l4.2,2.9c-.3.4-.7.6-1.6.3a47.94,47.94,0,0,1-11.5,4.1ZM156.4,4h9.7V.2l5.1.5c-.1.6-.4,1-1.5,1.2V4h5.1l2.1-2.6s2.3,1.8,3.8,3.2c-.1.5-.5.7-1.1.7h-9.9V8.4h3.4l2-2.4s2.2,1.7,3.6,3c-.1.5-.5.7-1.1.7H158.5l-.3-1.2h7.9V5.4h-9.4Zm20.8,6,3.5,2.6a2,2,0,0,1-1.3.6v5.3c0,.3-1.8,1-2.9,1h-.1l2.5,1.9a2,2,0,0,1-1.4.7V32.2c0,.3-1.8,1.2-3,1.2h-.6V32.2H162.3v.7c0,.3-1.2,1.1-2.9,1.1h-.7V19.9a4,4,0,0,1-1.2.1h-.6V10.1l3.7,1.5h14.9Zm-1.3,9.2v-.9H160.4V19c0,.1-.2.3-.6.5l2.7,1.1h10.9l1.8-1.8Zm-15.5-6.3V17h3.5V12.9ZM162.3,24h11.6V21.8H162.3Zm0,3.6h11.6V25.3H162.3Zm11.6,3.5V28.8H162.3v2.3Zm-4-14.1V12.9h-3.3V17Zm-.5,16.3c16.7,1.7,10.1,9,7,5.8a18.45,18.45,0,0,0-7.2-5.2Zm3.2-20.4V17h3.3V12.9Z"/>
  <path d="M191.3,20a6.05,6.05,0,1,1,6,6.05A6.05,6.05,0,0,1,191.3,20Zm1.6,0a4.49,4.49,0,0,0,4.46,4.5h0a4.5,4.5,0,1,0-4.5-4.5Z"/>
</svg>
