<svg width="360" height="573" viewBox="0 0 360 573" fill="none" xmlns="http://www.w3.org/2000/svg">
<path fill-rule="evenodd" clip-rule="evenodd" d="M275.746 240.072L191.292 310.937C160.399 336.86 119.917 343.843 83.9599 333.121L168.414 262.256C199.307 236.334 239.789 229.351 275.746 240.072ZM276.662 239.304C240.237 228.219 199.112 235.192 167.771 261.49L82.8177 332.774C62.347 326.439 43.3997 314.339 28.6017 296.704C-12.3936 247.847 -6.02096 175.008 42.8353 134.013L168.416 28.6388C217.272 -12.3565 290.111 -5.98383 331.106 42.8724C372.101 91.7286 365.729 164.568 316.872 205.563L276.662 239.304ZM277.798 239.656L317.515 206.329C366.794 164.979 373.222 91.5089 331.872 42.2296C290.522 -7.04969 217.052 -13.4775 167.773 27.8727L42.1925 133.247C-7.08682 174.597 -13.5146 248.067 27.8356 297.346C42.6139 314.958 61.4949 327.097 81.9078 333.538L42.1905 366.864C-7.08877 408.215 -13.5166 481.684 27.8337 530.964C69.1839 580.243 142.654 586.671 191.933 545.32L317.513 439.946C366.792 398.596 373.22 325.126 331.87 275.847C317.092 258.235 298.211 246.096 277.798 239.656ZM276.888 240.419L191.935 311.703C160.594 338.001 119.469 344.974 83.044 333.89L42.8333 367.63C-6.02291 408.626 -12.3955 481.465 28.5997 530.321C69.595 579.177 142.434 585.55 191.29 544.554L316.87 439.18C365.727 398.185 372.099 325.346 331.104 276.49C316.306 258.854 297.359 246.754 276.888 240.419Z" fill="#4A4A4A"/>
</svg>
