<svg xmlns="http://www.w3.org/2000/svg" viewBox="0 0 160.13 160.13" width="64">
   <path d="M96.23,88a7.09,7.09,0,0,1,5.63,2.63,7.9,7.9,0,0,1-5.63,13.53H63.52a8,8,0,0,1-5.63-13.53A7.09,7.09,0,0,1,63.52,88ZM63.52,63.9a7.9,7.9,0,1,1,0-15.79h21a7.9,7.9,0,1,1,0,15.79Zm48.49,0V48.11a23.12,23.12,0,0,0-7.14-16.91A23.12,23.12,0,0,0,88,24.06H56A23.12,23.12,0,0,0,39.09,31.2,23.12,23.12,0,0,0,32,48.11v56A23.1,23.1,0,0,0,39.09,121,23.09,23.09,0,0,0,56,128.18h48.11a24.42,24.42,0,0,0,24.06-24.06V80.06a7.72,7.72,0,0,0-7.9-7.89,8.94,8.94,0,0,1-6-2.26A9,9,0,0,1,112,63.9ZM144.34,0a14.3,14.3,0,0,1,10.9,4.89,14.28,14.28,0,0,1,4.89,10.9V144.34a15.5,15.5,0,0,1-4.89,11.28,14.88,14.88,0,0,1-10.9,4.51H15.79a16.17,16.17,0,0,1-11.28-4.51A16.13,16.13,0,0,1,0,144.34V15.79A14.83,14.83,0,0,1,4.51,4.89,15.5,15.5,0,0,1,15.79,0Z" fill="#ff5722"/>
   <path d="M52.61,127.81c-7.47-1-14.78-6.44-18.27-13.68-2.26-4.71-2.11-2-2.11-37.9,0-30.37,0-32.06.53-33.94A25.08,25.08,0,0,1,50.33,24.83c2.24-.62,2.47-.63,21.5-.64s19.25,0,21.73.63a25.17,25.17,0,0,1,15.87,12.94c2.18,4.42,2.2,4.54,2.39,17.11L112,66.05l.73,1.55c1.42,3,3.24,4.15,7.38,4.69,3.1.4,4.42.93,5.76,2.31,2.06,2.12,2,1.29,2,18.46,0,15.38,0,15.42-.66,17.52a24.54,24.54,0,0,1-7,11,22.73,22.73,0,0,1-12.93,6.21c-2.7.38-51.67.36-54.61,0Zm46.93-24.25A7.66,7.66,0,0,0,103.3,100a6.49,6.49,0,0,0,.76-3.85,6.9,6.9,0,0,0-2.39-5.91C99.33,87.85,100.52,88,79.87,88H61.61l-1.45.72a8.18,8.18,0,0,0-4.53,7,7.6,7.6,0,0,0,4.23,7.72l1.47.73H79.87c17.33,0,18.62,0,19.67-.52ZM88,63.25A7.35,7.35,0,0,0,92.46,56,7.4,7.4,0,0,0,88,48.75l-1.42-.66H74.21c-14.2,0-14.18,0-16.42,2.29a7.6,7.6,0,0,0-2.23,5.77,8,8,0,0,0,4.94,7.32c.92.33,3.54.41,13.59.43l12.44,0L88,63.25Z" fill="#fff"/>
</svg>
