<svg xmlns="http://www.w3.org/2000/svg" xmlns:xlink="http://www.w3.org/1999/xlink" width="64" viewBox="0 0 64 64">
  <defs>
    <linearGradient id="a" x1="61.74" y1="741.55" x2="6.3" y2="794.59" gradientTransform="matrix(1, 0, 0, -1, 0, 802)" gradientUnits="userSpaceOnUse">
      <stop offset="0" stop-color="#faaa00"/>
      <stop offset="1" stop-color="#be236e"/>
    </linearGradient>
  </defs>
  <rect width="64" height="64" fill="url(#a)"/>
  <path d="M51.5,21.85l1-.53a4.46,4.46,0,0,0,1.38,2l-.85.76A6.46,6.46,0,0,1,51.5,21.85Zm-.59-2.12A4.12,4.12,0,0,1,49,23.08l.64.89a5.3,5.3,0,0,0,2.38-3.92Zm-5.39,2.1A5.85,5.85,0,0,0,46.94,24l.82-.8a4.29,4.29,0,0,1-1.24-1.83Zm-2.45,1.25c.17.25.45.65.64.89a5.32,5.32,0,0,0,2.37-3.92l-1.15-.31A4.18,4.18,0,0,1,43.07,23.08ZM53.6,18.64c-.22-.76-.26-.91-.35-1.21a43,43,0,0,1-10,.91s.09.67.15,1.08c1.33,0,2.85,0,4.31,0v4.93H49v-5A22.56,22.56,0,0,0,53.6,18.64Zm-9.84-4.72.1,3.36H53l.12-3.36Zm2.8,2.32H45V15h1.6Zm2.72,0h-1.6V15h1.6Zm2.72,0H50.4V15H52ZM9.28,43.53,11,49.67c.68-.25,14.09-4.74,28.17-1.7v-6.5a59,59,0,0,0-10.61-1,62.08,62.08,0,0,0-19.3,3M30,24.79A62.52,62.52,0,0,0,46.77,49.67l4.45-4.58c-.56-.47-11.16-9.84-15.56-23.55L30,24.79m-15.49,13c1,.59,5.63,3.25,5.63,3.25A62.75,62.75,0,0,0,33.34,14.13l-6.19-1.57c-.12.72-2.94,14.58-12.61,25.25" fill="#fff"/>
</svg>
