<svg width="85" height="68" viewBox="0 0 85 68" fill="none" xmlns="http://www.w3.org/2000/svg">
<path fill-rule="evenodd" clip-rule="evenodd" d="M0 45.8132V49.2262H70.2919L60.6371 65.9041L83.4025 49.2262V45.8132H0Z" fill="#F29100"/>
<path fill-rule="evenodd" clip-rule="evenodd" d="M0 29.2588V31.0645C0.471011 30.7064 1.05687 30.4912 1.69435 30.4912C3.02834 30.4912 4.14264 31.4229 4.4275 32.6708H35.7233C36.0475 31.4794 37.1337 30.6025 38.4274 30.6025C39.7214 30.6025 40.8079 31.4794 41.1318 32.6708H83.4025V29.2588H0Z" fill="#F29100"/>
<path fill-rule="evenodd" clip-rule="evenodd" d="M37.0322 35.7288V43.2606H39.7705V35.7613C39.3744 35.9881 38.9176 36.1201 38.4285 36.1201C37.9175 36.1201 37.4413 35.9756 37.0322 35.7288Z" fill="#E95A0C"/>
<path fill-rule="evenodd" clip-rule="evenodd" d="M0.388428 35.7837V43.2607H3.12706V35.7073C2.7109 35.967 2.22118 36.1202 1.69532 36.1202C1.22141 36.1202 0.776205 35.9976 0.388428 35.7837Z" fill="#E95A0C"/>
<path fill-rule="evenodd" clip-rule="evenodd" d="M9.85005 35.555C9.56196 35.3595 9.1916 35.2646 8.73769 35.2646C8.37508 35.2646 8.05634 35.3359 7.77857 35.4821C7.50177 35.6263 7.26788 35.8437 7.07528 36.1341L7.12561 35.4124H4.41052V43.2607H7.07528V37.944C7.07528 37.351 7.09916 36.9868 7.14529 36.8493C7.19239 36.7148 7.30756 36.6461 7.49016 36.6461C7.66308 36.6461 7.77018 36.7051 7.80728 36.8226C7.84632 36.9416 7.866 37.2716 7.866 37.8133V43.2607H10.5304V37.7552C10.5304 37.0687 10.4888 36.5793 10.4066 36.2854C10.324 35.9915 10.1375 35.7486 9.85005 35.555Z" fill="#E95A0C"/>
<path fill-rule="evenodd" clip-rule="evenodd" d="M20.5649 35.5602C20.2687 35.363 19.8945 35.2646 19.4432 35.2646C19.0999 35.2646 18.7895 35.3376 18.5082 35.4873C18.2272 35.635 17.9753 35.8579 17.752 36.1557C17.3449 35.5611 16.7868 35.2646 16.079 35.2646C15.7157 35.2646 15.3928 35.3376 15.1076 35.4873C14.8234 35.635 14.5795 35.8579 14.3737 36.1557L14.4227 35.4124H11.8076V43.2607H14.3737V37.8065C14.3737 37.4288 14.3779 37.18 14.3875 37.0636C14.395 36.9477 14.4421 36.8477 14.5246 36.7677C14.6079 36.6851 14.7095 36.6461 14.8279 36.6461C15.0182 36.6461 15.1328 36.7235 15.175 36.8774C15.2153 37.0313 15.2373 37.4936 15.2373 38.264V43.2607H17.8043V38.1337C17.8043 37.4581 17.8324 37.0416 17.8872 36.8826C17.9437 36.7242 18.0666 36.6461 18.2582 36.6461C18.4453 36.6461 18.565 36.7251 18.6157 36.8861C18.6663 37.0468 18.6928 37.4617 18.6928 38.1337V43.2607H21.2585V37.6788C21.2585 37.0352 21.2175 36.5703 21.1346 36.2854C21.0504 35.9983 20.8623 35.7576 20.5649 35.5602Z" fill="#E95A0C"/>
<path fill-rule="evenodd" clip-rule="evenodd" d="M25.8482 38.2015H25.083V37.6208C25.083 37.1746 25.1052 36.9007 25.1481 36.7984C25.1907 36.6971 25.3027 36.6462 25.4849 36.6462C25.6311 36.6462 25.7279 36.7052 25.7763 36.8259C25.8246 36.9446 25.8482 37.2091 25.8482 37.6208V38.2015ZM27.2015 35.6464C26.717 35.3922 26.1014 35.2644 25.3575 35.2644C24.7468 35.2644 24.2084 35.3702 23.7386 35.5802C23.2692 35.7922 22.9315 36.0951 22.726 36.4936C22.5211 36.8897 22.4172 37.4324 22.4172 38.1189V40.4114C22.4172 40.9957 22.4634 41.4393 22.5553 41.7458C22.6469 42.0529 22.8124 42.3329 23.0512 42.5884C23.2905 42.8423 23.6257 43.043 24.0548 43.1891C24.4839 43.3353 24.9794 43.4082 25.5414 43.4082C26.1198 43.4082 26.6008 43.3343 26.9841 43.1866C27.368 43.0398 27.6838 42.8191 27.9339 42.5239C28.1842 42.2294 28.3429 41.9529 28.4107 41.6929C28.4781 41.4341 28.513 41.0634 28.513 40.5792V40.002H25.9963V41.0357C25.9963 41.4251 25.9621 41.6861 25.895 41.8225C25.8269 41.958 25.6933 42.0258 25.494 42.0258C25.3333 42.0258 25.2243 41.9748 25.1672 41.8713C25.1107 41.7696 25.083 41.5399 25.083 41.1834V39.4839H28.513V38.4396C28.513 37.6753 28.4162 37.0833 28.2207 36.6617C28.0252 36.2403 27.6855 35.9019 27.2015 35.6464Z" fill="#E95A0C"/>
<path fill-rule="evenodd" clip-rule="evenodd" d="M33.0861 41.028C33.0861 41.467 33.059 41.7435 33.0042 41.8555C32.9474 41.9703 32.8361 42.0261 32.6696 42.0261C32.5238 42.0261 32.4258 41.9748 32.3745 41.8739C32.3232 41.7738 32.2974 41.5625 32.2974 41.2402V37.3772C32.2974 37.0678 32.3248 36.8688 32.378 36.7791C32.4309 36.691 32.5348 36.6462 32.688 36.6462C32.8474 36.6462 32.9529 36.6946 33.0058 36.7946C33.0597 36.894 33.0861 37.0878 33.0861 37.3772V41.028ZM33.0861 35.9055C32.8639 35.6909 32.6151 35.5312 32.3428 35.4251C32.0693 35.3177 31.7696 35.2647 31.4428 35.2647C31.0172 35.2647 30.6514 35.3593 30.3472 35.5509C30.041 35.7429 29.8442 35.9635 29.7597 36.2174C29.6745 36.4697 29.631 36.8991 29.631 37.5034V41.1812C29.631 41.7606 29.6745 42.1807 29.7597 42.4371C29.8442 42.6936 30.0384 42.9198 30.3394 43.1153C30.6408 43.3111 30.9966 43.4082 31.4079 43.4082C31.715 43.4082 32.0067 43.3482 32.2864 43.2292C32.5671 43.1101 32.8326 42.9311 33.0861 42.693V43.2605H35.7519V33.6846H33.0861V35.9055Z" fill="#E95A0C"/>
<path fill-rule="evenodd" clip-rule="evenodd" d="M44.2634 41.1488C44.2634 41.5469 44.2363 41.7921 44.1873 41.8854C44.1366 41.9793 44.0282 42.026 43.8634 42.026C43.6869 42.026 43.5711 41.967 43.5111 41.847C43.453 41.7279 43.4234 41.4637 43.4234 41.055C43.4234 40.6985 43.4563 40.4239 43.5237 40.2326C43.5918 40.0419 43.8382 39.8064 44.2634 39.5241V41.1488ZM45.9665 35.6915C45.5097 35.406 44.8319 35.2646 43.9328 35.2646C43.182 35.2646 42.573 35.3908 42.1029 35.6424C41.6319 35.8944 41.3199 36.1847 41.1644 36.5158C41.0089 36.8445 40.9305 37.3139 40.9305 37.9207V38.4476H43.4234V37.6207C43.4234 37.1813 43.4463 36.9081 43.4898 36.8022C43.5343 36.6984 43.6447 36.6461 43.8244 36.6461C43.9805 36.6461 44.0928 36.709 44.1608 36.8332C44.2296 36.9574 44.2634 37.2271 44.2634 37.6401C44.2634 37.9685 44.2305 38.1869 44.1702 38.2927C44.1089 38.4008 43.6434 38.6076 42.7707 38.9154C41.9552 39.2006 41.4461 39.4493 41.2393 39.6622C41.0341 39.8761 40.9305 40.2762 40.9305 40.8666V41.5131C40.9305 42.3051 41.1241 42.8206 41.5122 43.0561C41.9003 43.2904 42.3278 43.4084 42.792 43.4084C43.1462 43.4084 43.4517 43.3371 43.7082 43.1965C43.964 43.0561 44.1747 42.8458 44.3373 42.5651V43.2607H46.9288V39.318C46.9288 38.0208 46.8814 37.1623 46.7901 36.7458C46.6962 36.3299 46.422 35.9786 45.9665 35.6915Z" fill="#E95A0C"/>
<path fill-rule="evenodd" clip-rule="evenodd" d="M53.6096 35.5826C53.2825 35.37 52.8883 35.2645 52.4237 35.2645C52.1234 35.2645 51.8379 35.3113 51.5737 35.4058C51.3085 35.5019 51.0623 35.6442 50.8358 35.8339V33.6843H48.1688V43.2605H50.8358V37.6473C50.8358 37.2486 50.8623 36.9811 50.9191 36.8476C50.9759 36.7127 51.0823 36.6459 51.2423 36.6459C51.4143 36.6459 51.5259 36.7108 51.5743 36.8414C51.6249 36.9721 51.6495 37.2657 51.6495 37.7244V43.2605H54.3149V37.8448C54.3149 37.1073 54.2781 36.5995 54.2071 36.3201C54.1345 36.0426 53.9355 35.7955 53.6096 35.5826Z" fill="#E95A0C"/>
<path fill-rule="evenodd" clip-rule="evenodd" d="M75.1055 37.6207C75.1055 37.1745 75.1281 36.901 75.1703 36.7987C75.2132 36.6974 75.3271 36.6461 75.5081 36.6461C75.6536 36.6461 75.7514 36.7051 75.8004 36.8261C75.8478 36.9445 75.8717 37.2094 75.8717 37.6207V38.2014H75.1055V37.6207ZM73.0753 42.5884C73.3147 42.8423 73.6486 43.0432 74.0777 43.1891C74.5064 43.3352 75.0035 43.4081 75.5649 43.4081C76.1433 43.4081 76.6247 43.3342 77.0073 43.1865C77.3909 43.0397 77.7077 42.819 77.9587 42.5242C78.2074 42.2293 78.3655 41.9528 78.4335 41.6931C78.5023 41.434 78.5358 41.0633 78.5358 40.5791V40.0019H76.0191V41.0356C76.0191 41.425 75.9862 41.686 75.9188 41.8225C75.8517 41.958 75.7168 42.026 75.5168 42.026C75.3555 42.026 75.2471 41.9747 75.192 41.8712C75.1345 41.7696 75.1055 41.5399 75.1055 41.1834V39.4838H78.5358V38.4398C78.5358 37.6752 78.4393 37.0832 78.2442 36.6616C78.0487 36.2406 77.709 35.9018 77.2238 35.6463C76.7405 35.3924 76.1249 35.2646 75.3804 35.2646C74.7709 35.2646 74.2309 35.3701 73.7615 35.5802C73.294 35.7924 72.955 36.0951 72.7488 36.4935C72.5436 36.8897 72.4407 37.4323 72.4407 38.1188V40.4113C72.4407 40.9956 72.4862 41.4392 72.5788 41.746C72.6714 42.0528 72.8359 42.3328 73.0753 42.5884Z" fill="#E95A0C"/>
<path fill-rule="evenodd" clip-rule="evenodd" d="M79.8772 40.829C79.8772 41.6094 79.9011 42.1059 79.9498 42.3172C79.9962 42.5275 80.1198 42.7156 80.3156 42.8789C80.5131 43.0415 80.7398 43.1476 80.9983 43.1928C81.2551 43.2379 81.6861 43.2605 82.2893 43.2605H83.3565V42.0007C82.93 42.0007 82.6881 41.972 82.63 41.9129C82.5716 41.8529 82.5432 41.5642 82.5432 41.048V36.8434H83.233V35.6097H82.5432V34.3499H79.8772V35.6097H79.3081V36.8434H79.8772V40.829Z" fill="#E95A0C"/>
<path fill-rule="evenodd" clip-rule="evenodd" d="M61.0725 42.212C61.0725 42.0391 61.1002 41.873 61.1406 41.7113L60.194 38.5336L61.2799 35.4123H59.072L58.2319 37.7015L58.2206 33.6843H55.5546V43.2605H58.2206L58.2319 39.836L59.072 43.2605H61.3667C61.1841 42.9518 61.0725 42.5963 61.0725 42.212Z" fill="#E95A0C"/>
<path fill-rule="evenodd" clip-rule="evenodd" d="M67.8083 37.944C67.8083 37.351 67.8316 36.9868 67.8764 36.8493C67.9248 36.7145 68.0397 36.6461 68.2216 36.6461C68.3961 36.6461 68.502 36.7051 68.54 36.8226C68.5784 36.9416 68.5971 37.2716 68.5971 37.813V43.2604H71.2632V37.7552C71.2632 37.0687 71.2216 36.5793 71.1383 36.2851C71.0557 35.9912 70.8712 35.7482 70.5822 35.555C70.2947 35.3592 69.9231 35.2646 69.4698 35.2646C69.1081 35.2646 68.7894 35.3359 68.5116 35.4821C68.2348 35.6263 67.9993 35.8437 67.8083 36.1341L67.8567 35.4124H65.1429V41.726C65.1813 41.8825 65.2071 42.0441 65.2071 42.2119C65.2071 42.3806 65.1813 42.5422 65.1429 42.699V43.2604H67.8083V37.944Z" fill="#E95A0C"/>
<mask id="mask0" mask-type="alpha" maskUnits="userSpaceOnUse" x="60" y="49" width="24" height="17">
<path fill-rule="evenodd" clip-rule="evenodd" d="M60.6371 49.2258H83.4025V65.9038H60.6371V49.2258Z" fill="white"/>
</mask>
<g mask="url(#mask0)">
<path fill-rule="evenodd" clip-rule="evenodd" d="M70.2922 49.2258L60.6371 65.9038L83.4027 49.2258H70.2922Z" fill="#E95A0C"/>
</g>
<mask id="mask1" mask-type="alpha" maskUnits="userSpaceOnUse" x="0" y="31" width="4" height="5">
<path fill-rule="evenodd" clip-rule="evenodd" d="M0 31.7141H3.38899V35.1019H0V31.7141Z" fill="white"/>
</mask>
<g mask="url(#mask1)">
<path fill-rule="evenodd" clip-rule="evenodd" d="M1.69532 31.7141C1.20463 31.7141 0.765231 31.927 0.455203 32.2616C0.1755 32.5639 0 32.9646 0 33.4075C0 33.8137 0.149368 34.1812 0.388423 34.4731C0.539727 34.6586 0.727486 34.8103 0.94428 34.9187C1.17172 35.0322 1.42432 35.1019 1.69532 35.1019C1.96631 35.1019 2.21891 35.0322 2.44635 34.9187C2.72606 34.7786 2.96188 34.567 3.12706 34.3031C3.29062 34.0428 3.38902 33.7372 3.38902 33.4075C3.38902 32.9646 3.21384 32.5639 2.93478 32.2616C2.6254 31.927 2.18633 31.7141 1.69532 31.7141Z" fill="#E20714"/>
</g>
<path fill-rule="evenodd" clip-rule="evenodd" d="M38.4286 31.7141C37.9372 31.7141 37.4978 31.927 37.1884 32.2616C36.9081 32.5639 36.7339 32.9646 36.7339 33.4075C36.7339 33.7634 36.8445 34.0928 37.0323 34.3654C37.1949 34.6012 37.4185 34.789 37.6769 34.9187C37.9043 35.0322 38.1569 35.1019 38.4286 35.1019C38.6996 35.1019 38.9515 35.0322 39.1783 34.9187C39.4122 34.8015 39.6138 34.6341 39.7706 34.4283C39.9874 34.1441 40.1216 33.7927 40.1216 33.4075C40.1216 32.9646 39.9471 32.5639 39.6674 32.2616C39.358 31.927 38.9189 31.7141 38.4286 31.7141Z" fill="#E20714"/>
<path fill-rule="evenodd" clip-rule="evenodd" d="M63.1399 40.9229C62.4279 40.9229 61.8481 41.5016 61.8481 42.212C61.8481 42.924 62.4279 43.5038 63.1399 43.5038C63.8512 43.5038 64.4297 42.924 64.4297 42.212C64.4297 41.5016 63.8512 40.9229 63.1399 40.9229Z" fill="#E20714"/>
<path fill-rule="evenodd" clip-rule="evenodd" d="M11.0434 16.2058H9.07611C9.43357 15.8632 9.73843 15.4838 9.99168 15.0664H11.0434V16.2058ZM9.76876 19.4694H11.0434V17.8376H9.76876V19.4694ZM9.65713 10.1032H10.886V8.27013H9.65713V10.1032ZM13.3236 21.1028H14.0156L14.6411 22.1523C14.5076 22.1836 14.3224 22.2126 14.083 22.2417C13.8156 22.272 13.561 22.3023 13.3236 22.332V21.1028ZM13.3236 19.4697H14.6411V17.8379H13.3236V19.4697ZM13.3236 15.0664H17.5704C17.5704 16.7059 17.5624 18.0541 17.5479 19.1126C17.5327 20.4389 17.4743 21.81 17.3694 23.2253C16.9223 22.6001 16.4003 21.8926 15.8041 21.1028H16.7439V16.2058H13.3236V15.0664ZM12.7423 10.1032H14.083V8.27013H12.7423V10.1032ZM15.938 10.081H17.3694V8.24786H15.938V10.081ZM11.7357 11.9812H19.8068V6.32507H7.19723V11.9812H9.12031C8.56897 13.2926 7.70373 14.3508 6.52781 15.1551C6.43748 13.1736 6.17036 11.5937 5.72387 10.4162C6.28941 9.79029 6.77332 8.99311 7.17626 8.02397L5.1193 6.66027C4.91057 7.24195 4.62635 7.76394 4.2689 8.22528C3.71724 7.46552 2.93555 6.82416 1.92223 6.30249L0.357574 7.97913C1.32605 8.59081 2.07805 9.2912 2.61584 10.081C1.84029 10.9011 0.98247 11.5644 0.0443197 12.0702L1.67608 14.1492C2.55552 13.4649 3.23461 12.8684 3.71046 12.3615C3.85951 12.8835 3.935 13.4565 3.935 14.0824C3.68046 14.7234 3.1659 15.5358 2.39163 16.5191C1.60124 17.5031 0.804066 18.2703 0.00012207 18.8216L1.74286 20.9912C2.20516 20.5882 2.74231 19.9995 3.35236 19.2249C3.96371 18.4493 4.2689 18.0096 4.2689 17.9047V18.3967C4.2689 20.4834 4.20115 21.8474 4.06791 22.4878C3.935 23.1288 3.52367 23.4499 2.83845 23.4499C2.28646 23.4499 1.65414 23.3824 0.938918 23.2482L1.51962 26.154C1.86223 26.1837 2.24226 26.1995 2.6594 26.1995C4.25406 26.1995 5.32738 25.8195 5.87872 25.0587C6.40038 24.299 6.66138 22.3833 6.66138 19.3133C6.66138 18.1064 6.64589 17.0408 6.61686 16.1171L7.73405 17.435V21.1028H11.0434V22.5549C9.94006 22.6591 8.47186 22.7491 6.63944 22.8243L7.06335 25.1481C10.8489 24.7155 13.7175 24.2609 15.6703 23.7847L15.9606 24.3438L15.0444 24.2764L15.5361 26.244C15.8345 26.2731 16.1616 26.2886 16.5197 26.2886C18.0398 26.2886 18.9935 25.9014 19.3816 25.1258C19.769 24.3512 20.0003 20.2831 20.0739 12.9197H11.2889C11.4679 12.5919 11.616 12.2796 11.7357 11.9812Z" fill="#E20714"/>
<mask id="mask2" mask-type="alpha" maskUnits="userSpaceOnUse" x="0" y="0" width="84" height="66">
<path fill-rule="evenodd" clip-rule="evenodd" d="M0 65.9039H83.4025V0.32251H0V65.9039Z" fill="white"/>
</mask>
<g mask="url(#mask2)">
<path fill-rule="evenodd" clip-rule="evenodd" d="M53.6614 14.0821H57.8634V12.7194H53.6614V14.0821ZM53.6614 10.6837H57.8634V9.52162H53.6614V10.6837ZM46.0826 18.8436C45.9174 18.6952 45.5313 18.4197 44.9186 18.0174C45.3225 16.5111 45.6806 14.619 45.9919 12.3384H47.2685C47.0572 15.2445 46.663 17.4128 46.0826 18.8436ZM59.4961 19.5814H62.245V17.346H57.2146V16.272H60.6575V9.52162H62.1776V7.35364H60.6575V6.01221H57.8634V7.35364H53.6614V6.01221H50.8895V7.35364H49.5929V9.52162H50.8895V16.272H54.4876V17.346H49.3906V19.5814H52.2293C51.9167 20.8632 50.9634 21.9811 49.3684 22.9357L49.9949 21.862C49.3239 21.2803 48.749 20.8183 48.2728 20.4764C49.2274 17.8683 49.7562 14.3054 49.86 9.79004H46.462C46.5672 8.86575 46.6781 7.67303 46.7978 6.21352L44.1602 6.12383C44.1292 7.25589 44.026 8.47893 43.8456 9.79004H41.9016V12.3384H43.4456C43.2514 14.3357 42.7891 16.5346 42.0587 18.9336C43.1759 19.6643 44.1518 20.4312 44.9867 21.2365C44.4947 22.3246 43.4601 23.3002 41.8796 24.1645L43.8918 26.3993C45.2932 25.476 46.3571 24.3274 47.0882 22.9566C47.5205 23.3448 47.9818 23.8667 48.4738 24.5223L49.1674 23.3596L50.5985 25.6618C51.417 25.1253 52.2367 24.2542 53.0565 23.0467C53.8623 21.8397 54.3382 20.729 54.4876 19.716V26.579H57.2146V19.716C57.8117 22.2188 59.0412 24.2236 60.9036 25.7292L62.4683 23.136C60.8143 22.1675 59.8239 20.9822 59.4961 19.5814Z" fill="#E20714"/>
<path fill-rule="evenodd" clip-rule="evenodd" d="M65.3621 15.4686H68.9841V14.6411H65.3621V15.4686ZM66.0554 18.4186H68.2911V17.4801H66.0554V18.4186ZM66.0554 21.0576H68.2911V20.1175H66.0554V21.0576ZM67.7988 12.5618H68.536V11.0645H67.7988V12.5618ZM65.6754 8.6275H68.536V9.45468H66.2783V12.5618H65.6754V8.6275ZM71.1068 17.4352H83.2683V15.2447H71.2633V12.5618H70.5945V6.43726H63.6181V12.5618H63.0819V16.3403H63.8191V26.5791H66.0554V22.7565H68.2911V23.2255C68.2911 23.6875 68.044 23.9188 67.5536 23.9188L66.7032 23.8521L67.1284 26.311H68.6482C69.8541 26.311 70.4584 25.5348 70.4584 23.9853V16.3403H71.1068V17.4352Z" fill="#E20714"/>
<path fill-rule="evenodd" clip-rule="evenodd" d="M74.5945 20.9672H79.8263V19.8715H74.5945V20.9672ZM78.2616 24.0968H76.2924C76.1595 23.5907 75.9953 23.1138 75.8024 22.667H78.7972C78.6636 23.1738 78.4846 23.65 78.2616 24.0968ZM81.4126 22.667H82.4417V18.1956H72.0243V22.667H73.0741C73.3267 23.188 73.507 23.6649 73.6115 24.0968H70.861V26.2881H83.4024V24.0968H80.8764C81.1148 23.5013 81.2935 23.0238 81.4126 22.667Z" fill="#E20714"/>
<path fill-rule="evenodd" clip-rule="evenodd" d="M76.5395 10.0136H77.6787V8.94091H76.5395V10.0136ZM79.3108 12.6965H80.4967V11.4886H79.3108V12.6965ZM79.3108 10.0136H80.4967V8.94091H79.3108V10.0136ZM76.5395 12.6965H77.6787V11.4886H76.5395V12.6965ZM73.8793 10.0136H74.8849V8.94091H73.8793V10.0136ZM73.8793 12.6965H74.8849V11.4886H73.8793V12.6965ZM74.3487 6.01221V7.15233H71.5984V14.4851H82.7543V7.15233H79.8263V6.01221H77.5683V7.15233H76.6518V6.01221H74.3487Z" fill="#E20714"/>
<path fill-rule="evenodd" clip-rule="evenodd" d="M0 3.7345H83.4025V0.32251H0V3.7345Z" fill="#E20714"/>
<path fill-rule="evenodd" clip-rule="evenodd" d="M36.8745 18.253C37.6987 16.5506 38.3024 15.2588 38.6875 14.3791L34.9788 12.9783C33.7694 16.5506 32.5609 19.5996 31.3527 22.1264H21.2982V25.1754H40.9129V22.1264H35.0614C35.5002 21.2479 36.1044 19.9568 36.8745 18.253Z" fill="#E20714"/>
<path fill-rule="evenodd" clip-rule="evenodd" d="M23.8531 14.2971C25.0068 17.0451 25.9679 19.517 26.7373 21.714L30.034 20.3951C29.0994 18.0878 28.2477 16.0827 27.479 14.379C27.2038 13.7754 27.0115 13.336 26.9021 13.0608L23.8531 14.2971Z" fill="#E20714"/>
<path fill-rule="evenodd" clip-rule="evenodd" d="M29.4572 6.30225V9.43452H21.9575V12.6487H40.3356V9.43452H33.0008V6.30225H29.4572Z" fill="#E20714"/>
</g>
</svg>
