<svg xmlns="http://www.w3.org/2000/svg" viewBox="0 0 62 25" width="100">
  <path d="M52.93,17.38h-.77a.88.88,0,0,1-.55-.14.68.68,0,0,1-.18-.53V16a.67.67,0,0,1,.18-.53.82.82,0,0,1,.55-.14h.51A1.39,1.39,0,0,0,53.8,15a1.62,1.62,0,0,0,.27-1.07,5.58,5.58,0,0,0-.83-2.49A10.18,10.18,0,0,0,52.06,10a.69.69,0,0,1-.25-.49,1,1,0,0,1,.09-.37c.29-.84,1.5-4.39,1.52-4.46H50.65V19.45a.66.66,0,0,1-.18.53.82.82,0,0,1-.55.14h-.6a.82.82,0,0,1-.55-.14.63.63,0,0,1-.18-.53V3.34a.63.63,0,0,1,.18-.53.82.82,0,0,1,.55-.14h5c.46,0,.66.14,1,.62l.17.23a.92.92,0,0,1,.24.56,1.4,1.4,0,0,1-.08.41c-.34,1-1.47,4.06-1.64,4.44a1.19,1.19,0,0,0-.15.37c0,.07,0,.15.2.29a6.1,6.1,0,0,1,1.67,2.47,6.18,6.18,0,0,1,.34,2c0,2-.81,3.3-3.15,3.29M59.52,3.66A47.47,47.47,0,0,0,43.6.47c-1.25,0-2,.47-2.28,1.22-.48,1.18-.91,2.38-1.29,3.59.68-.1,1.34-.19,1.51-.23.56-.14.54-.19.57-.59V3.25a.67.67,0,0,1,.17-.53.82.82,0,0,1,.55-.14h.73a.84.84,0,0,1,.55.14.63.63,0,0,1,.17.53v.88c0,.22.05.22.19.23a1.22,1.22,0,0,0,.33-.06,17.32,17.32,0,0,0,1.71-.6.86.86,0,0,1,.35-.09.44.44,0,0,1,.39.28c.16.26.46.87.51.95h0a.49.49,0,0,1,0,.19.28.28,0,0,1-.19.28l-.46.19c-.35.12-.74.23-1,.29-.48.14-.85.22-1.34.34s-.56.18-.57.62V8.07c0,.44.09.47.55.49h2.28a.82.82,0,0,1,.55.14.68.68,0,0,1,.18.53v.48a.69.69,0,0,1-.18.54.82.82,0,0,1-.55.13H44.84c-.46,0-.53.06-.55.5v1.49c0,.43.09.47.55.49h2.28a.82.82,0,0,1,.55.14.66.66,0,0,1,.18.53V14a.66.66,0,0,1-.18.53.81.81,0,0,1-.54.14h-2.3c-.45,0-.52.06-.54.47v.61a4.45,4.45,0,0,1-.56,2.31A3.7,3.7,0,0,1,42,19.8c-.14.06-.3.11-.46.16,1.43.49,2.85.9,4.29,1.25a5.05,5.05,0,0,1-1.65,3c-.2.13-.23.21-.14.39l.09.17a.36.36,0,0,0,.5.06,8.84,8.84,0,0,0,3.87-3.09,50.58,50.58,0,0,0,7.59.73c.95,0,1.39-.47,1.83-1.33A41,41,0,0,0,61,5.55c-.05-.83-.37-1.3-1.5-1.89m-18,5.23c.45,0,.53-.06.55-.49V7.16A.34.34,0,0,0,42,6.92a.36.36,0,0,0-.25-.1h-.2c-.49.1-1.41.26-2.1.38q-.21.84-.39,1.68h2.48m.55,3.48V11.21c0-.44-.1-.47-.55-.5H38.84l-.1,0c-.12.72-.23,1.44-.31,2.17h3.13c.45,0,.53-.06.55-.49M42,16.67a2.34,2.34,0,0,0,.16-.88v-.62c0-.43-.1-.47-.56-.49H38.27c-.06.94-.11,1.9-.12,2.87a1.72,1.72,0,0,0,1.09,1.6l.86.32V18.41a.34.34,0,0,1,.11-.29.85.85,0,0,1,.4-.15,1.59,1.59,0,0,0,.72-.31,1.86,1.86,0,0,0,.62-1m-8.76-3.09H24.67c-.14,0-.08-.1,0-.12a19.67,19.67,0,0,0,3.37-.86c.2-.07.39-.15.59-.24a.89.89,0,0,1,.85,0,21.49,21.49,0,0,0,3.67,1c.19.05.18.14,0,.14m-.68,1.83v2.87c0,.1,0,.12-.13.12H25.31c-.09,0-.13,0-.13-.12V15.41c0-.1,0-.13.13-.13h7.07c.1,0,.13,0,.13.13m-5.65-7h3.93c.26,0,.32.13.15.28a17.46,17.46,0,0,1-1.65,1.11.68.68,0,0,1-.78,0c-.6-.35-1.19-.73-1.76-1.13-.17-.12-.12-.27.11-.27m10.6,3.85a29.41,29.41,0,0,1-5.84-1.13c-.24-.11-.21-.25,0-.43a34.65,34.65,0,0,0,3.11-2.25l.25-.2a.33.33,0,0,0,0-.52,6.49,6.49,0,0,0-.59-.42l-.6-.41a1.49,1.49,0,0,0-.89-.25H27.48a.9.9,0,0,1-.58-.18L26.36,6a.43.43,0,0,0-.64,0c-.19.18-.44.36-.89.72s-.78.62-1.36,1a23.54,23.54,0,0,1-2.64,1.34c-.23.09-.3.27-.12.46l1,1c.21.17.36.16.66,0s1.76-.91,2-1.05a.48.48,0,0,1,.6,0c.13.12.88.7,1.48,1.14.19.15.22.31,0,.4A23.88,23.88,0,0,1,20,12.45c-.34,0-.4.2-.36.42s.11.69.17,1c0,.2.19.29.45.27.86-.09,2.16-.25,2.45-.33s.43,0,.43.21v5a.86.86,0,0,0,1,1h9.53a.87.87,0,0,0,1-1v-5c0-.25.15-.34.41-.28s1.23.24,1.91.35c.39,0,.56,0,.66-.28s.25-.9.31-1.19-.09-.41-.41-.46M21,7h.74c.45,0,.63-.12.63-.58V6.2c0-.45.18-.58.64-.58H34.9c.46,0,.63.12.63.58v.23c0,.46.18.58.65.58h.73c.46,0,.64-.12.64-.58V5.49A1.58,1.58,0,0,0,37,4.21a2.43,2.43,0,0,0-1.54-.42H30.23V3.06c0-.46-.18-.58-.63-.58H28.27c-.46,0-.64.12-.64.58v.73H22.45a2.45,2.45,0,0,0-1.54.42,1.58,1.58,0,0,0-.54,1.28v.94c0,.46.18.58.64.58M8.38,15.3h7c.1,0,.13,0,.13.12v2.86c0,.1,0,.12-.13.12h-7c-.09,0-.12,0-.12-.12V15.42c0-.1,0-.12.13-.12M18.3,4H13.13V3.06c0-.46-.18-.59-.64-.59H11.1c-.46,0-.64.12-.64.58V4H5.1a2.47,2.47,0,0,0-1.54.42A1.58,1.58,0,0,0,3,5.72V7.3c0,.25-.08.31-.36.24L1.12,7.2c-.44-.12-.64,0-.77.4,0,.13-.15.58-.2.87-.08.45.08.6.53.68l2,.42c.23.07.32.15.31.34s0,.37,0,.55v.16c0,.21-.05.25-.28.43A12.87,12.87,0,0,1,1.16,12c-.33.18-.67.36-.73.38-.42.19-.53.37-.34.79.12.25.28.62.35.76.19.43.4.46.82.27.23-.1.27-.12.89-.45l.31-.18c.14-.06.2,0,.19.11a9.48,9.48,0,0,1-.41,2.75,1.26,1.26,0,0,1-.82.69c-.42.19-.53.37-.33.79.08.18.2.5.36.9s.41.45.83.27a4,4,0,0,0,1.2-.72,3.41,3.41,0,0,0,1.05-2.48,31.22,31.22,0,0,0,.35-3.6c0-.22.17-.31.31-.15l.74.79c.22.26.37.28.75.09a20.69,20.69,0,0,0,3.93-2.62c.14-.11.24,0,.24.1v3.13H7.29a.86.86,0,0,0-1,1v4.49a.87.87,0,0,0,1,1h9.36a.86.86,0,0,0,1-1V14.58a.86.86,0,0,0-1-1H12.92V9.36c0-.46.18-.58.64-.58h4.33c.47,0,.65-.12.65-.58V7.53c0-.46-.18-.58-.65-.58H6.28c-.46,0-.64.12-.64.58V8.2c0,.46.17.58.63.58h3c.17,0,.25.1.12.23a12.59,12.59,0,0,1-3.9,2.42c-.29.1-.48,0-.47-.33,0-.64.06-1.29.06-2,0,0,0-2.54,0-2.71,0-.47.18-.59.64-.59H18.3c.33,0,.64,0,.64-.58V4.59c0-.35-.12-.58-.64-.58m.47,7.68A28.7,28.7,0,0,0,15,9.26a.43.43,0,0,0-.54,0c-.26.23-.67.58-.81.73a.36.36,0,0,0,0,.58,26.8,26.8,0,0,1,3.59,2.49.29.29,0,0,0,.42,0,14.42,14.42,0,0,0,1.09-1c.16-.16.17-.28,0-.43" fill="#006ac6" fill-rule="evenodd"/>
</svg>
