<svg width="63" height="66" viewBox="0 0 63 66" fill="none" xmlns="http://www.w3.org/2000/svg">
<mask id="mask0" mask-type="alpha" maskUnits="userSpaceOnUse" x="0" y="57" width="6" height="9">
<path fill-rule="evenodd" clip-rule="evenodd" d="M0 57.8245H5.42433V65.2051H0V57.8245Z" fill="white"/>
</mask>
<g mask="url(#mask0)">
<path fill-rule="evenodd" clip-rule="evenodd" d="M2.65978 65.2051C1.4383 65.2051 0.633881 64.9432 -0.000183105 64.3343L1.00782 63.3245C1.52313 63.7552 2.3332 63.8035 2.67109 63.8035C3.65505 63.8035 3.86217 63.3713 3.86217 63.0094C3.86217 62.7894 3.8035 62.6176 3.68333 62.4856C3.55821 62.3579 3.36806 62.2791 3.11642 62.2472L2.21586 62.1194C1.5825 62.0293 1.10042 61.8192 0.787273 61.4942C0.46706 61.1635 0.306599 60.6838 0.306599 60.0727C0.306599 58.7059 1.32944 57.8245 2.91213 57.8245C3.94982 57.8245 4.67861 58.0636 5.25683 58.5987L4.27215 59.5873C3.80915 59.192 3.24012 59.192 2.98777 59.192H2.85982C2.15719 59.192 1.83769 59.6164 1.83769 60.0103C1.83769 60.1032 1.86101 60.2828 2.02006 60.441C2.15719 60.5809 2.3537 60.6667 2.60393 60.6979L3.50378 60.8236C4.1329 60.9123 4.60368 61.1103 4.9041 61.4098C5.25329 61.7539 5.42436 62.2628 5.42436 62.9675C5.42436 64.5118 4.03535 65.2051 2.65978 65.2051Z" fill="#231F20"/>
</g>
<path fill-rule="evenodd" clip-rule="evenodd" d="M8.37063 65.1406V59.2878H6.53418V57.8862H11.799V59.2878H9.96392V65.1406H8.37063Z" fill="#231F20"/>
<path fill-rule="evenodd" clip-rule="evenodd" d="M14.4447 62.731H16.079L15.288 60.2173L14.4447 62.731ZM16.8311 65.141L16.4861 64.0254H14.0121L13.6445 65.141H11.9855L14.6136 57.8867H15.8605L18.4894 65.141H16.8311Z" fill="#231F20"/>
<path fill-rule="evenodd" clip-rule="evenodd" d="M23.9439 65.1406L21.3667 61.0769V65.1406H19.772V57.8862H21.19L23.7679 61.9513V57.8862H25.3612V65.1406H23.9439Z" fill="#231F20"/>
<path fill-rule="evenodd" clip-rule="evenodd" d="M28.7526 63.7413H29.68C30.1345 63.7413 30.4463 63.5902 30.6619 63.2658C30.8343 63.0189 30.881 62.7726 30.881 61.5136C30.881 60.2568 30.8343 60.0098 30.6605 59.7607C30.4463 59.4378 30.1338 59.2881 29.68 59.2881H28.7526V63.7413ZM27.1579 65.1408V57.8865H29.8058C30.6103 57.8865 31.2775 58.1292 31.7342 58.5891C32.4898 59.3477 32.4835 60.1638 32.4764 61.1985V61.8302C32.4835 62.8642 32.4898 63.681 31.7342 64.4411C31.2761 64.8981 30.6103 65.1408 29.8058 65.1408H27.1579Z" fill="#231F20"/>
<path fill-rule="evenodd" clip-rule="evenodd" d="M38.2609 65.1406L35.6836 61.0769V65.1406H34.0889V57.8862H35.5062L38.0849 61.9513V57.8862H39.6789V65.1406H38.2609Z" fill="#231F20"/>
<path fill-rule="evenodd" clip-rule="evenodd" d="M41.4922 65.1406V57.8862H46.3258V59.2878H43.0862V60.7831H45.8543V62.184H43.0862V63.7411H46.3258V65.1406H41.4922Z" fill="#231F20"/>
<path fill-rule="evenodd" clip-rule="evenodd" d="M53.6402 65.1406L52.3467 61.177L51.0538 65.1406H49.7425L47.7548 57.8862H49.4202L50.477 62.1812L51.7854 57.8862H52.9072L54.2149 62.1798L55.2731 57.8862H56.9392L54.9593 65.1406H53.6402Z" fill="#231F20"/>
<path fill-rule="evenodd" clip-rule="evenodd" d="M60.1829 65.2051C58.9614 65.2051 58.157 64.9432 57.5229 64.3343L58.5295 63.3245C59.0456 63.7552 59.8549 63.8035 60.1935 63.8035C61.1775 63.8035 61.3839 63.3713 61.3839 63.0094C61.3839 62.7894 61.3252 62.6176 61.205 62.4856C61.0813 62.3579 60.8919 62.2791 60.6395 62.2472L59.739 62.1194C59.1056 62.0293 58.6235 61.8192 58.309 61.4942C57.9895 61.1635 57.829 60.6838 57.829 60.0727C57.829 58.7059 58.8519 57.8245 60.4346 57.8245C61.4715 57.8245 62.2003 58.0636 62.7807 58.5987L61.7946 59.5873C61.3323 59.192 60.7625 59.192 60.5102 59.192H60.3822C59.6796 59.192 59.3608 59.6164 59.3608 60.0103C59.3608 60.1032 59.3841 60.2828 59.5425 60.441C59.681 60.5809 59.8768 60.6667 60.1271 60.6979L61.0262 60.8236C61.6553 60.9123 62.1261 61.1103 62.4258 61.4098C62.7764 61.7539 62.9461 62.2628 62.9461 62.9675C62.9461 64.5118 61.5585 65.2051 60.1829 65.2051Z" fill="#231F20"/>
<mask id="mask1" mask-type="alpha" maskUnits="userSpaceOnUse" x="0" y="0" width="63" height="51">
<path fill-rule="evenodd" clip-rule="evenodd" d="M0.0250244 0.709717H62.9225V50.7347H0.0250244V0.709717Z" fill="white"/>
</mask>
<g mask="url(#mask1)">
<path fill-rule="evenodd" clip-rule="evenodd" d="M25.1713 3.53115H2.82495V32.6726L37.7996 47.9229H60.124V18.7828L25.1713 3.53115ZM37.1924 50.7346L0.0250244 34.5164V0.719408L25.7311 0.709473L62.9225 16.9398V50.7346H37.1924Z" fill="#231F20"/>
</g>
<path fill-rule="evenodd" clip-rule="evenodd" d="M48.046 35.1118H55.8583V32.9757H43.1092V35.1118H44.9838L43.7206 37.6567L43.3029 36.4758L41.6049 37.0833V32.0247H43.2505V29.6984H41.6049V25.6113H39.449V29.6984H37.6048V32.0247H39.449V37.8547L37.1071 38.6921L37.8896 40.8957L43.0236 39.0597L42.2489 40.6217H44.6028L45.8469 38.1031H46.9454L44.4098 43.2305H46.5318L49.0533 38.1017H50.1645L47.6296 43.2305H49.7587L52.2462 38.1684L52.3155 38.1017H52.9976V40.8282C52.9976 41.4449 52.5728 41.8594 51.9422 41.8594H51.4757L52.0327 44.2091C54.236 44.1793 55.2631 43.2376 55.2631 41.2498V36.1224H47.6296H46.8294L47.32 35.1118H48.046Z" fill="#231F20"/>
<mask id="mask2" mask-type="alpha" maskUnits="userSpaceOnUse" x="0" y="0" width="63" height="66">
<path fill-rule="evenodd" clip-rule="evenodd" d="M0 65.2052H62.9463V0.709717H0V65.2052Z" fill="white"/>
</mask>
<g mask="url(#mask2)">
<path fill-rule="evenodd" clip-rule="evenodd" d="M47.1993 30.4734H51.9982V29.394H47.1993V30.4734ZM47.1993 27.9307H51.9982V26.8519H47.1993V27.9307ZM45.0412 32.0993H54.2751V25.2261H45.0412V32.0993Z" fill="#231F20"/>
<path fill-rule="evenodd" clip-rule="evenodd" d="M7.28278 12.1346V9.66276H13.9048V6.88721H16.2629V9.66276H23.0192V12.1346H7.28278Z" fill="#231F20"/>
<path fill-rule="evenodd" clip-rule="evenodd" d="M10.9834 21.1599L9.70825 13.4365H12.1258L13.4617 21.1599H10.9834Z" fill="#231F20"/>
<path fill-rule="evenodd" clip-rule="evenodd" d="M6.67322 25.0165V22.4815H15.9163L18.3479 13.4033H21.0369L18.6399 22.4815L23.5894 22.4801V25.0165H6.67322Z" fill="#231F20"/>
</g>
</svg>
