<svg xmlns="http://www.w3.org/2000/svg" viewBox="0 0 798.38 354.33" width="100">
  <path d="M798.38,124.17c-.33,6.72-.65,13.44-1,20.74-2,0-3.84,0-5.62,0-33.93.84-67.2-3.3-99.43-14.06-10.39-3.46-20.16-3.05-30.69-.5-20.69,5-41.51,9.9-62.56,12.84-16.85,2.35-34.11,1.73-51.54,2.44V123c28.33.21,56.64,1,84.65-8.49-2.49-.84-4.32-1.52-6.18-2.07-14.06-4.15-28.16-8.14-42.15-12.5-3.86-1.2-6.88-.39-10.45,1-7.65,3-15.58,5.21-24.59,8.14,0-9.13-.18-16.52.2-23.89.06-1.12,2.64-2.62,4.29-3,10.91-2.85,20-8.31,26-18,2.41-3.9,3.68-8.49,5.69-12.66.62-1.29,1.93-3.13,3-3.17,7.63-.27,15.27-.14,23.37-.14-.64,3.21-1.18,5.88-1.82,9.12h6.35c42.83,0,85.65-.09,128.47.08a129.63,129.63,0,0,1,22.36,1.89c13.13,2.36,19.89,8.89,21.23,19.19,1.13,8.76-6,20.47-16.5,24.52s-21.53,6.82-32.38,10c-4.59,1.33-9.32,2.16-13.94,3.7,24,7.41,48.76,5.57,73.25,6.52Zm-197.3-41.4A21.83,21.83,0,0,0,603.6,84q35.85,10,71.72,19.88a10.09,10.09,0,0,0,4.88.15q34.18-8.45,68.31-17.14c1.59-.4,3-1.7,4.44-2.58l-.55-1.55Z"/>
  <path d="M798.38,337.57c-1.68,3.54-2.92,7.38-5.13,10.54-3.16,4.52-8.08,6.17-13.55,6.17-13.66,0-27.32.15-41,0s-19.92-5.65-20.41-19.15c-.63-17.25-.6-34.55-.06-51.8.4-12.52,7.58-19.21,20.08-19.44,18-.32,36-.11,54-.11a19.57,19.57,0,0,1,2.65.38v12.35H770.3c-9,0-18-.08-27,0-8.06.1-10.91,3-10.94,10.85q-.07,22.17,0,44.34c0,7.38,2.15,9.47,9.58,9.5,11,.06,22,.08,33,0,6.65-.06,8.68-2.13,8.8-8.67.08-4,.14-8-.06-12-.25-5.06-2.45-7.12-7.58-7.16-8.64-.08-17.28,0-26.38,0V300c12.18.69,24.4.93,36.51,2.24,6.23.67,9.44,6.17,12.16,11.42Z"/>
  <path d="M368,229.74H304.32c-1.66,0-3.33,0-5-.06-17-1-24.63-7-25.18-23.93-.94-29.18-.26-58.41-.26-88.07h24.75v6.09q0,34.65,0,69.28c0,10.44,2.51,12.63,13.39,11.41v-102c-3.78,0-7.55.07-11.33,0-16.56-.38-24.34-8.27-24.36-24.79,0-18.11-.13-36.21.17-54.32.18-11,5.61-18,15.75-21.11a27.1,27.1,0,0,1,7.86-1.16c15.65,0,31.31-.18,47,.25,8.7.24,15.81,4.1,19.45,12.49a22.68,22.68,0,0,1,2,8.63c.13,19.59.58,39.2-.25,58.76-.59,13.94-9.29,21-23.34,21.25-2.3,0-4.61,0-7.34,0v30.66h29.07v25h-29.5v23.15c0,5.82.29,11.65-.1,17.44-.31,4.69,1,6.45,6,6.21,8.12-.41,16.28-.11,24.85-.11ZM344.24,52.26h0c0-6,.17-11.95,0-17.91-.22-6.19-2.34-8.46-8.54-8.65-8.64-.27-17.3-.29-25.93,0-6.11.22-8.37,2.73-8.44,8.78q-.18,17.42,0,34.83c.07,6.19,1.93,8.22,8,8.4q13.21.38,26.44,0c6.37-.19,8.25-2.24,8.46-8.57C344.39,63.54,344.24,57.9,344.24,52.26Z"/>
  <path d="M672.78,229.91c-28,0-56,0-83.95,0a109.85,109.85,0,0,1-13.44-.84c-11-1.4-18.14-8.05-18.71-19.21-.71-13.58-.6-27.23-.06-40.83.35-8.81,7.28-15.72,16.43-17.74a49,49,0,0,1,10.41-1q86.44-.09,172.89,0a75.39,75.39,0,0,1,15.34,1.68c10.15,2.15,15.88,8.31,16.31,18.63.55,13.26.54,26.58,0,39.84-.38,9.6-7.3,16.63-16.87,18.32a80.3,80.3,0,0,1-13.41,1.14C729.41,230,701.09,229.91,672.78,229.91Zm-.36-24.61h10.49c23.48,0,47,0,70.43,0,7.71,0,10.14-2.59,10.23-10.19,0-4,.09-8-.06-12-.21-5.75-2.41-8-8.26-8.39-2.49-.18-5-.12-7.49-.12H597.89c-16.17,0-17.6,1.45-17.56,17.69,0,11.06,2,13,13.16,13Q633,205.33,672.42,205.3Z"/>
  <path d="M381.37,66.53c0-9.23-.12-17.53.1-25.82a8.54,8.54,0,0,1,2.19-4.77,76.24,76.24,0,0,0,16-31.21c.83-3.28,2.21-4.63,5.79-4.46,6.46.31,12.94.09,20.07.09-.68,3.77-1.27,7.07-2,11.15h5.65c20,.05,40-.16,60,.3,6.37.15,13.13,1,18.95,3.39,14.8,6.05,20.35,21.5,12.51,35.48-3.89,6.94-9.55,13.12-15.32,18.72-9,8.77-18.86,16.76-29.07,25.71,15.84,5.2,31.46,6.18,47.65,6.27v24.21c-6.9-.35-13.79-.71-20.69-1-16.17-.74-31.45-5.2-46.54-10.69a9.61,9.61,0,0,0-6.95.22c-20.86,11.16-43.64,12.15-67.29,13.37,0-7.94-.13-15.49.2-23,0-.75,2.78-1.79,4.36-2,10.89-1.47,21.8-2.74,32.69-4.12,1.64-.2,3.24-.67,5.77-1.22L391.76,69.72l.54-1.19c11.73,0,23.47-.25,35.19.21,2.39.1,4.67,2.9,7,4.44,5,3.3,9.93,9,15,9.15,4.57.09,9.38-5.85,13.88-9.39C471,67,478.54,61,485.81,54.66a35.3,35.3,0,0,0,7.83-9.45c2.22-4.08,0-7.55-4.66-8.32a36,36,0,0,0-6-.31c-21.82,0-43.65.06-65.47-.1-3.58,0-5.75,1-7.67,4.1-6.35,10.14-14.42,18.64-25.13,24.35C383.89,65.38,383,65.75,381.37,66.53Z"/>
  <path d="M29.63,48.44H.93V22.68H30.14V0H55.05V22.45H77c0,8.17.13,15.78-.17,23.37,0,.92-2.33,2.45-3.64,2.52-5.77.27-11.57.12-17.66.12V95L76.93,86.6c0,8.67.11,16.38-.15,24.08,0,.95-1.93,2-3.16,2.72-5.79,3.26-13.76,5.06-16.89,10s-1.45,12.72-1.5,19.28c-.13,16.28,0,32.57,0,48.85,0,23.64-13,36.74-36.74,37-4.76.05-11,1.22-13.83-1.25-2.4-2.1-.88-8.69-1-13.3-.08-3.13,0-6.26,0-10.23,4.32,0,8.24.13,12.16,0,8.06-.32,13.94-4.77,14.2-12.52.56-16.39.17-32.81.17-49.12L0,150.41c0-9.24-.11-17,.17-24.73,0-.89,2.18-2,3.53-2.5,7.82-3.14,15.75-6,23.49-9.33a6,6,0,0,0,3.07-4.36c.18-19.77.08-39.54,0-59.31A8.81,8.81,0,0,0,29.63,48.44Z"/>
  <path d="M453.88,229.75c-14.5,0-29,.33-43.49-.18a40.58,40.58,0,0,1-16.25-3.84c-6.62-3.3-10.16-9.81-10.23-17.23-.15-17.93-.28-35.89.53-53.8.51-11.36,9.38-19.45,20.8-19.55q48-.42,96,0c12.7.14,21.37,9.08,21.72,22.05.45,16.11.5,32.25,0,48.35s-9.46,24.13-25.57,24.17C482.88,229.78,468.38,229.75,453.88,229.75Zm-.59-24.66v0c12.33,0,24.66.1,37-.05,6.09-.07,9-2.66,9.06-8.26.18-9.47.19-18.95,0-28.41-.12-5.45-2.91-8.38-8.49-8.42q-37.72-.24-75.47,0c-6.12,0-7.95,2.21-8.07,8.37-.16,8.47-.09,16.95-.08,25.42,0,9.08,2.05,11.25,11.09,11.33C430,205.17,441.63,205.09,453.29,205.09Z"/>
  <path d="M659.48,11.67c.23-1.53.47-2.49.52-3.46.39-8.14.38-8.15,8.83-8.13q7,0,14,.1a8.52,8.52,0,0,1,1.86.57c.15,3.3.3,6.72.49,10.92h6c24.15.18,48.3,0,72.43.7,12.17.33,22.64,5.09,29.46,16,5,8,4.17,16.76,3.92,25.91H773.44c-.24-.32-.58-.57-.61-.85-1.36-12-5.93-16.5-18.38-16.63-27.81-.28-55.62-.18-83.44-.2q-38.46,0-76.94,0c-18,0-18.6.48-23.23,17.69a14.94,14.94,0,0,1-2.31.33c-6.81,0-13.63,0-20.35,0-5.67-19.13,8.41-41.17,28-42.09,24.09-1.14,48.26-.64,72.4-.84C652.15,11.64,655.77,11.67,659.48,11.67Z"/>
  <path d="M182.7,88.45v23.8h66.61v24.64H182.78v91.33h-25.3v-5.7c0-26.75-.08-53.51.08-80.26,0-4.15-1.2-5.36-5.35-5.31-18.66.2-37.32.08-56,.08H90.29V112.65c1.8-.1,3.57-.26,5.33-.27,18.66,0,37.32-.18,56,.11,5,.08,6.3-1.49,6-6.19-.4-5.76-.09-11.57-.09-17.85Z"/>
  <path d="M217.27,354.19H203.41a17.56,17.56,0,0,1-.42-2.6c0-24.09-.06-48.18.12-72.26.06-7.59,4.28-13,10.56-14.64,7.72-2,15.4,1.38,17.61,9,3.19,11,5.48,22.23,8.09,33.38,1.55,6.63,2.84,13.32,4.55,19.91.43,1.68,2,3.06,3.08,4.57,1.05-1.49,2.68-2.84,3.06-4.48,3.79-16.34,7.12-32.79,11.17-49.06a21.51,21.51,0,0,1,6.44-10.79c8.83-7.33,21.88-1.52,23.27,9.91a47.46,47.46,0,0,1,.18,5.47q0,33.15,0,66.29v5.23H276.4v-73l-1.78-.23c-.52,1.58-1.18,3.13-1.54,4.75-3.28,14.75-6.42,29.53-9.81,44.26a41.22,41.22,0,0,1-3.74,10.22c-2.79,5.19-7.36,8.22-13.45,7.75s-10.71-3.51-12.48-9.25c-2.73-8.86-4.9-17.91-7-27-2-8.41-3.46-16.92-5.25-25.36a8.93,8.93,0,0,0-2.67-4.78c-1.9,7.86-1.28,15.76-1.39,23.59-.11,8.14,0,16.28,0,24.42Z"/>
  <path d="M115.22,42.22h-26c.73-9.2.3-18.45,2.45-27.06C93.86,6.29,101.2,1.39,110.56.61c4.64-.39,9.32-.24,14-.24q47,0,93.91,0c2.33,0,4.66,0,7,.15,13.47.63,20.77,7,22.15,20.22.71,6.87.13,13.87.13,21.28H223.34c0-2.23,0-4.64,0-7-.15-6.74-2.5-9.29-9.32-9.69-4.48-.25-9-.13-13.48-.13q-36.47,0-72.93,0c-1.83,0-3.66.12-5.49.2-4.69.2-6.91,2.73-6.9,7.34C115.22,35.66,115.22,38.63,115.22,42.22Z"/>
  <path d="M660.76,309.31c0,8.47.18,16.95,0,25.41-.33,12.15-5.67,18.53-17.71,19.18a325.83,325.83,0,0,1-38.4-.34c-9.66-.62-15.81-7.6-16-17.26q-.47-27.15,0-54.31c.18-10.1,7.18-17.36,17.34-17.8,12.47-.52,25-.53,37.46,0,10.46.42,16.77,7.24,17.14,17.74.32,9.12.07,18.27.07,27.4Zm-14.3-.15c0-7.81.07-15.62,0-23.43-.08-5.72-2.21-8.48-8-8.75-9.14-.43-18.33-.45-27.46,0-5.82.28-8,3-8.06,8.76q-.2,23.41,0,46.84c0,5.94,2.07,8.34,8.08,8.6,9.13.39,18.32.41,27.45,0,6.23-.29,7.91-2.61,8-9.08C646.53,324.44,646.47,316.8,646.46,309.16Z"/>
  <path d="M413,298.59v13h-18.6c-9.33,0-18.67.12-28-.07-3.33-.06-4.37,1.11-4.25,4.32.2,5.64,0,11.3.09,16.95.14,6.16,2.55,8.56,9.07,8.63,12,.13,24,0,36,0H413v11.86c-.25.23-.49.65-.73.65-15.31,0-30.66.5-45.94-.31-11.69-.62-17.95-7.05-18.28-18.52-.52-18.08-.46-36.21.24-54.28.4-10.37,7.68-16.77,18.06-17,14.82-.34,29.65-.12,44.48-.12a12.85,12.85,0,0,1,2.18.44v12c-1.76.09-3.51.25-5.26.25-11.16,0-22.32,0-33.49,0-10,.08-12,2.13-12,11.95v10.14Z"/>
  <path d="M228,149.81c1.77,12.73,3.54,25,5.19,37.35,1.2,9,5.47,15.11,15,16.83a4.42,4.42,0,0,1,2.65,3.24c.25,6.77.12,13.55.12,21A40.09,40.09,0,0,1,232,224c-13.13-6.68-21.68-17.07-23.7-31.84-1.79-13.15-2.82-26.4-4.15-39.61a17.6,17.6,0,0,1,.21-2.75Z"/>
  <path d="M44,276.54v34.31c0,12.95-.07,25.9.07,38.85,0,3.23-1.06,4.28-4.3,4.35-10.24.23-10.24.35-10.24-9.78V277H.07V264.05H73.2v12.49Z"/>
  <path d="M85.29,228.09c0-7.27-.1-14.21.12-21.15a4,4,0,0,1,2.48-2.85c9.84-2.11,14-9.22,15.49-18.06,1.56-9.66,2.17-19.47,3.22-29.21.24-2.28.56-4.56.87-7.07h24.82c-.33,3.45-.49,6.69-1,9.88-2,13.46-3.34,27.08-6.41,40.29C120.93,217.05,103.64,228.94,85.29,228.09Z"/>
  <path d="M532.71,341.51v12.77c-3.11,0-6,0-9,0-11.82-.17-23.67.11-35.44-.69s-18-7.4-18.16-19c-.37-22.75-.19-45.51-.21-68.27a9.67,9.67,0,0,1,.42-2h14.05v5.54q0,29.16,0,58.31c0,11.54,1.88,13.38,13.26,13.38Z"/>
  <path d="M249.15,95.75c-31,.88-58.29-24.82-62.13-51.11h26.84a7.46,7.46,0,0,1,.8,1.45c4.17,14.52,14.78,21.56,28.85,24.18,4.47.83,6.05,2.63,5.74,7.18C248.84,83.54,249.15,89.67,249.15,95.75Z"/>
  <path d="M153.22,44.43c-9,33.42-32.68,50.52-62.71,51.43,0-7.27-.12-14.55.14-21.81,0-1,1.78-2.5,3-3,3.11-1.14,6.42-1.72,9.59-2.7,10-3.1,17.17-9.5,20.75-19.3,1.42-3.88,3.44-4.92,7.32-4.75C138.48,44.65,145.64,44.43,153.22,44.43Z"/>
  <path d="M144.63,353.55H130.84V264.08h13.79Z"/>
</svg>
