<svg xmlns="http://www.w3.org/2000/svg" viewBox="0 0 148 88">
  <polygon points="147.88 44 128.88 25 123.21 30.67 132.54 39.99 0.13 39.99 0.13 48.01 132.54 48.01 123.21 57.33 128.88 63 147.88 44" fill="#f4bf7a" fill-rule="evenodd"/>
  <path d="M110.27,54.66a4.7,4.7,0,0,0-6.61-.53l-.24.21a23.61,23.61,0,0,1-2.55-2.68,14.57,14.57,0,0,1-1.58-3.94c1.48-1.86,2.69-3.55,3.55-4.83a7.5,7.5,0,0,0,1.41-5.25,5.7,5.7,0,0,0-3.56-4.6,8.59,8.59,0,0,0,.79-1.91,6,6,0,0,0-2.94-6.81,6.38,6.38,0,0,0-1.48-.56A6.44,6.44,0,0,0,95,16.47a5.88,5.88,0,0,0-4-1.23,6.09,6.09,0,0,0-2.54-4.37c-2.61-1.95-6.78-2-9.66,1.62l-.47.58L78.21,13a35.67,35.67,0,0,0-5.1-3.07,6,6,0,0,0-7.49,2l-.08-.09c-3.51-4.19-7.82-4-10.33-2.1a5.85,5.85,0,0,0-2.29,5.58,6.19,6.19,0,0,0-5.1,7.82,5.89,5.89,0,0,0-1.91.67,6.11,6.11,0,0,0-2.79,7.11,9.73,9.73,0,0,0,.84,1.9,5.5,5.5,0,0,0-2.45,1.79c-1.46,1.83-2.14,5,.32,8.46,1.18,1.66,2.33,3.14,3.5,4.51a1.37,1.37,0,0,0,.17.17,14.46,14.46,0,0,1-1.56,3.9A21,21,0,0,1,41.71,54a4.69,4.69,0,0,0-6.48.63l-5,5.94a4.69,4.69,0,0,0,.53,6.61L53.82,86.88a4.66,4.66,0,0,0,3,1.12l.38,0a4.65,4.65,0,0,0,3.19-1.63l5.06-5.94A4.66,4.66,0,0,0,66.59,77a4.71,4.71,0,0,0-1.33-2.92,32.56,32.56,0,0,1,3-2.78,26.23,26.23,0,0,1,4.09-2.61,25.85,25.85,0,0,1,4.09,2.61,35.24,35.24,0,0,1,3.43,3.16,4.58,4.58,0,0,0-1,2.54A4.66,4.66,0,0,0,80,80.41l5.06,5.94A4.65,4.65,0,0,0,88.27,88l.38,0a4.63,4.63,0,0,0,3-1.12h0L114.8,67.21a4.7,4.7,0,0,0,.53-6.61Z" fill="#28646e"/>
  <path d="M65.83,68.09a37.61,37.61,0,0,0-3.65,3.35L44.81,56.66a16.07,16.07,0,0,0,2.6-2.92,17.26,17.26,0,0,0,1.84-4.36h.12a6.39,6.39,0,0,0,4.14-1.62,5.94,5.94,0,0,0,2.09-3.66h0a6.17,6.17,0,0,0,4.15-1.72A7.25,7.25,0,0,0,62,38.31a5.67,5.67,0,0,0,1.15.11,6.51,6.51,0,0,0,4.46-1.81,6.19,6.19,0,0,0,1.83-5.31,6.7,6.7,0,0,0,4-2,6.15,6.15,0,0,0,1.32-6.67A73.41,73.41,0,0,0,82,15c1.35-1.7,3-1.67,4.07-.89s1.45,2,.32,3.59a33.53,33.53,0,0,1-3.56,4.22c-.6.64-1.28,1.35-2.08,2.24a2,2,0,0,0,3,2.72c.77-.85,1.43-1.55,2-2.17a37.2,37.2,0,0,0,3.72-4.38,2.73,2.73,0,0,0,.25-.23,2,2,0,0,1,2.81-.42c.8.62,1.34,2,.19,3.81A25.56,25.56,0,0,1,91,25.82a.94.94,0,0,0-.1.1,1.59,1.59,0,0,0-.25.33c-1.26,1.52-2.75,3.13-4.17,4.63A2,2,0,0,0,88,34.3a2,2,0,0,0,1.48-.64C91,32,92.65,30.25,94,28.54a2.11,2.11,0,0,1,2.55-.67,2,2,0,0,1,1,2.25c-.45,1.76-3,4.41-5.06,6.53l-1,1a2,2,0,0,0,.07,2.87,2.06,2.06,0,0,0,1.4.56,2,2,0,0,0,1.47-.63l1-1c.53-.55,1.07-1.11,1.59-1.67a2.13,2.13,0,0,0,.33-.34l.11-.13.09-.1a1.47,1.47,0,0,1,2-.25c.75.54,1.18,1.82,0,3.64a71.62,71.62,0,0,1-6.07,7.78c-5.62,6.2-11.35,11.15-14.94,12.9-1.34.66-2.54,1.21-3.7,1.75A42,42,0,0,0,65.83,68.09ZM83,71.76,100.32,57a18.44,18.44,0,0,1-2.93-3.24,15.59,15.59,0,0,1-1.18-2.4c-6,6.55-11.92,11.63-16,13.6-1.24.61-2.4,1.15-3.44,1.63.75.48,1.47,1,2.16,1.52A41.55,41.55,0,0,1,83,71.76ZM69.08,17.65a20.67,20.67,0,0,0,3.12,1.88c1.14-1.09,2.37-2.35,3.41-3.41a30.38,30.38,0,0,0-4.17-2.51,2.13,2.13,0,0,0-2.73,1A2.31,2.31,0,0,0,69.08,17.65ZM57.57,16.42A81.14,81.14,0,0,0,66.52,26.5a2.85,2.85,0,0,0,4-.05c.86-.87.83-2,0-3.25a33.35,33.35,0,0,1-4-2.38,6,6,0,0,1-2.32-4.3c-.66-.73-1.25-1.4-1.81-2.07-1.81-2.15-3.69-2.3-4.76-1.48C56.92,13.55,56.44,14.8,57.57,16.42Zm-5.31,6.85c1.15,1.83,6.27,7.42,9.41,10.43a2.16,2.16,0,0,0,3.14,0c.36-.35,1.4-1.61-.21-3.39-.1-.12-.64-.66-.81-.82a85.52,85.52,0,0,1-8.22-9c-1.06-1.39-2.32-1.3-3-.78S51.18,21.55,52.26,23.27ZM47,29.79c.49,1.7,4,6,6.91,9a2.67,2.67,0,0,0,3.93.54c1.17-.9.67-2.66-.49-4-1.44-1.65-5-5.54-6.18-7s-2.36-1.55-3.28-1A2,2,0,0,0,47,29.79ZM48.42,45c.53.62,1.72.35,2.47-.28s1.2-1.55.09-3c-1.16-1.19-2.74-3-4.06-4.59a1.6,1.6,0,0,0-2.24.06c-.72.85-.53,2.22.45,3.59C46.25,42.29,47.32,43.68,48.42,45Z" fill="#fff"/>
  <path d="M104.14,11.15c-.09-1.63.23-8.71.46-10.19a1,1,0,0,1,1.09-1A11.6,11.6,0,0,1,109,1a11.39,11.39,0,0,1,3.11,1.55A1,1,0,0,1,112.29,4c-.85,1.24-5.47,6.64-6.66,7.78-.24.23-.54.53-1,.35h0C104.17,11.9,104.16,11.48,104.14,11.15Zm15.28,3.13a10.7,10.7,0,0,0-.87-3.29,1,1,0,0,0-1.39-.4c-1.4.59-7.71,4-9.09,5-.27.19-.63.42-.55.89h0c.08.47.49.56.81.64,1.59.4,8.63,1.39,10.14,1.44a1,1,0,0,0,1.18-.87A10.78,10.78,0,0,0,119.42,14.28ZM39.88,11.73c.24.23.53.53,1,.35h0c.45-.18.47-.6.48-.93.1-1.63-.22-8.71-.45-10.19a1,1,0,0,0-1.09-1,11.52,11.52,0,0,0-3.35,1,11.39,11.39,0,0,0-3.11,1.55A1,1,0,0,0,33.22,4C34.06,5.19,38.68,10.59,39.88,11.73ZM38,16.47h0c.08-.47-.28-.7-.56-.89-1.37-.94-7.68-4.39-9.08-5A1,1,0,0,0,27,11a10.7,10.7,0,0,0-.87,3.29,10.48,10.48,0,0,0-.23,3.4,1,1,0,0,0,1.18.87c1.5-.05,8.55-1,10.14-1.44C37.5,17,37.91,16.94,38,16.47ZM62.55,77.32a.65.65,0,0,0-.22-.43L39.22,57.22a.62.62,0,0,0-.42-.15h0a.59.59,0,0,0-.43.22l-5,5.94a.64.64,0,0,0,.07.9L56.45,83.8a.72.72,0,0,0,.46.15.65.65,0,0,0,.44-.23l5-5.94A.6.6,0,0,0,62.55,77.32Z" fill="#50e3c2"/>
  <path d="M112.17,64.12,89.06,83.8h0a.74.74,0,0,1-.47.15.65.65,0,0,1-.43-.23l-5-5.94a.62.62,0,0,1,.07-.89l23.11-19.67a.61.61,0,0,1,.41-.15h0a.59.59,0,0,1,.44.22l5,5.94A.62.62,0,0,1,112.17,64.12Z" fill="#d7ecec"/>
</svg>
