<svg xmlns="http://www.w3.org/2000/svg" viewBox="0 0 148 92">
  <path d="M147.75,52.43l-18.84-19-5.61,5.66,9.25,9.33H.25v8h132.3l-9.25,9.33,5.61,5.67Z" fill="#f4bf7a"/>
  <path d="M93.77,89l17.77-17.74a3.89,3.89,0,0,0,0-5.47l-2.93-2.92a3.88,3.88,0,0,0-5.48,0l-.08.07L85.44,80.5l-.08.08a3.87,3.87,0,0,0,0,5.47L88.29,89a3.78,3.78,0,0,0,1,.73h3.48a3.78,3.78,0,0,0,1-.73" fill="#d7ecec"/>
  <path d="M51.61,89.7h3.47a3.78,3.78,0,0,0,1-.73L59,86.05a3.87,3.87,0,0,0,0-5.47l-.08-.08L41.32,62.91l-.08-.08a3.9,3.9,0,0,0-5.48,0l-2.92,2.93a3.87,3.87,0,0,0,0,5.47L50.6,89a4,4,0,0,0,1,.73" fill="#50e3c2"/>
  <path d="M53.64,91.91a5.53,5.53,0,0,1-3.91-1.61l-3.66-3.66a1.66,1.66,0,0,1,2.34-2.35L52.07,88a2.23,2.23,0,0,0,3.14,0L58.13,85a2.23,2.23,0,0,0,.1-3,1.58,1.58,0,0,1-.8-.81L40.62,64.41a1.58,1.58,0,0,1-.48-.33l-.21-.25a2.16,2.16,0,0,0-1.14-.32,2.23,2.23,0,0,0-1.56.65L34.3,67.08a2.22,2.22,0,0,0,0,3.13L38,73.86a1.66,1.66,0,0,1-2.34,2.35L32,72.55a5.53,5.53,0,0,1,0-7.82l2.93-2.92a5.54,5.54,0,0,1,6.27-1.08l5.52-5.51L46.41,55a5.74,5.74,0,0,1,2.21-9.5,5.74,5.74,0,0,1,1.48-8,5.91,5.91,0,0,1,2.08-.89A5.87,5.87,0,0,1,52,35a5.74,5.74,0,0,1,4.57-5.61,5.93,5.93,0,0,1-.23-1.62A5.74,5.74,0,0,1,62,22h0a5.86,5.86,0,0,1,2,.35,3.07,3.07,0,0,1,.25-.26,4,4,0,0,1,2.84-.92,12.68,12.68,0,0,1,2.22.25l10.94,2.07c.2,0,.41,0,.61,0a5.73,5.73,0,0,1,5.76,5.71,5.66,5.66,0,0,1-.24,1.64A5.74,5.74,0,0,1,91,36.42,5.85,5.85,0,0,1,90.74,38a5.75,5.75,0,0,1,4.57,5.62,5.93,5.93,0,0,1-.23,1.62,5.74,5.74,0,0,1,4.44,6.79A5.66,5.66,0,0,1,98,55l-.27.27,5.52,5.51a5.53,5.53,0,0,1,6.57.94l2.93,2.92a5.52,5.52,0,0,1,0,7.81L94.94,90.15a5.55,5.55,0,0,1-7.82,0l-2.93-2.93a5.55,5.55,0,0,1-.94-6.56l-6.8-6.79a16.51,16.51,0,0,1-1.72.09c-.91,0-1.79-.06-2.64-.12s-1.52-.11-2.21-.11a3.42,3.42,0,0,0-2.39.57l0,0-6.22,6.2a5.54,5.54,0,0,1-.77,6.85L57.54,90.3A5.53,5.53,0,0,1,53.64,91.91Zm52.23-28.55a2.21,2.21,0,0,0-1.57.65L86.54,81.75a2.22,2.22,0,0,0,0,3.13l2.93,2.92a2.22,2.22,0,0,0,3.13,0l17.77-17.74a2.21,2.21,0,0,0,0-3.12L107.44,64A2.19,2.19,0,0,0,105.87,63.36ZM40.54,78.94a1.66,1.66,0,0,0,0,2.34h0a1.66,1.66,0,1,0,0-2.34h0" fill="#28646e"/>
  <path d="M57.93,12.48a1,1,0,0,0,.61-1.31L57,6.9a1,1,0,0,0-1.92.7l1.55,4.27a1,1,0,0,0,1.31.61M36.09,30.8a1,1,0,0,0-.37-1.39h0l-3.94-2.27a1,1,0,1,0-1.09,1.72l.07,0,3.94,2.28a1,1,0,0,0,1.39-.37h0m72.2,0a1,1,0,0,0,1.39.38h0l3.94-2.28a1,1,0,0,0,.43-1.37,1,1,0,0,0-1.38-.43l-.07,0-3.94,2.27a1,1,0,0,0-.37,1.39M86.45,12.48a1,1,0,0,0,1.3-.61L89.31,7.6a1,1,0,1,0-1.92-.7l-1.55,4.27a1,1,0,0,0,.61,1.31m10.42,9.76A2,2,0,0,0,99.74,22l5.84-7a2,2,0,0,0-3.12-2.62l-5.84,7a2,2,0,0,0,.25,2.87m-49.36,0a2,2,0,0,0,.25-2.87l-5.84-7A2,2,0,0,0,38.79,15l5.85,7a2,2,0,0,0,2.87.25m24.68-9a2,2,0,0,0,2-2h0V2.13a2,2,0,0,0-4.08,0v9.09a2,2,0,0,0,2,2" fill="#50e3c2"/>
  <path d="M81.36,67.52A1.66,1.66,0,0,1,83,69.18a1.62,1.62,0,0,1-.49,1.17l-1.47,1.47A6.18,6.18,0,0,1,80,72.7l5.47,5.46,15.27-15.25-5.36-5.35-1.12,1.12a1.65,1.65,0,1,1-2.34-2.34l2.28-2.29h0l1.44-1.44a2.44,2.44,0,1,0-3.44-3.45h0L90.73,50.6a1.66,1.66,0,0,1-2.34-2.34l2.89-2.89a2.43,2.43,0,0,0-3.44-3.44l-1.67,1.66a1.66,1.66,0,1,1-2.34-2.35h0l1.66-1.65,1.45-1.45a2.43,2.43,0,0,0-3.43-3.45l-.22.22-1.45,1.45A1.66,1.66,0,0,1,79.49,34l1.66-1.66,0,0,1.44-1.43a2.44,2.44,0,0,0-1.72-4.15,1.87,1.87,0,0,0-.34,0l-.15,0a2.39,2.39,0,0,0-1.24.66L74.42,32.2a5.74,5.74,0,0,1-4.91,8.74h0a5.73,5.73,0,0,1-5.67,5.79h-.12v0a5.73,5.73,0,0,1-5.74,5.73h0v0a5.76,5.76,0,0,1-8.75,4.9l-5.4,5.39L59,78.08,65.11,72a6.41,6.41,0,0,1,4.77-1.57c.8,0,1.64.06,2.44.12s1.64.11,2.43.11c1.93,0,3.16-.36,4-1.17L80.19,68A1.65,1.65,0,0,1,81.36,67.52ZM50.48,48.46a2.43,2.43,0,0,0-1.72,4.15L50.19,54h0l.21.21a2.43,2.43,0,0,0,3.45-3.43l-1.66-1.66A2.44,2.44,0,0,0,50.48,48.46Zm2.88-8.68a2.43,2.43,0,0,0-1.72,4.14l2.91,2.9,1.66,1.66a2.43,2.43,0,0,0,3.45-3.43l-4.58-4.58a2.46,2.46,0,0,0-1.72-.7Zm4.34-7.23A2.43,2.43,0,0,0,56,36.69l1.43,1.43,0,0L62,42.71a2.44,2.44,0,1,0,3.5-3.39l-.06-.06-6-6a2.4,2.4,0,0,0-1.72-.72ZM62,25.31a2.44,2.44,0,0,0-1.72,4.15l7.48,7.46a2.43,2.43,0,0,0,3.72-3.11l-8.1-8.08A2.53,2.53,0,0,0,62,25.3Zm5-.83a2.07,2.07,0,0,0-.5.05v.16A7.67,7.67,0,0,0,69,28.46a10.31,10.31,0,0,0,2.58,1.87L75.9,26l-7.18-1.37a9,9,0,0,0-1.64-.18Z" fill="#fff"/>
</svg>
