<?xml version="1.0" encoding="utf-8"?>
<!-- Generator: Adobe Illustrator 23.0.1, SVG Export Plug-In . SVG Version: 6.00 Build 0)  -->
<svg version="1.1" xmlns="http://www.w3.org/2000/svg" xmlns:xlink="http://www.w3.org/1999/xlink" x="0px" y="0px"
	 viewBox="0 0 528 324" style="enable-background:new 0 0 528 324;" xml:space="preserve">
<style type="text/css">
	.st0{fill-rule:evenodd;clip-rule:evenodd;fill:#28646E;}
</style>
<path class="st0" d="M141.4,82.1c-0.4,0-0.8-0.1-1.2-0.3L72.8,39.3c-1-0.7-1.3-2-0.6-3.1c0.6-1,1.9-1.3,3-0.7L142.6,78
	c1,0.6,1.3,2,0.7,3C142.9,81.7,142.1,82.1,141.4,82.1 M147.1,119.8c-0.2,0-0.5,0-0.7-0.1l-11.4-3.9c-1.1-0.4-1.8-1.6-1.4-2.8
	c0,0,0,0,0,0c0.4-1.1,1.6-1.8,2.8-1.4l11.4,3.9c1.1,0.4,1.8,1.6,1.4,2.8C148.9,119.2,148,119.8,147.1,119.8 M104.4,105.6
	c-0.2,0-0.5,0-0.7-0.1L35.9,82c-1.1-0.4-1.7-1.7-1.3-2.8c0.4-1.1,1.6-1.7,2.7-1.3l67.8,23.5c1.1,0.4,1.8,1.7,1.4,2.8
	C106.2,105,105.4,105.6,104.4,105.6 M27.2,78.9c-0.2,0-0.5,0-0.7-0.1l-63.3-22c-1.1-0.4-1.7-1.7-1.3-2.8c0.4-1.1,1.6-1.7,2.7-1.3
	l63.3,22c1.1,0.4,1.8,1.6,1.4,2.8C28.9,78.3,28.1,78.9,27.2,78.9 M123.8,249.1c-1.2,0-2.2-1-2.2-2.2c0-0.8,0.4-1.5,1.1-1.9
	l17.2-10.2c1-0.6,2.4-0.3,3,0.8c0,0,0,0,0,0c0.6,1,0.3,2.4-0.8,3c0,0,0,0,0,0l-17.2,10.2C124.5,249,124.2,249.1,123.8,249.1
	 M-42.3,348.1c-1.2,0-2.2-1-2.2-2.2c0-0.8,0.4-1.5,1.1-1.9l155.7-92.8c1-0.6,2.4-0.3,3,0.8c0,0,0,0,0,0c0.6,1,0.3,2.4-0.8,3
	c0,0,0,0,0,0l-155.7,92.8C-41.6,348-42,348.1-42.3,348.1 M492.7,250c-0.3,0-0.5-0.1-0.8-0.2l-104.1-40.7c-1.1-0.4-1.7-1.7-1.2-2.8
	c0.4-1.1,1.7-1.7,2.8-1.2l104.1,40.7c1.1,0.4,1.7,1.7,1.2,2.9C494.4,249.5,493.6,250,492.7,250 M646.2,310.1c-0.3,0-0.5,0-0.8-0.2
	l-142-55.5c-1.1-0.5-1.6-1.8-1.2-2.9c0.5-1.1,1.7-1.6,2.8-1.2l142,55.5c1.1,0.4,1.7,1.7,1.2,2.9C648,309.5,647.2,310.1,646.2,310.1
	 M377.4,130.1c-1.2,0-2.2-1-2.2-2.2c0-1,0.6-1.8,1.6-2.1l244.5-73.2c1.2-0.3,2.4,0.3,2.7,1.5c0.3,1.2-0.3,2.4-1.5,2.7L378,130
	C377.8,130.1,377.6,130.1,377.4,130.1 M426,131.9c-1.2,0-2.2-1-2.2-2.2c0-1.1,0.7-2,1.8-2.2l11-2.1c1.2-0.2,2.3,0.5,2.6,1.7
	c0.2,1.2-0.5,2.3-1.7,2.6l-11,2.1C426.3,131.8,426.1,131.8,426,131.9 M460.9,125c-1.2,0-2.2-1-2.2-2.2c0-1.1,0.7-2,1.8-2.2l44.5-8.7
	c1.2-0.2,2.3,0.5,2.6,1.7c0,0,0,0,0,0c0.2,1.2-0.5,2.3-1.7,2.6c0,0,0,0,0,0l-44.5,8.7C461.1,125,461,125,460.9,125 M448.4,93.5
	c-1.2,0-2.2-1-2.2-2.2c0-0.9,0.6-1.7,1.4-2.1l8.6-3.3c1.1-0.4,2.4,0.2,2.8,1.4c0.4,1.1-0.2,2.3-1.2,2.8l-8.6,3.3
	C448.9,93.5,448.7,93.5,448.4,93.5 M481,81c-1.2,0-2.2-1-2.2-2.2c0-0.9,0.6-1.7,1.4-2.1L518.6,62c1.1-0.4,2.4,0.1,2.8,1.3
	c0.4,1.1-0.1,2.4-1.3,2.8l0,0l-38.3,14.8C481.6,80.9,481.3,81,481,81 M458.3,287.8c-0.4,0-0.8-0.1-1.2-0.4l-57-37.7
	c-1-0.7-1.3-2-0.6-3c0.7-1,2-1.3,3-0.6l57,37.7c1,0.7,1.3,2,0.6,3.1C459.8,287.4,459.1,287.8,458.3,287.8 M484.9,305.3
	c-0.4,0-0.9-0.1-1.2-0.4l-14.8-9.8c-1-0.7-1.2-2.1-0.6-3.1c0.7-1,2-1.2,3-0.6l14.8,9.8c1,0.7,1.3,2,0.6,3
	C486.3,305,485.6,305.3,484.9,305.3 M341.3,68.3c-1.2,0-2.2-1-2.2-2.2c0-0.5,0.2-0.9,0.4-1.3l94.9-127.1c0.7-1,2.1-1.2,3.1-0.5
	c1,0.7,1.2,2.1,0.5,3.1c0,0-0.1,0.1-0.1,0.1L343.1,67.4C342.7,68,342,68.3,341.3,68.3 M334.3,47c-1.2,0-2.2-1-2.2-2.2
	c0-0.4,0.1-0.7,0.3-1.1l14.2-25.9c0.6-1.1,1.9-1.5,3-0.9c1.1,0.6,1.5,1.9,0.9,3c0,0,0,0,0,0l-14.2,25.9
	C335.8,46.6,335.1,47,334.3,47 M454.1,263.4c-0.4,0-0.7-0.1-1.1-0.3l-19.8-10.9c-1.1-0.6-1.4-1.9-0.9-3c0.6-1.1,1.9-1.4,3-0.9
	l19.8,10.9c1.1,0.6,1.4,1.9,0.9,3C455.6,263,454.9,263.4,454.1,263.4 M357.7,291.9c-0.7,0-1.4-0.3-1.8-1l-9.1-13.3
	c-0.7-1-0.4-2.4,0.6-3.1c1-0.7,2.3-0.4,3,0.6l9.1,13.3c0.7,1,0.4,2.4-0.6,3.1C358.6,291.7,358.1,291.9,357.7,291.9 M373.1,277.8
	c-0.6,0-1.2-0.3-1.6-0.7l-7.9-8.8c-0.8-0.9-0.7-2.3,0.3-3.1c0.9-0.7,2.2-0.7,3,0.2l7.9,8.8c0.8,0.9,0.7,2.3-0.2,3.1
	C374.1,277.6,373.6,277.8,373.1,277.8 M463.5,378c-0.6,0-1.2-0.2-1.6-0.7L378,284.4c-0.8-0.9-0.7-2.3,0.2-3.1
	c0.9-0.8,2.3-0.7,3.1,0.2c0,0,0,0,0,0l83.8,92.9c0.8,0.9,0.7,2.3-0.2,3.1C464.6,377.8,464.1,378,463.5,378 M52.7,255.8
	c-1.2,0-2.2-1-2.2-2.2c0-0.9,0.5-1.7,1.3-2l98.6-42.5c1.1-0.5,2.4,0,2.9,1.1c0,0,0,0,0,0c0.5,1.1,0,2.4-1.1,2.9c0,0,0,0,0,0
	l-98.6,42.5C53.3,255.7,53,255.8,52.7,255.8 M85.9,63.6c-0.4,0-0.7-0.1-1-0.3L64.8,52.5c-1.1-0.6-1.5-1.9-0.9-3c0,0,0,0,0,0
	c0.6-1.1,1.9-1.5,3-0.9c0,0,0,0,0,0l20.1,10.8c1.1,0.6,1.5,1.9,0.9,3C87.4,63.1,86.7,63.6,85.9,63.6 M50.9,44.7
	c-0.4,0-0.7-0.1-1-0.3L-7.3,13.6c-1.1-0.6-1.5-1.9-0.9-3s1.9-1.5,3-0.9L52,40.6c1.1,0.6,1.5,1.9,0.9,3
	C52.5,44.3,51.7,44.7,50.9,44.7 M182.5,45.4c0,2.2-1.8,4-4,4c-2.2,0-4-1.8-4-4s1.8-4,4-4C180.7,41.4,182.5,43.2,182.5,45.4
	 M26.4,106c0,3.1-2.4,5.6-5.5,5.7c-3.1,0-5.6-2.4-5.7-5.5c0,0,0-0.1,0-0.1c0-3.1,2.6-5.6,5.7-5.5C23.9,100.5,26.3,103,26.4,106
	 M444.2,40.7c0,3.1-2.5,5.6-5.6,5.6c-3.1,0-5.6-2.5-5.6-5.6c0-3.1,2.5-5.6,5.6-5.6l0,0C441.7,35.1,444.2,37.6,444.2,40.7
	 M521.4,181.4c0,3.1-2.5,5.6-5.6,5.6s-5.6-2.5-5.6-5.6s2.5-5.6,5.6-5.6S521.4,178.3,521.4,181.4 M50.5,199c0,2.2-1.8,4-4,4
	s-4-1.8-4-4c0-2.2,1.8-4,4-4C48.7,195,50.5,196.8,50.5,199C50.5,199,50.5,199,50.5,199 M129.4,275.5c0,2.2-1.8,4-4,4
	c-2.2,0-4-1.8-4-4c0-2.2,1.8-4,4-4C127.5,271.5,129.4,273.3,129.4,275.5 M408.6,190.2c0,2.2-1.8,4-4,4s-4-1.8-4-4c0,0,0,0,0,0
	c0-2.2,1.8-4,4-4C406.8,186.2,408.6,188,408.6,190.2 M425.9,80.3c0,1-0.8,1.9-1.9,1.9c-1,0-1.9-0.8-1.9-1.9s0.8-1.9,1.9-1.9
	C425.1,78.4,425.9,79.2,425.9,80.3L425.9,80.3 M213.4,54.6c0,1-0.8,1.9-1.9,1.9s-1.9-0.8-1.9-1.9c0,0,0,0,0,0c0-1,0.8-1.9,1.9-1.9
	C212.6,52.7,213.4,53.5,213.4,54.6 M498.8,148.1c0,1-0.8,1.9-1.9,1.9c-1,0-1.9-0.8-1.9-1.9s0.8-1.9,1.9-1.9
	C498,146.2,498.8,147.1,498.8,148.1 M378.3,246.4c0,1-0.8,1.9-1.9,1.9s-1.9-0.8-1.9-1.9c0,0,0,0,0,0c0-1,0.8-1.9,1.9-1.9
	C377.5,244.5,378.3,245.3,378.3,246.4 M239,275.2c0,1-0.8,1.9-1.9,1.9s-1.9-0.8-1.9-1.9c0,0,0,0,0,0c0-1,0.8-1.9,1.9-1.9
	C238.2,273.3,239,274.2,239,275.2 M135.6,147.8c0,1-0.8,1.9-1.9,1.9c-1,0-1.9-0.8-1.9-1.9c0,0,0,0,0,0c0-1,0.8-1.9,1.9-1.9
	C134.8,145.9,135.6,146.8,135.6,147.8 M77.3,208.8c0,1-0.8,1.9-1.8,1.9c-1,0-1.9-0.8-1.9-1.8c0,0,0-0.1,0-0.1c0-1,0.9-1.9,1.9-1.8
	C76.5,207,77.3,207.8,77.3,208.8"/>
</svg>
