<svg width="120" height="25" viewBox="0 0 120 25" fill="none" xmlns="http://www.w3.org/2000/svg">
<path fill-rule="evenodd" clip-rule="evenodd" d="M60.6207 5.36355H63.3646V0H67.7037V5.36355H70.7586V9.38607H67.7037V20.3529H70.6546V24.3754H63.3646V9.38607H60.6207H57.5658V20.3529H60.5167V24.3754H53.2267V9.38607H50.2758V5.36355H53.2267V0H57.5658V5.36355H60.6207ZM0 24.3754V0H5.91273L12.5518 18.5651H12.6552L19.2942 0H25.2416V24.3754H20.9884V7.1514H20.8503C20.6428 7.90773 20.4349 8.73273 20.0547 9.76424L14.6261 24.3754H10.6496L5.2211 9.76424C4.84089 8.73273 4.59879 7.90773 4.42602 7.1514H4.28736V24.3754H0ZM37.3142 25C31.9175 25 27.9311 20.5484 27.9311 15.0004C27.9311 9.45252 31.9175 5.00033 37.3142 5.00033C40.6821 5.00033 43.294 6.81531 44.4968 9.3152H44.6344V5.54793H48.8277V24.4867H44.6344V20.7881H44.4968C42.8472 23.7675 40.3729 25 37.3142 25ZM38.0344 21.0417C41.4827 21.0417 43.8619 18.4377 43.8619 15.0004C43.8619 11.5283 41.4827 8.95863 38.0344 8.95863C34.6208 8.95863 32.2757 11.5283 32.2757 15.0004C32.2757 18.4377 34.6208 21.0417 38.0344 21.0417ZM82.0344 25C76.1684 25 71.5861 20.472 71.5861 14.9146C71.5861 9.35728 76.1684 5.00033 82.0344 5.00033C87.9009 5.00033 92.4826 9.35728 92.4826 15.0519C92.4826 15.3603 92.448 15.9096 92.344 16.424H76.2377C76.7236 19.0313 79.188 20.9863 82.1037 20.9863C84.3948 20.9863 86.3041 19.9233 87.2065 18.002H91.9968C90.6427 22.0843 86.8246 25 82.0344 25ZM76.345 13.1257H87.7243C87.3413 10.7387 85.0793 8.75044 82.0173 8.75044C78.9548 8.75044 76.6581 10.5942 76.345 13.1257ZM94.3451 24.3754V5.41726H105.724V9.42815H98.6507V24.3754H94.3451ZM112.897 25C108.789 25 105.724 22.2559 105.724 18.9283H110.077C110.111 20.163 111.365 21.055 112.966 21.055C114.673 21.055 115.752 20.2322 115.752 18.9969C115.752 17.4189 114.046 17.0757 112.305 16.6299C108.684 15.738 106.107 14.2629 106.107 10.798C106.107 7.53898 109.102 5.00033 113.036 5.00033C116.831 5.00033 119.965 7.57331 119.965 10.9353L115.612 10.901C115.612 9.63136 114.394 8.91101 113.036 8.91101C111.643 8.91101 110.46 9.59703 110.46 10.7636C110.46 12.17 112.131 12.5133 113.872 12.959C116.448 13.6112 120 14.4684 120 18.9283C120 22.2903 116.797 25 112.897 25Z" fill="black" fill-opacity="0.85"/>
</svg>
