<svg width="126" height="26" viewBox="0 0 126 26" fill="none" xmlns="http://www.w3.org/2000/svg">
<path fill-rule="evenodd" clip-rule="evenodd" d="M68.2547 2.95231C68.2547 1.3626 69.4978 0 71.1928 0C72.7749 0 74.1309 1.3626 74.1309 2.95231C74.1309 4.54202 72.7749 6.01817 71.1928 6.01817C69.4978 6.01817 68.2547 4.65557 68.2547 2.95231ZM63.6215 22.1423C63.6215 22.5965 63.6215 22.7101 63.9605 22.9372L65.6556 24.5269V24.6404H58.3103V21.5746C57.5193 23.6185 55.5982 24.9811 53.4511 24.9811C49.722 24.9811 46.8969 22.0288 46.8969 16.4648C46.8969 11.355 49.835 7.83498 54.0161 7.83498C55.8242 7.72143 57.5193 8.74338 58.3103 10.5602V3.63361C58.3103 3.29296 58.1973 2.95231 57.9713 2.83876L56.3892 1.24905V1.1355L63.7345 0.227101V22.1423H63.6215ZM58.1973 21.2339V10.7873C57.6323 10.106 56.8413 9.76533 56.0502 9.76533C54.2422 9.76533 52.5471 11.355 52.5471 16.2377C52.5471 20.7797 54.0161 22.3694 55.9372 22.3694C56.8413 22.483 57.7453 22.0288 58.1973 21.2339ZM68.4807 10.6737V24.754H75.826V24.6404L74.2439 23.0507C73.9049 22.8236 73.9049 22.7101 73.9049 22.2559V8.06208H66.5596V8.17563L68.1417 9.87889C68.3677 9.99244 68.4807 10.3331 68.4807 10.6737ZM94.0197 22.9372C93.6807 22.7101 93.6807 22.5965 93.6807 22.1423V8.06208H86.3354V8.28918L87.9175 9.99244C88.1435 10.106 88.2565 10.4466 88.2565 10.7873V20.6662C87.8045 21.461 86.9005 22.0288 85.8834 22.1423C84.0753 22.1423 83.6233 20.0984 83.6233 17.1461V8.06208H76.6095L76.504 7.94853V8.06208H76.6095L78.0861 9.65178C78.3121 9.87888 78.4251 10.106 78.4251 10.4466C78.3121 13.1718 78.3121 15.67 78.3121 17.8274C78.3121 22.483 80.0072 24.8675 83.2843 24.8675C85.6574 24.8675 87.6915 23.2778 88.3695 21.0068V24.6404H95.7148V24.5269L94.0197 22.9372ZM118.542 24.754C118.542 24.7284 118.542 24.6902 118.542 24.6404H126V24.5269L124.418 22.9372C124.192 22.8236 123.966 22.483 124.079 22.1423C124.079 20.7742 124.11 19.406 124.139 18.1032V18.1029V18.1026V18.1023C124.166 16.9184 124.192 15.7885 124.192 14.7616C124.192 10.2195 122.384 7.72143 119.107 7.72143C116.621 7.60788 114.361 9.31113 113.57 11.6957C112.891 9.08403 111.309 7.72143 108.823 7.72143C106.45 7.60788 104.303 9.19758 103.625 11.5821V8.06208H96.2798V8.28918L97.8619 9.99244C98.0879 10.106 98.2009 10.4466 98.2009 10.7873V24.9811H105.546V24.8675L103.964 23.2778C103.625 23.0507 103.625 22.9372 103.625 22.483V12.2634C104.19 11.355 105.094 10.7873 106.111 10.7873C108.145 10.7873 108.597 12.8312 108.597 15.8971C108.597 16.9323 108.549 20.231 108.516 22.5315L108.516 22.5323V22.5325L108.516 22.536L108.516 22.537L108.515 22.5676C108.498 23.7819 108.484 24.7107 108.484 24.8675H115.83V24.754L114.135 23.1643C113.909 22.9372 113.796 22.7101 113.796 22.3694C113.796 20.9837 113.827 19.566 113.857 18.235L113.857 18.2341C113.884 17.057 113.909 15.9478 113.909 14.9887C113.909 14.0802 113.796 13.0583 113.57 12.1499C114.135 11.2415 115.152 10.6737 116.169 10.6737C118.203 10.6737 118.655 12.8312 118.655 15.7835C118.655 16.7783 118.61 19.8183 118.577 22.0935L118.577 22.0955L118.577 22.0963L118.577 22.1302C118.56 23.3108 118.546 24.2798 118.542 24.6404H118.542V24.754ZM28.7031 24.6404L26.5561 22.483C26.33 22.3694 26.217 22.0288 26.217 21.8017V4.54202C26.217 4.31492 26.33 3.97426 26.5561 3.74716L28.7031 1.24905V1.1355H21.0188L15.2556 15.7835L8.70135 1.1355H0.791031V1.24905L2.82511 4.08781C3.27713 4.54202 3.39013 5.22332 3.39013 5.79107V18.2816C3.50314 18.9629 3.39013 19.7578 3.05112 20.4391L0 24.6404V24.754H8.13632V24.6404L5.0852 20.5526C4.74619 19.8713 4.63318 19.19 4.74619 18.3952V7.04012C4.78386 7.11582 4.82152 7.16629 4.85919 7.21676C4.93453 7.31769 5.00987 7.41863 5.0852 7.72143L12.7695 24.9811H12.8825L20.3408 6.24527C20.2278 6.92657 20.2278 7.72143 20.2278 8.28918V21.6881C20.2278 22.0288 20.1148 22.2559 19.8888 22.483L17.6287 24.6404V24.754H28.7031V24.6404ZM39.8906 21.8017C37.3144 21.8017 35.1823 20.1283 35.1449 15.8971H44.9758V14.9887C44.9758 9.65178 41.2466 7.94853 37.7435 7.94853C33.4493 7.94853 29.4942 10.3331 29.4942 16.5784C29.4942 22.483 33.4493 24.9811 37.6305 24.9811C41.4726 24.9811 44.0718 22.9372 44.9758 18.7358H44.8628C43.9587 20.6662 42.0377 21.9152 39.8906 21.8017ZM40.0036 14.8751H35.1444C35.1444 10.2195 36.1614 8.51628 37.7435 8.40273C39.0996 8.40273 40.0036 9.53823 40.0036 13.9667V14.8751Z" fill="#292929"/>
</svg>
