<svg width="140" height="26" viewBox="0 0 140 26" fill="none" xmlns="http://www.w3.org/2000/svg">
<path d="M46.8908 19.6987L41.1342 5.38044C40.9161 4.82243 40.3838 4.45437 39.7895 4.45068H36.9711L45.3987 24.2545H48.3L56.7737 4.45068H54.0105C53.4163 4.45437 52.8839 4.82243 52.6658 5.38044L46.8908 19.6987Z" fill="#FF485A"/>
<path fill-rule="evenodd" clip-rule="evenodd" d="M61.0705 7.03058C62.9753 5.10768 65.5653 4.0374 68.2592 4.05992C70.9439 4.02494 73.5299 5.08097 75.4354 6.99046C77.3408 8.89996 78.4058 11.5026 78.3908 14.2129V14.2873C78.4111 19.9357 73.8915 24.5312 68.296 24.5518C62.7005 24.5723 58.148 20.01 58.1276 14.3616V14.2873C58.1053 11.568 59.1656 8.95348 61.0705 7.03058ZM63.4732 19.2542C64.7207 20.5835 66.4456 21.3501 68.2592 21.3813C70.0599 21.3681 71.7776 20.6151 73.0166 19.296C74.2556 17.9769 74.909 16.2054 74.8263 14.3895V14.3151C74.8934 12.4755 74.2243 10.686 72.9699 9.34976C71.7155 8.01355 69.9813 7.24303 68.1579 7.2118C64.4737 7.2118 61.6276 10.2335 61.6276 14.2408V14.3151C61.5605 16.1449 62.2257 17.925 63.4732 19.2542Z" fill="#FF485A"/>
<path d="M96.8579 19.0757C95.5384 20.5126 93.696 21.3452 91.7553 21.3815C89.9457 21.3454 88.2264 20.5763 86.9844 19.2473C85.7423 17.9183 85.0818 16.141 85.1513 14.3153V14.2409C85.1513 10.2988 87.9698 7.21197 91.5987 7.21197C93.3967 7.22824 95.1139 7.96782 96.3698 9.26674L96.6 9.48988C96.7858 9.68419 97.0418 9.79394 97.3092 9.79394C97.5767 9.79394 97.8327 9.68419 98.0184 9.48988L99.6119 7.78842L99.4092 7.56528C96.6245 4.36009 92.1623 3.23483 88.2115 4.7415C84.2607 6.24817 81.6502 10.0707 81.6606 14.3339V14.4083C81.65 18.7201 84.3385 22.5683 88.3656 24.0057C92.3927 25.443 96.8799 24.1559 99.5566 20.7957L99.7684 20.5633L98.2027 19.085C98.0294 18.9061 97.792 18.8052 97.5441 18.8052C97.2962 18.8052 97.0588 18.9061 96.8856 19.085L96.8579 19.0757Z" fill="#FF485A"/>
<path d="M133.322 12.6416H133.249C130.918 11.9256 128.708 11.2469 128.708 9.70352V9.62914C128.708 8.16942 130.043 7.19318 132.033 7.19318C133.722 7.24583 135.371 7.73221 136.822 8.60641C137.32 8.89199 137.952 8.72734 138.25 8.23451L139.3 6.46797L139.079 6.29131C137.009 4.92524 134.598 4.1775 132.125 4.13428C128.164 4.13428 125.401 6.50516 125.401 9.89877V9.97315C125.401 13.8038 129.086 14.873 131.849 15.654C134.382 16.3699 136.316 17.0486 136.316 18.685V18.7594C136.316 20.3678 134.879 21.4557 132.742 21.4557C130.72 21.4074 128.757 20.7608 127.096 19.5961C126.561 19.2273 125.831 19.3597 125.457 19.8937L124.342 21.4371L124.582 21.623C126.864 23.4347 129.673 24.4407 132.576 24.4867C136.776 24.4867 139.595 22.0693 139.595 18.4711V18.3968C139.595 14.5476 135.818 13.404 133.322 12.6416Z" fill="#FF485A"/>
<path d="M111.632 21.4561C108.574 21.4561 106.75 19.4292 106.75 16.0449V6.07788C106.75 5.2717 106.103 4.61816 105.304 4.61816H103.305V16.705C103.305 21.5212 106.262 24.6358 110.83 24.6358C112.834 24.7208 114.783 23.9673 116.218 22.5532V18.8342C115.294 20.504 113.525 21.515 111.632 21.4561Z" fill="#FF485A"/>
<path d="M119.461 4.61816H117.49V22.8786C117.495 23.6503 118.116 24.2733 118.88 24.2732H120.907V6.07788C120.907 5.2717 120.259 4.61816 119.461 4.61816Z" fill="#FF485A"/>
<path fill-rule="evenodd" clip-rule="evenodd" d="M23.2934 0.238777L0 0.23877V18.5643C0.0303525 21.8941 2.71573 24.5758 6.01447 24.5705L29.3079 24.5705V6.24501C29.2775 2.91523 26.5922 0.233529 23.2934 0.238777ZM16.1737 13.7203H6.21711C4.85739 13.6948 3.77421 12.564 3.79474 11.1913V3.95781H13.7605C15.1166 3.9883 16.1943 5.11765 16.1737 6.48675V13.7203ZM19.1211 20.7399H25.5684L25.5592 16.5002C25.5341 15.6565 24.8386 14.9918 24.0026 15.0126H17.5553V19.2616C17.5853 20.1054 18.2851 20.7661 19.1211 20.7399Z" fill="#FF485A"/>
</svg>
