<svg width="206" height="42" viewBox="0 0 206 42" fill="none" xmlns="http://www.w3.org/2000/svg">
<path fill-rule="evenodd" clip-rule="evenodd" d="M117.221 29.7051H116.895C115.217 29.7051 114.984 29.2863 114.984 27.1461V17.05H117.221C122.07 17.05 122.955 20.5856 122.955 23.3308C122.955 26.1689 122.07 29.7051 117.221 29.7051ZM97.5483 23.2374V17.05H99.4595C101.557 17.05 102.49 18.4919 102.49 20.1668C102.49 21.7955 101.557 23.2374 99.4595 23.2374H97.5483ZM117.082 15.6543H108.737V16.5379C111.347 16.5379 111.767 17.0962 111.767 20.3998V26.3553C111.767 29.6585 111.347 30.2634 108.737 30.2634C106.732 29.9842 105.38 28.9138 103.515 26.8669L101.371 24.5408C104.261 24.0287 105.8 22.2142 105.8 20.1668C105.8 17.6084 103.609 15.6543 99.5063 15.6543H91.3011V16.5379C93.9116 16.5379 94.3312 17.0962 94.3312 20.3998V26.3553C94.3312 29.6585 93.9116 30.2634 91.3011 30.2634V31.147H100.578V30.2634C97.9679 30.2634 97.5483 29.6585 97.5483 26.3553V24.6804H98.3407L103.515 31.147H117.082C123.748 31.147 126.638 27.6114 126.638 23.377C126.638 19.1436 123.748 15.6543 117.082 15.6543Z" fill="#32373C"/>
<path fill-rule="evenodd" clip-rule="evenodd" d="M65.3352 24.9594L68.5518 15.4673C69.4846 12.7226 69.065 11.9319 66.0813 11.9319V11.001H74.8459V11.9319C71.9088 11.9319 71.2097 12.6296 70.0441 16.0262L64.7291 31.9382H64.1233L59.3678 17.3753L54.5198 31.9382H53.9135L48.7389 16.0262C47.6201 12.6296 46.8741 11.9319 44.1701 11.9319V11.001H54.5198V11.9319C51.7689 11.9319 51.0229 12.583 52.0023 15.4673L55.1254 24.9594L59.8341 11.001H60.7201L65.3352 24.9594Z" fill="#32373C"/>
<path fill-rule="evenodd" clip-rule="evenodd" d="M81.185 16.4918C76.8963 16.4918 75.4042 20.3532 75.4042 23.3772C75.4042 26.4483 76.8963 30.2634 81.185 30.2634C85.521 30.2634 87.0125 26.4483 87.0125 23.3772C87.0125 20.3532 85.521 16.4918 81.185 16.4918ZM81.185 31.7521C76.0572 31.7521 71.861 27.9836 71.861 23.3772C71.861 18.8179 76.0572 15.0488 81.185 15.0488C86.3134 15.0488 90.5089 18.8179 90.5089 23.3772C90.5089 27.9836 86.3134 31.7521 81.185 31.7521Z" fill="#32373C"/>
<path fill-rule="evenodd" clip-rule="evenodd" d="M137.127 12.6759H134.47V20.7716H137.127C139.738 20.7716 140.95 18.9573 140.95 16.7707C140.95 14.5376 139.738 12.6759 137.127 12.6759ZM138.153 30.2165V31.1469H127.477V30.2165C130.601 30.2165 131.16 29.4257 131.16 24.7727V17.329C131.16 12.6759 130.601 11.9319 127.477 11.9319V11.001H137.127C141.929 11.001 144.587 13.4672 144.587 16.7707C144.587 19.981 141.929 22.4933 137.127 22.4933H134.47V24.7727C134.47 29.4257 135.029 30.2165 138.153 30.2165Z" fill="#32373C"/>
<path fill-rule="evenodd" clip-rule="evenodd" d="M151.906 23.2374V17.05H153.817C155.915 17.05 156.847 18.4919 156.847 20.1668C156.847 21.7955 155.915 23.2374 153.817 23.2374H151.906ZM176.613 26.7741L176.38 27.6114C175.96 29.1467 175.447 29.7051 172.138 29.7051H171.485C169.061 29.7051 168.641 29.1467 168.641 25.8432V23.7033C172.277 23.7033 172.557 24.0287 172.557 26.4481H173.443V19.5156H172.557C172.557 21.9351 172.277 22.2603 168.641 22.2603V17.05H171.205C174.515 17.05 175.028 17.6084 175.447 19.1436L175.681 20.0272H176.426L176.1 15.6543H162.394V16.5379C165.005 16.5379 165.424 17.0961 165.424 20.3998V26.3553C165.424 29.377 165.068 30.1383 163.01 30.2466C161.053 29.9488 159.71 28.8838 157.873 26.8669L155.728 24.5408C158.619 24.0287 160.157 22.2142 160.157 20.1668C160.157 17.6084 157.966 15.6543 153.864 15.6543H145.659V16.5379C148.269 16.5379 148.689 17.0961 148.689 20.3998V26.3553C148.689 29.6583 148.269 30.2634 145.659 30.2634V31.147H154.936V30.2634C152.325 30.2634 151.906 29.6583 151.906 26.3553V24.6804H152.698L157.873 31.147H177.033L177.312 26.7741H176.613Z" fill="#32373C"/>
<path fill-rule="evenodd" clip-rule="evenodd" d="M186.077 31.7521C184.212 31.7521 182.58 30.775 181.881 30.1701C181.648 30.403 181.228 31.1009 181.135 31.7521H180.249V25.3318H181.181C181.555 28.4024 183.699 30.2168 186.449 30.2168C187.941 30.2168 189.154 29.3793 189.154 27.9836C189.154 26.7741 188.081 25.8432 186.17 24.9596L183.513 23.7035C181.648 22.8188 180.249 21.2835 180.249 19.2367C180.249 17.0034 182.347 15.0961 185.238 15.0961C186.776 15.0961 188.081 15.6545 188.874 16.3055C189.107 16.1193 189.34 15.6072 189.48 15.0488H190.365V20.5395H189.387C189.06 18.3525 187.848 16.5381 185.378 16.5381C184.072 16.5381 182.86 17.2826 182.86 18.4459C182.86 19.6552 183.839 20.3066 186.077 21.3303L188.64 22.5864C190.879 23.6562 191.764 25.3784 191.764 26.7741C191.764 29.7052 189.2 31.7521 186.077 31.7521Z" fill="#32373C"/>
<path fill-rule="evenodd" clip-rule="evenodd" d="M200.173 31.7521C198.308 31.7521 196.676 30.775 195.977 30.1701C195.744 30.403 195.324 31.1009 195.231 31.7521H194.346V25.3318H195.278C195.651 28.4024 197.795 30.2168 200.546 30.2168C202.038 30.2168 203.25 29.3793 203.25 27.9836C203.25 26.7741 202.177 25.8432 200.266 24.9596L197.609 23.7035C195.744 22.8188 194.346 21.2835 194.346 19.2367C194.346 17.0034 196.443 15.0961 199.334 15.0961C200.873 15.0961 202.177 15.6545 202.97 16.3055C203.203 16.1193 203.436 15.6072 203.576 15.0488H204.462V20.5395H203.483C203.156 18.3525 201.944 16.5381 199.474 16.5381C198.169 16.5381 196.956 17.2826 196.956 18.4459C196.956 19.6552 197.935 20.3066 200.173 21.3303L202.737 22.5864C204.975 23.6562 205.86 25.3784 205.86 26.7741C205.86 29.7052 203.296 31.7521 200.173 31.7521Z" fill="#32373C"/>
<path fill-rule="evenodd" clip-rule="evenodd" d="M21.0929 0.11377C9.50655 0.11377 0.113831 9.48771 0.113831 21.0509C0.113831 32.6142 9.50655 41.9881 21.0929 41.9881C32.6793 41.9881 42.0721 32.6142 42.0721 21.0509C42.0721 9.48771 32.6793 0.11377 21.0929 0.11377ZM21.0929 1.37006C23.7557 1.37006 26.3382 1.89012 28.7687 2.91612C29.9368 3.40918 31.0637 4.01959 32.1179 4.73042C33.1624 5.43471 34.1447 6.24348 35.0373 7.13448C35.9301 8.0253 36.7405 9.00559 37.4462 10.048C38.1584 11.1001 38.77 12.2248 39.2641 13.3905C40.2921 15.8161 40.8132 18.3935 40.8132 21.0509C40.8132 23.7084 40.2921 26.2858 39.2641 28.7114C38.77 29.8771 38.1584 31.0018 37.4462 32.0539C36.7405 33.0963 35.9301 34.0766 35.0373 34.9674C34.1447 35.8584 33.1624 36.6672 32.1179 37.3715C31.0637 38.0823 29.9368 38.6927 28.7687 39.1858C26.3382 40.2118 23.7557 40.7318 21.0929 40.7318C18.4301 40.7318 15.8476 40.2118 13.4174 39.1858C12.2491 38.6927 11.1222 38.0823 10.068 37.3715C9.02346 36.6672 8.04121 35.8584 7.1486 34.9674C6.25581 34.0766 5.44543 33.0963 4.73972 32.0539C4.02765 31.0018 3.41584 29.8771 2.9218 28.7114C1.89374 26.2858 1.37264 23.7084 1.37264 21.0509C1.37264 18.3935 1.89374 15.8161 2.9218 13.3905C3.41584 12.2248 4.02765 11.1001 4.73972 10.048C5.44543 9.00559 6.25581 8.0253 7.1486 7.13448C8.04121 6.24348 9.02346 5.43471 10.068 4.73042C11.1222 4.01959 12.2491 3.40918 13.4174 2.91612C15.8476 1.89012 18.4301 1.37006 21.0929 1.37006Z" fill="#32373C"/>
<path fill-rule="evenodd" clip-rule="evenodd" d="M36.4346 12.68C36.5095 13.2357 36.5521 13.8318 36.5521 14.474C36.5521 16.2438 36.2199 18.234 35.2222 20.723L29.8827 36.1306C35.0803 33.1064 38.5755 27.4867 38.5755 21.0501C38.5755 18.0166 37.7989 15.1649 36.4346 12.68ZM21.4001 22.5763L16.1539 37.7875C17.7207 38.2474 19.377 38.4983 21.0929 38.4983C23.1289 38.4983 25.0819 38.1477 26.899 37.5092C26.8521 37.4346 26.809 37.3553 26.7734 37.2687L21.4001 22.5763ZM32.8952 20.1701C32.8952 18.0131 32.1188 16.5203 31.4539 15.3584C30.5677 13.9206 29.7366 12.7041 29.7366 11.2663C29.7366 9.66267 30.9551 8.16973 32.6724 8.16973C32.7501 8.16973 32.8235 8.17909 32.8988 8.18385C29.7884 5.33967 25.6444 3.60303 21.0929 3.60303C14.9849 3.60303 9.61194 6.73079 6.48569 11.4669C6.89627 11.4798 7.28299 11.4881 7.611 11.4881C9.43918 11.4881 12.2705 11.2663 12.2705 11.2663C13.2124 11.2112 13.3238 12.593 12.3822 12.7041C12.3822 12.7041 11.4348 12.8148 10.3815 12.8699L16.7477 31.7688L20.5741 20.3176L17.8505 12.8699C16.9086 12.8148 16.0169 12.7041 16.0169 12.7041C15.0744 12.6486 15.1849 11.2112 16.1277 11.2663C16.1277 11.2663 19.0142 11.4881 20.732 11.4881C22.5602 11.4881 25.3921 11.2663 25.3921 11.2663C26.3344 11.2112 26.4452 12.593 25.5033 12.7041C25.5033 12.7041 24.555 12.8148 23.5027 12.8699L29.8206 31.625L31.6242 25.9214C32.4254 23.429 32.8952 21.663 32.8952 20.1701ZM3.61035 21.0501C3.61035 27.956 7.63151 33.9244 13.4639 36.7521L5.12414 13.9495C4.15409 16.1192 3.61035 18.5204 3.61035 21.0501Z" fill="#32373C"/>
</svg>
