<svg xmlns="http://www.w3.org/2000/svg" viewBox="0 0 24 24">
  <path
    d="M7.69,18.56h0a6.21,6.21,0,0,1-3.62-1.2A4.23,4.23,0,0,1,3,16.24,20.54,20.54,0,0,1,5.22,7.35a7.61,7.61,0,0,1,4.29-1.6h0l.16.18a10.32,10.32,0,0,0-4,2h0c.1,0,.41-.21.87-.41a11.84,11.84,0,0,1,3.5-1h0l.23,0a12.78,12.78,0,0,1,7.74,1.43A10.12,10.12,0,0,0,14.22,6l.21-.25h0a7.61,7.61,0,0,1,4.29,1.6A20.53,20.53,0,0,1,21,16.24v0a5.72,5.72,0,0,1-4.68,2.29l0-.05-1-1.18A4.94,4.94,0,0,0,18,15.51a8.93,8.93,0,0,1-1.77.9,10.79,10.79,0,0,1-2.23.66,10.42,10.42,0,0,1-1.93.18,11.67,11.67,0,0,1-2-.19,11.85,11.85,0,0,1-2.27-.67,8.1,8.1,0,0,1-1.12-.52l-.07,0-.07,0,0,0,0,0C6.19,15.61,6,15.5,6,15.5a4.87,4.87,0,0,0,2.69,1.8c-.45.57-1,1.24-1,1.26Zm7-7.13a1.62,1.62,0,0,0-1.57,1.66v0a1.63,1.63,0,0,0,1.57,1.69,1.61,1.61,0,0,0,1.57-1.66v0a1.63,1.63,0,0,0-1.57-1.69Zm-5.61,0a1.61,1.61,0,0,0-1.57,1.66v0a1.63,1.63,0,0,0,1.57,1.69,1.62,1.62,0,0,0,1.57-1.66v0a1.7,1.7,0,0,0-.48-1.23,1.5,1.5,0,0,0-1.09-.46Z"
    fill="currentColor"
  />
</svg>
