<svg xmlns="http://www.w3.org/2000/svg" viewBox="0 0 24 24">
  <g fill="currentColor">
    <path d="M12,4.35A7.84,7.84,0,0,0,9.52,19.63c.39.07.54-.17.54-.37s0-.8,0-1.46c-2.18.47-2.64-.93-2.64-.93a2.14,2.14,0,0,0-.88-1.15c-.71-.48.06-.47.06-.47a1.67,1.67,0,0,1,1.2.81,1.67,1.67,0,0,0,2.26.66h0a1.68,1.68,0,0,1,.5-1.05C8.83,15.46,7,14.79,7,11.78a3.1,3.1,0,0,1,.8-2.1,2.85,2.85,0,0,1,.08-2.07s.66-.21,2.16.8a7.45,7.45,0,0,1,3.92,0c1.5-1,2.16-.8,2.16-.8a2.8,2.8,0,0,1,.07,2.07,3.06,3.06,0,0,1,.81,2.1c0,3-1.83,3.68-3.58,3.87A1.89,1.89,0,0,1,14,17.11c0,1,0,1.89,0,2.15s.14.45.54.37A7.84,7.84,0,0,0,12,4.35Z"/>
    <path d="M7.4,15.78a.23.23,0,0,1-.31.06c-.13-.06-.2-.18-.16-.27a.23.23,0,0,1,.31-.06c.13.06.2.18.16.27Z"/>
    <path d="M7.69,16.21a.27.27,0,0,1-.35-.08c-.11-.12-.13-.27,0-.35a.28.28,0,0,1,.35.08C7.75,16,7.77,16.13,7.69,16.21Z"/>
    <path d="M8,16.62a.29.29,0,0,1-.35-.12c-.1-.12-.1-.27,0-.33a.29.29,0,0,1,.35.12c.1.12.1.27,0,.33Z"/>
    <path d="M8.37,17c-.07.09-.23.06-.34-.05A.26.26,0,0,1,8,16.64c.08-.08.23-.06.35.05S8.45,17,8.37,17Z"/>
    <path d="M8.93,17.29a.2.2,0,0,1-.25.14l0,0a.29.29,0,0,1-.2-.32.2.2,0,0,1,.23-.16s.05,0,.07,0A.3.3,0,0,1,8.93,17.29Z"/>
    <path d="M9.57,17.28a.26.26,0,0,1-.25.26h0a.25.25,0,0,1-.25-.24h0A.25.25,0,0,1,9.32,17a.24.24,0,0,1,.25.24Z"/>
    <path d="M10.17,17.15a.29.29,0,0,1-.22.3.21.21,0,0,1-.27-.14s0,0,0,0a.28.28,0,0,1,.22-.3.22.22,0,0,1,.27.14S10.17,17.14,10.17,17.15Z"/>
  </g>
</svg>
