<svg xmlns="http://www.w3.org/2000/svg" viewBox="0 0 24 24">
  <path
    d="M19.84,7.14a6.27,6.27,0,0,1-1.85.5,3.22,3.22,0,0,0,1.42-1.78,6.56,6.56,0,0,1-2.05.79,3.22,3.22,0,0,0-5.48,2.93A9.16,9.16,0,0,1,5.25,6.22a3.22,3.22,0,0,0,1,4.29,3.13,3.13,0,0,1-1.46-.4v0a3.24,3.24,0,0,0,2.58,3.16,3.38,3.38,0,0,1-1.45,0,3.21,3.21,0,0,0,3,2.23,6.45,6.45,0,0,1-4,1.38,6.45,6.45,0,0,1-.76,0,9.06,9.06,0,0,0,4.93,1.44,9.08,9.08,0,0,0,9.15-9V9.22c0-.14,0-.28,0-.42A6.51,6.51,0,0,0,19.84,7.14Z"
    fill="currentColor"
  />
</svg>
