<?xml version="1.0" standalone="no"?>
<!DOCTYPE svg PUBLIC "-//W3C//DTD SVG 20010904//EN"
 "http://www.w3.org/TR/2001/REC-SVG-20010904/DTD/svg10.dtd">
<svg version="1.0" xmlns="http://www.w3.org/2000/svg"
 width="680.000000pt" height="680.000000pt" viewBox="0 0 680.000000 680.000000"
 preserveAspectRatio="xMidYMid meet">
<metadata>
Created by potrace 1.11, written by Peter Selinger 2001-2013
</metadata>
<g transform="translate(0.000000,680.000000) scale(0.100000,-0.100000)"
fill="#000000" stroke="none">
<path d="M1122 6359 c-38 -14 -113 -68 -197 -143 -147 -130 -193 -193 -175
-240 10 -28 91 -84 290 -203 289 -172 403 -233 437 -233 33 0 53 34 42 74 -23
83 -205 519 -274 657 -45 89 -71 107 -123 88z"/>
<path d="M5044 6126 c-80 -18 -128 -44 -193 -102 -67 -60 -115 -132 -182 -269
-85 -175 -191 -346 -321 -518 -73 -96 -258 -317 -313 -373 -223 -231 -254
-262 -425 -415 -233 -210 -596 -491 -786 -609 -55 -34 -104 -41 -130 -19 -13
11 -15 26 -10 82 3 38 8 72 10 75 2 4 7 34 10 67 4 33 11 83 16 110 5 28 12
70 15 95 3 25 8 56 10 70 2 14 11 75 20 135 8 61 18 117 20 125 2 8 7 44 10
80 4 36 9 68 10 71 2 3 6 30 10 60 3 30 12 97 19 149 38 283 4 463 -113 588
-178 191 -517 196 -725 11 -54 -48 -146 -177 -179 -249 -70 -156 -299 -772
-363 -980 -64 -207 -155 -544 -167 -625 -3 -16 -10 -59 -17 -95 -7 -36 -14
-76 -15 -90 -2 -14 -6 -45 -9 -70 -22 -159 -30 -310 -29 -510 0 -156 9 -370
18 -422 2 -12 6 -54 10 -93 3 -38 10 -95 15 -125 5 -30 11 -73 14 -95 3 -22 8
-59 11 -81 9 -54 -6 -88 -134 -294 -129 -206 -203 -335 -272 -470 -48 -95 -53
-111 -53 -170 0 -66 12 -103 52 -147 29 -34 106 -65 155 -62 55 3 126 41 154
82 28 43 355 696 398 798 70 163 75 233 30 454 -8 39 -17 93 -20 120 -3 28 -8
61 -10 75 -10 58 -17 216 -17 365 -1 328 28 564 107 876 104 411 425 1377 500
1506 39 66 86 97 148 96 72 0 120 -23 154 -74 25 -38 28 -51 28 -128 0 -47 -3
-106 -7 -131 -22 -141 -59 -373 -68 -420 -5 -30 -11 -68 -14 -85 -9 -62 -18
-121 -22 -140 -31 -164 -95 -575 -96 -620 -4 -185 71 -305 216 -349 101 -31
244 8 378 101 26 18 50 33 53 33 3 0 11 5 18 10 7 6 86 65 177 132 142 104
334 251 350 268 3 3 59 50 125 104 66 54 125 104 130 110 6 6 44 40 85 76 264
229 555 539 758 807 145 192 300 459 381 655 39 93 104 139 192 133 83 -5 115
-46 112 -143 -4 -121 -201 -522 -394 -801 -22 -31 -45 -64 -52 -75 -26 -40
-182 -244 -226 -296 -25 -30 -55 -66 -66 -79 -110 -132 -425 -456 -484 -497
-33 -24 -71 -97 -71 -138 0 -66 49 -123 111 -130 39 -4 92 11 117 33 10 9 40
36 67 60 183 162 392 384 553 585 135 170 392 547 392 576 0 6 5 10 10 10 6 0
10 4 10 9 0 5 16 38 36 73 109 191 240 477 293 640 41 124 101 184 179 175
106 -12 148 -121 109 -287 -44 -188 -221 -590 -328 -747 -16 -23 -29 -44 -29
-48 0 -5 -159 -248 -217 -330 -150 -214 -419 -551 -582 -730 -115 -126 -187
-209 -198 -229 -33 -57 -3 -150 58 -180 75 -37 122 -11 285 155 396 403 805
953 1031 1385 35 66 71 128 81 137 60 55 148 49 189 -12 51 -75 24 -210 -86
-429 -178 -354 -412 -711 -689 -1046 -117 -142 -164 -195 -332 -376 -105 -113
-122 -140 -115 -188 7 -47 21 -70 58 -92 72 -44 139 -20 245 87 76 77 284 301
332 358 13 17 49 59 80 95 71 83 182 226 244 312 56 79 92 108 145 115 48 7
96 -19 110 -58 15 -43 4 -117 -28 -184 -39 -85 -158 -263 -305 -459 -267 -355
-424 -526 -702 -767 -127 -109 -403 -301 -609 -423 -71 -42 -137 -81 -145 -86
-8 -5 -46 -27 -85 -48 -38 -22 -90 -50 -115 -64 -58 -32 -177 -96 -310 -165
-529 -277 -679 -403 -852 -713 -14 -25 -45 -78 -68 -118 -76 -131 -84 -207
-33 -291 53 -86 165 -119 255 -77 52 25 68 46 169 221 221 386 307 463 764
689 160 79 330 166 379 195 49 28 90 51 92 51 22 0 437 285 536 368 206 173
257 219 469 428 179 175 219 220 353 399 218 289 410 589 466 727 80 201 79
401 -4 542 -27 46 -116 126 -141 126 -7 0 -23 8 -35 18 l-23 18 46 80 c157
272 257 551 257 716 0 195 -113 350 -288 397 -24 7 -46 19 -49 27 -3 8 7 65
21 127 58 243 40 372 -75 523 -129 169 -372 208 -576 93 -66 -36 -82 -36 -118
1 -66 69 -207 96 -341 66z"/>
<path d="M4175 5980 c-108 -22 -203 -74 -287 -155 -71 -69 -81 -83 -155 -201
-129 -208 -313 -428 -548 -655 -49 -48 -107 -102 -127 -120 -56 -47 -80 -91
-81 -149 -1 -112 111 -194 215 -158 44 16 121 82 288 248 228 229 415 458 553
681 48 79 103 136 156 163 17 9 64 17 109 20 89 4 126 20 159 69 63 92 27 208
-77 250 -39 16 -144 20 -205 7z"/>
<path d="M465 5366 c-24 -25 -26 -32 -24 -107 1 -45 5 -100 10 -123 4 -22 10
-59 13 -81 11 -67 37 -157 56 -196 36 -70 63 -67 257 31 232 117 466 246 521
287 36 27 42 61 14 86 -17 15 -117 40 -217 53 -27 3 -59 8 -70 10 -31 6 -214
33 -265 39 -25 3 -61 8 -80 10 -19 3 -70 8 -112 11 -73 6 -78 5 -103 -20z"/>
<path d="M882 2419 c-24 -5 -83 -32 -130 -60 -75 -45 -328 -209 -357 -231 -5
-4 -52 -40 -102 -78 -109 -83 -138 -127 -129 -196 8 -72 38 -113 99 -139 73
-30 120 -18 211 54 79 63 345 241 461 310 104 60 134 97 139 164 8 110 -85
195 -192 176z"/>
<path d="M5517 1542 c-23 -25 -22 -39 10 -81 53 -70 467 -495 527 -539 59 -45
103 -24 168 78 133 209 192 381 143 416 -28 21 -133 45 -340 79 -16 3 -41 7
-55 10 -14 2 -43 7 -65 10 -23 3 -50 7 -60 9 -11 2 -45 7 -75 11 -30 4 -63 9
-74 11 -10 2 -51 6 -90 9 -62 5 -74 4 -89 -13z"/>
<path d="M5190 1282 c-24 -19 -54 -112 -125 -387 -40 -157 -80 -335 -89 -395
-4 -34 19 -66 57 -79 29 -11 294 -9 357 2 85 15 108 22 139 40 33 20 33 22 28
71 -5 42 -52 179 -96 281 -5 11 -39 94 -76 185 -84 204 -119 276 -144 290 -25
13 -25 13 -51 -8z"/>
</g>
</svg>
