<svg xmlns="http://www.w3.org/2000/svg" viewBox="0 0 400 340">
  <circle cx="198.44" cy="170" r="168.12" style="fill: #d7ecec"/>
  <path d="M189,262.71,94.57,221.38a5.56,5.56,0,0,1,0-10.19L189,169.86a22.57,22.57,0,0,1,18.05,0l94.46,41.33a5.56,5.56,0,0,1,0,10.19l-94.46,41.33A22.57,22.57,0,0,1,189,262.71Z" style="fill: #50e3c2"/>
  <path d="M348,281.49l-41.62-18.21a2.45,2.45,0,0,1,0-4.49L348,240.59a9.91,9.91,0,0,1,8,0l41.62,18.2a2.45,2.45,0,0,1,0,4.49l-41.62,18.21A9.91,9.91,0,0,1,348,281.49Z" style="fill: #50e3c2"/>
  <g>
    <path d="M60.3,156.22,3,131.17A3.38,3.38,0,0,1,3,125L60.3,99.93a13.69,13.69,0,0,1,10.94,0L128.51,125a3.38,3.38,0,0,1,0,6.18L71.24,156.22A13.61,13.61,0,0,1,60.3,156.22Z" style="fill: #50e3c2"/>
    <path d="M60.3,156.22,3,131.17A3.38,3.38,0,0,1,3,125L60.3,99.93a13.69,13.69,0,0,1,10.94,0L128.51,125a3.38,3.38,0,0,1,0,6.18L71.24,156.22A13.61,13.61,0,0,1,60.3,156.22Z" style="fill: #50e3c2"/>
    <path d="M135.36,144.27l-23.61-9.88a1.38,1.38,0,0,1,0-2.53L135,121.23a5.56,5.56,0,0,1,4.47-.07L163.07,131a1.38,1.38,0,0,1,0,2.53L139.83,144.2A5.56,5.56,0,0,1,135.36,144.27Z" style="fill: #50e3c2"/>
    <path d="M111.72,134l5.18,2.27,11.61-5.08a3.38,3.38,0,0,0,0-6.18l-1-.44-15.78,6.9A1.38,1.38,0,0,0,111.72,134Z" style="fill: #28646e"/>
  </g>
  <path d="M358,172.74l-17.4-7.61a1,1,0,0,1,0-1.88l17.4-7.61a4.08,4.08,0,0,1,3.32,0l17.4,7.61a1,1,0,0,1,0,1.88l-17.4,7.61A4.17,4.17,0,0,1,358,172.74Z" style="fill: #50e3c2"/>
  <path d="M171.14,308.72l-70.88-31a4.17,4.17,0,0,1,0-7.65l70.88-31a16.88,16.88,0,0,1,13.54,0l70.89,31a4.17,4.17,0,0,1,0,7.65l-70.89,31A16.88,16.88,0,0,1,171.14,308.72Z" style="fill: #50e3c2"/>
  <path d="M310,108.81a55.26,55.26,0,0,0-58.3-55.17c-28.37,1.52-51.36,25.12-52.19,53.52a55.14,55.14,0,0,0,27.65,49.48,28.9,28.9,0,0,1,13.16,17.08l9.95,34.39a4.65,4.65,0,0,0,8.94,0l9.95-34.38A30.32,30.32,0,0,1,283,156.24,55.14,55.14,0,0,0,310,108.81Z" style="fill: #50e3c2"/>
  <path d="M243.83,185.94l6.42,22.17a4.65,4.65,0,0,0,8.94,0l4-13.71Z" style="fill: #28646e"/>
  <g>
    <path d="M251.08,98a1.57,1.57,0,0,1-1.21-.57,1.71,1.71,0,0,1,.14-2.36,35.45,35.45,0,0,0,6.93-8.25c1.33-2.42,3.49-3.68,5.74-3.36a1.66,1.66,0,0,1,1.38,1.89,1.62,1.62,0,0,1-1.81,1.43c-1.32-.18-2.2,1.13-2.52,1.71a38.52,38.52,0,0,1-7.59,9.09,1.55,1.55,0,0,1-1.06.42" style="fill: #28646e;fill-rule: evenodd"/>
    <path d="M223.26,125.83a1.71,1.71,0,0,1-1.3-.61,1.67,1.67,0,0,1,.22-2.37,48.27,48.27,0,0,1,6.23-4.14,1.72,1.72,0,0,1,2.28.76,1.66,1.66,0,0,1-.76,2.25,46.12,46.12,0,0,0-5.58,3.72,1.71,1.71,0,0,1-1.09.39" style="fill: #28646e;fill-rule: evenodd"/>
    <path d="M264.85,110.24c.66.61,1.42.35,2.12-.32,4.78-4.56,9.85-11.7,11.53-15.41a1.45,1.45,0,0,1,1.88-.92c.92.37.9,2,.07,3.67a58.3,58.3,0,0,1-11.33,15.81,1.26,1.26,0,0,0,0,1.87c.53.48,1.4.45,2.21-.38a66,66,0,0,0,7.08-8.25,1.57,1.57,0,0,1,1.59-.83c.79.16.92.92.68,1.84-.4,1.49-4.58,7-6.23,8.8-4.48,5-9,7.74-17.61,12.23-3,1.56-5.27,3.06-6.64,5.37-1.24,2.09-1.61,2.78-1.74,3a2.09,2.09,0,0,0,.92,2.79,2,2,0,0,0,2.76-1.05s-.06,0,1.56-2.71a11.68,11.68,0,0,1,5.09-4.48c8.64-3.94,12.17-7,17.19-12.06a57.35,57.35,0,0,0,6.3-8.63c2.42-4.06,1.15-7.54-1-8.13a.28.28,0,0,1-.17-.41,21.78,21.78,0,0,0,2.77-6.43c.43-2.1-.16-4.66-3.05-5.28a.27.27,0,0,1-.21-.34c.19-.67.37-1.51.49-2.06a4.7,4.7,0,0,0-3.2-5.65,4.81,4.81,0,0,0-3.89.81.38.38,0,0,1-.5-.06,3,3,0,0,0-2.16-1c-1.81,0-3.59.52-4.89,3.3-.93,2-2.32,4.65-6.38,9.16a70.06,70.06,0,0,1-12.26,10.37c-.57.37-1.36.29-1.27-.48.15-1.21,1.45-9.34,1.67-11.73.36-3.9-1.73-5.67-4.08-6-1.94-.26-4.87.3-6.48,4.7A97.9,97.9,0,0,0,233.1,105a41.69,41.69,0,0,0-.29,16.83,1.63,1.63,0,0,1-.22,1.12,66.17,66.17,0,0,0-4.2,7.3,2.08,2.08,0,0,0,.86,2.65,2,2,0,0,0,1,.25,2,2,0,0,0,1.84-1.16c.62-1.32,1.91-3.78,2.41-4.81a34.26,34.26,0,0,0,1.68-3.7,5.61,5.61,0,0,0,0-3.24,33.57,33.57,0,0,1,.33-13.59,140.23,140.23,0,0,1,4.87-15.16c.49-1.21,1.19-1.59,1.89-1.53s2,.4,1.65,2.88c-.69,4.44-1.65,10.09-2,12-.16.93-.34,3.11,1.39,4.11,1.34.77,2.82.34,4.45-.75a83.67,83.67,0,0,0,14-11.91,32.67,32.67,0,0,0,6.59-10,1.89,1.89,0,0,1,2.19-1c.44.13,1,.73.6,2-.93,3.09-4.74,10.15-12.09,16.77a1.45,1.45,0,0,0-.29,2.1,1.38,1.38,0,0,0,2,0,48.79,48.79,0,0,0,12.07-16,31.22,31.22,0,0,0,1.45-3.69,1.63,1.63,0,0,1,1.72-1.3c.8.17,1.33,1,1.08,2.35a23.71,23.71,0,0,1-1.8,5c-2.12,4.49-6.59,10.5-11.41,15.66a1.36,1.36,0,0,0,0,2" style="fill: #28646e;fill-rule: evenodd"/>
    <path d="M235.35,87.91c.26-.22.16-.5.08-.72a70.68,70.68,0,0,0-3-6.65.76.76,0,0,0-1-.4,7.86,7.86,0,0,0-2,1.38,7.42,7.42,0,0,0-1.72,1.72c-.19.33-.17.67.29,1,.9.63,5.5,3.19,6.62,3.67.22.1.51.24.77,0Z" style="fill: #28646e;fill-rule: evenodd"/>
    <path d="M232.85,90.94c-.06-.35-.35-.42-.58-.48-1.12-.29-6.11-1-7.18-1.1a.71.71,0,0,0-.83.64,8.48,8.48,0,0,0,.18,2.51,8.49,8.49,0,0,0,.64,2.42.67.67,0,0,0,1,.3,72.32,72.32,0,0,0,6.4-3.63c.2-.14.45-.31.39-.65Z" style="fill: #28646e;fill-rule: evenodd"/>
    <path d="M271.17,129.81c-.35,0-.45.31-.53.53-.42,1.1-1.73,6-1.9,7.07a.71.71,0,0,0,.54.9,8.32,8.32,0,0,0,2.5.07,8.42,8.42,0,0,0,2.47-.39.7.7,0,0,0,.4-1c-.31-1-2.3-5.73-2.87-6.76-.11-.21-.25-.48-.6-.46Z" style="fill: #28646e;fill-rule: evenodd"/>
    <path d="M274.1,127.43c-.16.31,0,.54.19.73.73.94,4.31,4.68,5.14,5.38a.7.7,0,0,0,1,0,7.71,7.71,0,0,0,1.3-2.06,7.79,7.79,0,0,0,.9-2.28.72.72,0,0,0-.62-.85c-1-.29-6.08-1.14-7.25-1.22-.24,0-.54,0-.7.27Z" style="fill: #28646e;fill-rule: evenodd"/>
  </g>
  <path d="M184.68,239.05a16.88,16.88,0,0,0-13.54,0L153.05,247l36,15.74a22.57,22.57,0,0,0,18.05,0l15.84-6.93Z" style="fill: #28646e"/>
  <circle cx="299.05" cy="150.48" r="15.34" style="fill: #28646e"/>
</svg>
